Fira Sans-Light.ufo
<glyph name="numbersign" format="1">
  <advance width="479"/>
  <unicode hex="0023"/>
  <outline>
    <contour>
      <point x="401" y="662" type="line"/>
      <point x="314" y="0" type="line"/>
      <point x="316" y="0" type="line"/>
      <point x="403" y="662" type="line"/>
    </contour>
    <contour>
      <point x="15" y="216" type="line"/>
      <point x="15" y="214" type="line"/>
      <point x="427" y="214" type="line"/>
      <point x="427" y="216" type="line"/>
    </contour>
    <contour>
      <point x="167" y="662" type="line"/>
      <point x="80" y="0" type="line"/>
      <point x="82" y="0" type="line"/>
      <point x="169" y="662" type="line"/>
    </contour>
    <contour>
      <point x="52" y="468" type="line"/>
      <point x="52" y="466" type="line"/>
      <point x="464" y="466" type="line"/>
      <point x="464" y="468" type="line"/>
    </contour>
  </outline>
</glyph>
<glyph name="dollar" format="1">
  <advance width="528"/>
  <unicode hex="0024"/>
  <outline>
    <contour>
      <point x="254" y="-8" type="line"/>
      <point x="254" y="-144" type="line"/>
      <point x="256" y="-144" type="line"/>
      <point x="256" y="-8" type="line"/>
    </contour>
    <contour>
      <point x="259" y="805" type="line"/>
      <point x="259" y="669" type="line"/>
      <point x="261" y="669" type="line"/>
      <point x="261" y="805" type="line"/>
    </contour>
    <contour>
      <point x="153" y="669"/>
      <point x="87" y="605"/>
      <point x="87" y="521" type="curve" smooth="yes"/>
      <point x="87" y="434"/>
      <point x="130" y="400"/>
      <point x="263" y="357" type="curve" smooth="yes"/>
      <point x="387" y="317"/>
      <point x="446" y="278"/>
      <point x="446" y="173" type="curve" smooth="yes"/>
      <point x="446" y="67"/>
      <point x="369" y="-7"/>
      <point x="254" y="-7" type="curve" smooth="yes"/>
      <point x="165" y="-7"/>
      <point x="114" y="23"/>
      <point x="66" y="69" type="curve"/>
      <point x="65" y="67" type="line"/>
      <point x="113" y="21"/>
      <point x="165" y="-9"/>
      <point x="254" y="-9" type="curve" smooth="yes"/>
      <point x="371" y="-9"/>
      <point x="448" y="66"/>
      <point x="448" y="173" type="curve" smooth="yes"/>
      <point x="448" y="279"/>
      <point x="389" y="319"/>
      <point x="264" y="359" type="curve" smooth="yes"/>
      <point x="130" y="402"/>
      <point x="89" y="436"/>
      <point x="89" y="521" type="curve" smooth="yes"/>
      <point x="89" y="603"/>
      <point x="154" y="667"/>
      <point x="256" y="667" type="curve" smooth="yes"/>
      <point x="335" y="667"/>
      <point x="382" y="642"/>
      <point x="423" y="605" type="curve"/>
      <point x="424" y="607" type="line"/>
      <point x="383" y="643"/>
      <point x="337" y="669"/>
      <point x="256" y="669" type="curve" smooth="yes"/>
    </contour>
    <contour>
      <point x="267" y="660" type="move" name="top"/>
    </contour>
  </outline>
</glyph>
<glyph name="parenright" format="1">
  <advance width="329"/>
  <unicode hex="0029"/>
  <outline>
    <contour>
      <point x="80" y="824" type="line"/>
      <point x="169" y="693"/>
      <point x="247" y="577"/>
      <point x="247" y="350" type="curve"/>
      <point x="247" y="123"/>
      <point x="169" y="7"/>
      <point x="80" y="-124" type="curve"/>
      <point x="82" y="-125" type="line"/>
      <point x="172" y="7"/>
      <point x="249" y="123"/>
      <point x="249" y="350" type="curve"/>
      <point x="249" y="577"/>
      <point x="172" y="693"/>
      <point x="82" y="825" type="curve"/>
    </contour>
  </outline>
</glyph>
<glyph name="plus" format="1">
  <advance width="478"/>
  <unicode hex="002B"/>
  <outline>
    <contour>
      <point x="238" y="488" type="line"/>
      <point x="238" y="332" type="line"/>
      <point x="85" y="332" type="line"/>
      <point x="85" y="330" type="line"/>
      <point x="238" y="330" type="line"/>
      <point x="238" y="174" type="line"/>
      <point x="240" y="174" type="line"/>
      <point x="240" y="330" type="line"/>
      <point x="393" y="330" type="line"/>
      <point x="393" y="332" type="line"/>
      <point x="240" y="332" type="line"/>
      <point x="240" y="488" type="line"/>
    </contour>
  </outline>
</glyph>
<glyph name="five" format="1">
  <advance width="470"/>
  <unicode hex="0035"/>
  <outline>
    <contour>
      <point x="91" y="660" type="line"/>
      <point x="91" y="360" type="line"/>
      <point x="94" y="360" type="line"/>
      <point x="133" y="390"/>
      <point x="169" y="407"/>
      <point x="226" y="407" type="curve" smooth="yes"/>
      <point x="335" y="407"/>
      <point x="398" y="333"/>
      <point x="398" y="213" type="curve" smooth="yes"/>
      <point x="398" y="86"/>
      <point x="334" y="-7"/>
      <point x="211" y="-7" type="curve" smooth="yes"/>
      <point x="146" y="-7"/>
      <point x="89" y="20"/>
      <point x="52" y="64" type="curve"/>
      <point x="50" y="63" type="line"/>
      <point x="88" y="18"/>
      <point x="145" y="-9"/>
      <point x="211" y="-9" type="curve" smooth="yes"/>
      <point x="335" y="-9"/>
      <point x="400" y="84"/>
      <point x="400" y="213" type="curve" smooth="yes"/>
      <point x="400" y="335"/>
      <point x="336" y="409"/>
      <point x="226" y="409" type="curve" smooth="yes"/>
      <point x="168" y="409"/>
      <point x="128" y="390"/>
      <point x="93" y="362" type="curve"/>
      <point x="93" y="658" type="line"/>
      <point x="379" y="658" type="line"/>
      <point x="379" y="660" type="line"/>
    </contour>
  </outline>
</glyph>
<glyph name="six" format="1">
  <advance width="505"/>
  <unicode hex="0036"/>
  <outline>
    <contour>
      <point x="154" y="670"/>
      <point x="80" y="506"/>
      <point x="80" y="287" type="curve" smooth="yes"/>
      <point x="80" y="124"/>
      <point x="134" y="-9"/>
      <point x="270" y="-9" type="curve" smooth="yes"/>
      <point x="380" y="-9"/>
      <point x="440" y="77"/>
      <point x="440" y="222" type="curve" smooth="yes"/>
      <point x="440" y="356"/>
      <point x="374" y="423"/>
      <point x="274" y="423" type="curve" smooth="yes"/>
      <point x="184" y="423"/>
      <point x="123" y="359"/>
      <point x="82" y="289" type="curve"/>
      <point x="82" y="286" type="line"/>
      <point x="125" y="358"/>
      <point x="185" y="421"/>
      <point x="274" y="421" type="curve" smooth="yes"/>
      <point x="373" y="421"/>
      <point x="438" y="355"/>
      <point x="438" y="222" type="curve" smooth="yes"/>
      <point x="438" y="79"/>
      <point x="379" y="-7"/>
      <point x="270" y="-7" type="curve" smooth="yes"/>
      <point x="135" y="-7"/>
      <point x="82" y="126"/>
      <point x="82" y="287" type="curve"/>
      <point x="82" y="288" type="line"/>
      <point x="82" y="502"/>
      <point x="156" y="668"/>
      <point x="300" y="668" type="curve" smooth="yes"/>
      <point x="341" y="668"/>
      <point x="372" y="655"/>
      <point x="398" y="633" type="curve"/>
      <point x="399" y="635" type="line"/>
      <point x="373" y="656"/>
      <point x="342" y="670"/>
      <point x="300" y="670" type="curve" smooth="yes"/>
    </contour>
  </outline>
</glyph>
<glyph name="nine" format="1">
  <advance width="499"/>
  <unicode hex="0039"/>
  <outline>
    <contour>
      <point x="423" y="393" type="line"/>
      <point x="379" y="311"/>
      <point x="317" y="263"/>
      <point x="233" y="263" type="curve" smooth="yes"/>
      <point x="138" y="263"/>
      <point x="67" y="338"/>
      <point x="67" y="460" type="curve" smooth="yes"/>
      <point x="67" y="589"/>
      <point x="143" y="668"/>
      <point x="244" y="668" type="curve" smooth="yes"/>
      <point x="373" y="668"/>
      <point x="422" y="565"/>
      <point x="422" y="391" type="curve"/>
      <point x="422" y="389" type="line"/>
      <point x="419" y="149"/>
      <point x="313" y="51"/>
      <point x="124" y="-9" type="curve"/>
      <point x="125" y="-11" type="line"/>
      <point x="315" y="48"/>
      <point x="424" y="151"/>
      <point x="424" y="393" type="curve" smooth="yes"/>
      <point x="424" y="565"/>
      <point x="375" y="670"/>
      <point x="244" y="670" type="curve" smooth="yes"/>
      <point x="141" y="670"/>
      <point x="65" y="590"/>
      <point x="65" y="460" type="curve" smooth="yes"/>
      <point x="65" y="337"/>
      <point x="137" y="261"/>
      <point x="233" y="261" type="curve" smooth="yes"/>
      <point x="318" y="261"/>
      <point x="379" y="308"/>
      <point x="423" y="389" type="curve"/>
    </contour>
  </outline>
</glyph>
<glyph name="less" format="1">
  <advance width="496"/>
  <unicode hex="003C"/>
  <outline>
    <contour>
      <point x="90" y="334" type="line"/>
      <point x="90" y="332" type="line"/>
      <point x="405" y="175" type="line"/>
      <point x="406" y="177" type="line"/>
      <point x="92" y="333" type="line"/>
      <point x="406" y="485" type="line"/>
      <point x="405" y="487" type="line"/>
    </contour>
  </outline>
</glyph>
<glyph name="A" format="1">
  <advance width="556"/>
  <unicode hex="0041"/>
  <outline>
    <contour>
      <point x="276" y="680" type="line"/>
      <point x="35" y="0" type="line"/>
      <point x="37" y="0" type="line"/>
      <point x="277" y="678" type="line"/>
      <point x="519" y="0" type="line"/>
      <point x="521" y="0" type="line"/>
      <point x="278" y="680" type="line"/>
    </contour>
    <contour>
      <point x="112" y="215" type="line"/>
      <point x="112" y="213" type="line"/>
      <point x="443" y="213" type="line"/>
      <point x="443" y="215" type="line"/>
    </contour>
    <contour>
      <point x="531" y="0" type="move" name="ogonek"/>
    </contour>
    <contour>
      <point x="278" y="680" type="move" name="top"/>
    </contour>
    <contour>
      <point x="140" y="680" type="move" name="topleft"/>
    </contour>
  </outline>
</glyph>
<glyph name="D" format="1">
  <advance width="613"/>
  <unicode hex="0044"/>
  <outline>
    <contour>
      <point x="130" y="680" type="line"/>
      <point x="130" y="0" type="line"/>
      <point x="241" y="0" type="line" smooth="yes"/>
      <point x="380" y="0"/>
      <point x="528" y="69"/>
      <point x="528" y="348" type="curve" smooth="yes"/>
      <point x="528" y="626"/>
      <point x="378" y="680"/>
      <point x="234" y="680" type="curve" smooth="yes"/>
    </contour>
    <contour>
      <point x="377" y="678"/>
      <point x="526" y="624"/>
      <point x="526" y="348" type="curve" smooth="yes"/>
      <point x="526" y="71"/>
      <point x="380" y="2"/>
      <point x="241" y="2" type="curve" smooth="yes"/>
      <point x="132" y="2" type="line"/>
      <point x="132" y="678" type="line"/>
      <point x="234" y="678" type="line" smooth="yes"/>
    </contour>
    <contour>
      <point x="309" y="340" type="move" name="center"/>
    </contour>
    <contour>
      <point x="289" y="680" type="move" name="top"/>
    </contour>
  </outline>
</glyph>
<glyph name="J" format="1">
  <advance width="274"/>
  <unicode hex="004A"/>
  <outline>
    <contour>
      <point x="148" y="680" type="line"/>
      <point x="148" y="85" type="line" smooth="yes"/>
      <point x="148" y="-6"/>
      <point x="129" y="-49"/>
      <point x="30" y="-89" type="curve"/>
      <point x="31" y="-91" type="line"/>
      <point x="131" y="-50"/>
      <point x="150" y="-7"/>
      <point x="150" y="85" type="curve" smooth="yes"/>
      <point x="150" y="680" type="line"/>
    </contour>
    <contour>
      <point x="150" y="680" type="move" name="top"/>
    </contour>
  </outline>
</glyph>
<glyph name="L" format="1">
  <advance width="445"/>
  <unicode hex="004C"/>
  <outline>
    <contour>
      <point x="130" y="680" type="line"/>
      <point x="130" y="0" type="line"/>
      <point x="420" y="0" type="line"/>
      <point x="420" y="2" type="line"/>
      <point x="132" y="2" type="line"/>
      <point x="132" y="680" type="line"/>
    </contour>
    <contour>
      <point x="275" y="0" type="move" name="bottom"/>
    </contour>
    <contour>
      <point x="131" y="680" type="move" name="top"/>
    </contour>
    <contour>
      <point x="192" y="680" type="move" name="topright"/>
    </contour>
    <contour>
      <point x="350" y="355" type="move" name="center"/>
    </contour>
  </outline>
</glyph>
<glyph name="M" format="1">
  <advance width="757"/>
  <unicode hex="004D"/>
  <outline>
    <contour>
      <point x="589" y="680" type="line"/>
      <point x="378" y="88" type="line"/>
      <point x="167" y="680" type="line"/>
      <point x="164" y="680" type="line"/>
      <point x="85" y="0" type="line"/>
      <point x="87" y="0" type="line"/>
      <point x="129" y="361" type="line" smooth="yes"/>
      <point x="142" y="474"/>
      <point x="161" y="628"/>
      <point x="166" y="676" type="curve"/>
      <point x="377" y="85" type="line"/>
      <point x="379" y="85" type="line"/>
      <point x="590" y="676" type="line"/>
      <point x="598" y="604"/>
      <point x="615" y="468"/>
      <point x="628" y="354" type="curve" smooth="yes"/>
      <point x="670" y="0" type="line"/>
      <point x="672" y="0" type="line"/>
      <point x="592" y="680" type="line"/>
    </contour>
  </outline>
</glyph>
<glyph name="P" format="1">
  <advance width="552"/>
  <unicode hex="0050"/>
  <outline>
    <contour>
      <point x="132" y="678" type="line"/>
      <point x="252" y="678" type="line" smooth="yes"/>
      <point x="410" y="678"/>
      <point x="485" y="621"/>
      <point x="485" y="485" type="curve" smooth="yes"/>
      <point x="485" y="347"/>
      <point x="394" y="293"/>
      <point x="249" y="293" type="curve" smooth="yes"/>
      <point x="131" y="293" type="line"/>
      <point x="131" y="291" type="line"/>
      <point x="249" y="291" type="line" smooth="yes"/>
      <point x="396" y="291"/>
      <point x="487" y="346"/>
      <point x="487" y="485" type="curve" smooth="yes"/>
      <point x="487" y="622"/>
      <point x="411" y="680"/>
      <point x="252" y="680" type="curve" smooth="yes"/>
      <point x="130" y="680" type="line"/>
      <point x="130" y="0" type="line"/>
      <point x="132" y="0" type="line"/>
    </contour>
  </outline>
</glyph>
<glyph name="Q" format="1">
  <advance width="674"/>
  <unicode hex="0051"/>
  <outline>
    <contour>
      <point x="188" y="690"/>
      <point x="85" y="557"/>
      <point x="85" y="338" type="curve" smooth="yes"/>
      <point x="85" y="119"/>
      <point x="184" y="-9"/>
      <point x="343" y="-9" type="curve" smooth="yes"/>
      <point x="348" y="-9"/>
      <point x="353" y="-9"/>
      <point x="366" y="-8" type="curve"/>
      <point x="373" y="-7" type="line"/>
      <point x="520" y="6"/>
      <point x="602" y="133"/>
      <point x="602" y="340" type="curve" smooth="yes"/>
      <point x="602" y="563"/>
      <point x="504" y="690"/>
      <point x="343" y="690" type="curve" smooth="yes"/>
    </contour>
    <contour>
      <point x="343" y="-9" type="line"/>
      <point x="485" y="-7"/>
      <point x="553" y="-24"/>
      <point x="614" y="-73" type="curve"/>
      <point x="616" y="-72" type="line"/>
      <point x="553" y="-21"/>
      <point x="480" y="-8"/>
      <point x="373" y="-7" type="curve"/>
    </contour>
    <contour>
      <point x="503" y="688"/>
      <point x="600" y="561"/>
      <point x="600" y="340" type="curve" smooth="yes"/>
      <point x="600" y="122"/>
      <point x="509" y="-7"/>
      <point x="343" y="-7" type="curve" smooth="yes"/>
      <point x="185" y="-7"/>
      <point x="87" y="121"/>
      <point x="87" y="338" type="curve" smooth="yes"/>
      <point x="87" y="555"/>
      <point x="189" y="688"/>
      <point x="343" y="688" type="curve" smooth="yes"/>
    </contour>
  </outline>
</glyph>
<glyph name="R" format="1">
  <advance width="561"/>
  <unicode hex="0052"/>
  <outline>
    <contour>
      <point x="130" y="680" type="line"/>
      <point x="130" y="0" type="line"/>
      <point x="132" y="0" type="line"/>
      <point x="132" y="678" type="line"/>
      <point x="267" y="678" type="line" smooth="yes"/>
      <point x="426" y="678"/>
      <point x="480" y="611"/>
      <point x="480" y="506" type="curve" smooth="yes"/>
      <point x="480" y="383"/>
      <point x="392" y="336"/>
      <point x="306" y="336" type="curve" smooth="yes"/>
      <point x="131" y="336" type="line"/>
      <point x="131" y="334" type="line"/>
      <point x="312" y="334" type="line"/>
      <point x="393" y="336"/>
      <point x="482" y="382"/>
      <point x="482" y="506" type="curve" smooth="yes"/>
      <point x="482" y="612"/>
      <point x="427" y="680"/>
      <point x="267" y="680" type="curve" smooth="yes"/>
    </contour>
    <contour>
      <point x="311" y="335" type="line"/>
      <point x="503" y="0" type="line"/>
      <point x="506" y="0" type="line"/>
      <point x="313" y="335" type="line"/>
    </contour>
    <contour>
      <point x="281" y="680" type="move" name="top"/>
    </contour>
    <contour>
      <point x="301" y="0" type="move" name="bottom"/>
    </contour>
  </outline>
</glyph>
<glyph name="U" format="1">
  <advance width="634"/>
  <unicode hex="0055"/>
  <outline>
    <contour>
      <point x="512" y="680" type="line"/>
      <point x="512" y="206" type="line" smooth="yes"/>
      <point x="512" y="84"/>
      <point x="460" y="-7"/>
      <point x="317" y="-7" type="curve" smooth="yes"/>
      <point x="173" y="-7"/>
      <point x="122" y="84"/>
      <point x="122" y="206" type="curve" smooth="yes"/>
      <point x="122" y="680" type="line"/>
      <point x="120" y="680" type="line"/>
      <point x="120" y="206" type="line" smooth="yes"/>
      <point x="120" y="83"/>
      <point x="171" y="-9"/>
      <point x="317" y="-9" type="curve" smooth="yes"/>
      <point x="461" y="-9"/>
      <point x="514" y="83"/>
      <point x="514" y="206" type="curve" smooth="yes"/>
      <point x="514" y="680" type="line"/>
    </contour>
    <contour>
      <point x="397" y="0" type="move" name="ogonek"/>
    </contour>
    <contour>
      <point x="322" y="680" type="move" name="top"/>
    </contour>
  </outline>
</glyph>
<glyph name="V" format="1">
  <advance width="523"/>
  <unicode hex="0056"/>
  <outline>
    <contour>
      <point x="486" y="680" type="line"/>
      <point x="263" y="2" type="line"/>
      <point x="37" y="680" type="line"/>
      <point x="35" y="680" type="line"/>
      <point x="262" y="0" type="line"/>
      <point x="264" y="0" type="line"/>
      <point x="488" y="680" type="line"/>
    </contour>
  </outline>
</glyph>
<glyph name="backslash" format="1">
  <advance width="520"/>
  <unicode hex="005C"/>
  <outline>
    <contour>
      <point x="143" y="793" type="line"/>
      <point x="375" y="-92" type="line"/>
      <point x="377" y="-91" type="line"/>
      <point x="145" y="794" type="line"/>
    </contour>
  </outline>
</glyph>
<glyph name="grave" format="1">
  <advance width="228"/>
  <unicode hex="0060"/>
  <outline>
    <contour>
      <point x="30" y="744" type="line"/>
      <point x="197" y="662" type="line"/>
      <point x="198" y="664" type="line"/>
      <point x="31" y="746" type="line"/>
    </contour>
    <contour>
      <point x="109" y="517" type="move" name="_top"/>
    </contour>
  </outline>
</glyph>
<glyph name="c" format="1">
  <advance width="469"/>
  <unicode hex="0063"/>
  <outline>
    <contour>
      <point x="156" y="527"/>
      <point x="80" y="426"/>
      <point x="80" y="256" type="curve" smooth="yes"/>
      <point x="80" y="86"/>
      <point x="165" y="-9"/>
      <point x="280" y="-9" type="curve" smooth="yes"/>
      <point x="341" y="-9"/>
      <point x="381" y="13"/>
      <point x="414" y="44" type="curve"/>
      <point x="412" y="45" type="line"/>
      <point x="379" y="14"/>
      <point x="339" y="-7"/>
      <point x="280" y="-7" type="curve" smooth="yes"/>
      <point x="166" y="-7"/>
      <point x="82" y="88"/>
      <point x="82" y="256" type="curve" smooth="yes"/>
      <point x="82" y="424"/>
      <point x="158" y="525"/>
      <point x="282" y="525" type="curve" smooth="yes"/>
      <point x="333" y="525"/>
      <point x="373" y="509"/>
      <point x="408" y="476" type="curve"/>
      <point x="410" y="477" type="line"/>
      <point x="375" y="510"/>
      <point x="335" y="527"/>
      <point x="282" y="527" type="curve" smooth="yes"/>
    </contour>
    <contour>
      <point x="269" y="517" type="move" name="top"/>
    </contour>
    <contour>
      <point x="285" y="-1" type="move" name="bottom"/>
    </contour>
  </outline>
</glyph>
<glyph name="d" format="1">
  <advance width="572"/>
  <unicode hex="0064"/>
  <outline>
    <contour>
      <point x="156" y="527"/>
      <point x="85" y="417"/>
      <point x="85" y="257" type="curve" smooth="yes"/>
      <point x="85" y="87"/>
      <point x="159" y="-9"/>
      <point x="273" y="-9" type="curve" smooth="yes"/>
      <point x="364" y="-9"/>
      <point x="411" y="40"/>
      <point x="446" y="102" type="curve"/>
      <point x="446" y="106" type="line"/>
      <point x="411" y="42"/>
      <point x="364" y="-7"/>
      <point x="273" y="-7" type="curve" smooth="yes"/>
      <point x="160" y="-7"/>
      <point x="87" y="89"/>
      <point x="87" y="257" type="curve" smooth="yes"/>
      <point x="87" y="415"/>
      <point x="158" y="525"/>
      <point x="281" y="525" type="curve" smooth="yes"/>
      <point x="367" y="525"/>
      <point x="420" y="471"/>
      <point x="446" y="419" type="curve"/>
      <point x="446" y="422" type="line"/>
      <point x="422" y="472"/>
      <point x="368" y="527"/>
      <point x="281" y="527" type="curve" smooth="yes"/>
    </contour>
    <contour>
      <point x="445" y="104" type="line" smooth="yes"/>
      <point x="445" y="102" type="line"/>
      <point x="445" y="0" type="line"/>
      <point x="447" y="0" type="line"/>
      <point x="447" y="730" type="line"/>
      <point x="445" y="730" type="line"/>
    </contour>
    <contour>
      <point x="289" y="259" type="move" name="center"/>
    </contour>
    <contour>
      <point x="497" y="727" type="move" name="topright"/>
    </contour>
  </outline>
</glyph>
<glyph name="g" format="1">
  <advance width="487"/>
  <unicode hex="0067"/>
  <outline>
    <contour>
      <point x="424" y="534"/>
      <point x="397" y="527"/>
      <point x="241" y="527" type="curve" smooth="yes"/>
      <point x="145" y="527"/>
      <point x="75" y="460"/>
      <point x="75" y="357" type="curve" smooth="yes"/>
      <point x="75" y="286"/>
      <point x="112" y="241"/>
      <point x="162" y="215" type="curve"/>
      <point x="132" y="195"/>
      <point x="106" y="168"/>
      <point x="106" y="128" type="curve" smooth="yes"/>
      <point x="106" y="82"/>
      <point x="143" y="54"/>
      <point x="217" y="54" type="curve" smooth="yes"/>
      <point x="308" y="54" type="line" smooth="yes"/>
      <point x="397" y="54"/>
      <point x="450" y="10"/>
      <point x="450" y="-59" type="curve" smooth="yes"/>
      <point x="450" y="-145"/>
      <point x="385" y="-190"/>
      <point x="252" y="-190" type="curve" smooth="yes"/>
      <point x="117" y="-190"/>
      <point x="57" y="-157"/>
      <point x="57" y="-60" type="curve"/>
      <point x="55" y="-60" type="line"/>
      <point x="55" y="-158"/>
      <point x="115" y="-192"/>
      <point x="252" y="-192" type="curve" smooth="yes"/>
      <point x="387" y="-192"/>
      <point x="452" y="-146"/>
      <point x="452" y="-59" type="curve" smooth="yes"/>
      <point x="452" y="10"/>
      <point x="400" y="56"/>
      <point x="308" y="56" type="curve" smooth="yes"/>
      <point x="217" y="56" type="line" smooth="yes"/>
      <point x="144" y="56"/>
      <point x="108" y="83"/>
      <point x="108" y="128" type="curve" smooth="yes"/>
      <point x="108" y="165"/>
      <point x="132" y="194"/>
      <point x="164" y="214" type="curve"/>
      <point x="189" y="202"/>
      <point x="217" y="194"/>
      <point x="249" y="194" type="curve" smooth="yes"/>
      <point x="351" y="194"/>
      <point x="419" y="252"/>
      <point x="419" y="356" type="curve" smooth="yes"/>
      <point x="419" y="445"/>
      <point x="371" y="513"/>
      <point x="272" y="525" type="curve"/>
      <point x="378" y="525"/>
      <point x="428" y="532"/>
      <point x="462" y="542" type="curve"/>
      <point x="462" y="544" type="line"/>
    </contour>
    <contour>
      <point x="329" y="525"/>
      <point x="417" y="481"/>
      <point x="417" y="356" type="curve" smooth="yes"/>
      <point x="417" y="253"/>
      <point x="349" y="196"/>
      <point x="249" y="196" type="curve" smooth="yes"/>
      <point x="167" y="196"/>
      <point x="77" y="250"/>
      <point x="77" y="357" type="curve" smooth="yes"/>
      <point x="77" y="455"/>
      <point x="143" y="525"/>
      <point x="241" y="525" type="curve" smooth="yes"/>
    </contour>
    <contour>
      <point x="246" y="517" type="move" name="top"/>
    </contour>
    <contour>
      <point x="246" y="0" type="move" name="bottom"/>
    </contour>
  </outline>
</glyph>
<glyph name="l" format="1">
  <advance width="275"/>
  <unicode hex="006C"/>
  <outline>
    <contour>
      <point x="120" y="730" type="line"/>
      <point x="120" y="64" type="line" smooth="yes"/>
      <point x="120" y="19"/>
      <point x="139" y="-9"/>
      <point x="179" y="-9" type="curve" smooth="yes"/>
      <point x="194" y="-9"/>
      <point x="208" y="-6"/>
      <point x="220" y="-1" type="curve"/>
      <point x="220" y="1" type="line"/>
      <point x="208" y="-4"/>
      <point x="194" y="-7"/>
      <point x="179" y="-7" type="curve" smooth="yes"/>
      <point x="140" y="-7"/>
      <point x="122" y="21"/>
      <point x="122" y="64" type="curve" smooth="yes"/>
      <point x="122" y="730" type="line"/>
    </contour>
    <contour>
      <point x="174" y="0" type="move" name="bottom"/>
    </contour>
    <contour>
      <point x="121" y="730" type="move" name="top"/>
    </contour>
    <contour>
      <point x="172" y="727" type="move" name="topright"/>
    </contour>
    <contour>
      <point x="256" y="375" type="move" name="center"/>
    </contour>
  </outline>
</glyph>
<glyph name="m" format="1">
  <advance width="845"/>
  <unicode hex="006D"/>
  <outline>
    <contour>
      <point x="223" y="527"/>
      <point x="168" y="475"/>
      <point x="126" y="389" type="curve"/>
      <point x="127" y="387" type="line"/>
      <point x="169" y="473"/>
      <point x="224" y="525"/>
      <point x="301" y="525" type="curve" smooth="yes"/>
      <point x="385" y="525"/>
      <point x="424" y="464"/>
      <point x="424" y="378" type="curve" smooth="yes"/>
      <point x="424" y="0" type="line"/>
      <point x="426" y="0" type="line"/>
      <point x="426" y="388" type="line"/>
      <point x="426" y="389" type="line"/>
      <point x="423" y="473"/>
      <point x="380" y="527"/>
      <point x="301" y="527" type="curve" smooth="yes"/>
    </contour>
    <contour>
      <point x="125" y="517" type="line"/>
      <point x="125" y="0" type="line"/>
      <point x="127" y="0" type="line"/>
      <point x="127" y="389" type="line"/>
      <point x="127" y="517" type="line"/>
    </contour>
    <contour>
      <point x="522" y="527"/>
      <point x="467" y="475"/>
      <point x="425" y="389" type="curve"/>
      <point x="426" y="387" type="line"/>
      <point x="468" y="473"/>
      <point x="523" y="525"/>
      <point x="600" y="525" type="curve" smooth="yes"/>
      <point x="684" y="525"/>
      <point x="723" y="464"/>
      <point x="723" y="368" type="curve" smooth="yes"/>
      <point x="723" y="0" type="line"/>
      <point x="725" y="0" type="line"/>
      <point x="725" y="368" type="line" smooth="yes"/>
      <point x="725" y="465"/>
      <point x="685" y="527"/>
      <point x="600" y="527" type="curve" smooth="yes"/>
    </contour>
  </outline>
</glyph>
<glyph name="q" format="1">
  <advance width="567"/>
  <unicode hex="0071"/>
  <outline>
    <contour>
      <point x="440" y="-190" type="line"/>
      <point x="442" y="-190" type="line"/>
      <point x="442" y="517" type="line"/>
      <point x="440" y="517" type="line"/>
      <point x="440" y="424" type="line"/>
      <point x="440" y="421" type="line"/>
    </contour>
    <contour>
      <point x="151" y="527"/>
      <point x="80" y="417"/>
      <point x="80" y="257" type="curve" smooth="yes"/>
      <point x="80" y="87"/>
      <point x="154" y="-9"/>
      <point x="267" y="-9" type="curve" smooth="yes"/>
      <point x="359" y="-9"/>
      <point x="406" y="40"/>
      <point x="441" y="102" type="curve"/>
      <point x="441" y="106" type="line"/>
      <point x="406" y="42"/>
      <point x="359" y="-7"/>
      <point x="267" y="-7" type="curve" smooth="yes"/>
      <point x="155" y="-7"/>
      <point x="82" y="89"/>
      <point x="82" y="257" type="curve" smooth="yes"/>
      <point x="82" y="415"/>
      <point x="153" y="525"/>
      <point x="276" y="525" type="curve" smooth="yes"/>
      <point x="362" y="525"/>
      <point x="415" y="471"/>
      <point x="441" y="419" type="curve"/>
      <point x="441" y="423" type="line"/>
      <point x="416" y="472"/>
      <point x="363" y="527"/>
      <point x="276" y="527" type="curve" smooth="yes"/>
    </contour>
  </outline>
</glyph>
<glyph name="u" format="1">
  <advance width="575"/>
  <unicode hex="0075"/>
  <outline>
    <contour>
      <point x="448" y="517" type="line"/>
      <point x="448" y="120" type="line"/>
      <point x="407" y="45"/>
      <point x="348" y="-7"/>
      <point x="261" y="-7" type="curve" smooth="yes"/>
      <point x="175" y="-7"/>
      <point x="122" y="48"/>
      <point x="122" y="150" type="curve" smooth="yes"/>
      <point x="122" y="517" type="line"/>
      <point x="120" y="517" type="line"/>
      <point x="120" y="150" type="line" smooth="yes"/>
      <point x="120" y="46"/>
      <point x="174" y="-9"/>
      <point x="261" y="-9" type="curve" smooth="yes"/>
      <point x="347" y="-9"/>
      <point x="406" y="40"/>
      <point x="448" y="116" type="curve"/>
      <point x="448" y="0" type="line"/>
      <point x="450" y="0" type="line"/>
      <point x="450" y="517" type="line"/>
    </contour>
    <contour>
      <point x="460" y="0" type="move" name="ogonek"/>
    </contour>
    <contour>
      <point x="290" y="517" type="move" name="top"/>
    </contour>
  </outline>
</glyph>
<glyph name="w" format="1">
  <advance width="672"/>
  <unicode hex="0077"/>
  <outline>
    <contour>
      <point x="630" y="517" type="line"/>
      <point x="490" y="2" type="line"/>
      <point x="337" y="517" type="line"/>
      <point x="335" y="517" type="line"/>
      <point x="182" y="2" type="line"/>
      <point x="42" y="517" type="line"/>
      <point x="40" y="517" type="line"/>
      <point x="181" y="0" type="line"/>
      <point x="183" y="0" type="line"/>
      <point x="336" y="515" type="line"/>
      <point x="489" y="0" type="line"/>
      <point x="491" y="0" type="line"/>
      <point x="632" y="517" type="line"/>
    </contour>
    <contour>
      <point x="336" y="517" type="move" name="top"/>
    </contour>
  </outline>
</glyph>
<glyph name="x" format="1">
  <advance width="424"/>
  <unicode hex="0078"/>
  <outline>
    <contour>
      <point x="52" y="517" type="line"/>
      <point x="209" y="278" type="line"/>
      <point x="210" y="277" type="line"/>
      <point x="397" y="0" type="line"/>
      <point x="399" y="0" type="line"/>
      <point x="211" y="278" type="line"/>
      <point x="210" y="279" type="line"/>
      <point x="54" y="517" type="line"/>
    </contour>
    <contour>
      <point x="370" y="517" type="line"/>
      <point x="210" y="279" type="line"/>
      <point x="209" y="278" type="line"/>
      <point x="25" y="0" type="line"/>
      <point x="27" y="0" type="line"/>
      <point x="210" y="277" type="line"/>
      <point x="211" y="278" type="line"/>
      <point x="372" y="517" type="line"/>
    </contour>
    <contour>
      <point x="407" y="0" type="move" name="bottomright"/>
    </contour>
  </outline>
</glyph>
<glyph name="y" format="1">
  <advance width="434"/>
  <unicode hex="0079"/>
  <outline>
    <contour>
      <point x="402" y="517" type="line"/>
      <point x="224" y="0" type="line"/>
      <point x="32" y="517" type="line"/>
      <point x="30" y="517" type="line"/>
      <point x="222" y="0" type="line"/>
      <point x="224" y="0" type="line"/>
      <point x="185" y="-112"/>
      <point x="163" y="-157"/>
      <point x="61" y="-187" type="curve"/>
      <point x="61" y="-189" type="line"/>
      <point x="165" y="-159"/>
      <point x="187" y="-112"/>
      <point x="226" y="0" type="curve" smooth="yes"/>
      <point x="404" y="517" type="line"/>
    </contour>
    <contour>
      <point x="217" y="517" type="move" name="top"/>
    </contour>
  </outline>
</glyph>
<glyph name="z" format="1">
  <advance width="410"/>
  <unicode hex="007A"/>
  <outline>
    <contour>
      <point x="66" y="517" type="line"/>
      <point x="66" y="515" type="line"/>
      <point x="367" y="515" type="line"/>
      <point x="35" y="2" type="line"/>
      <point x="35" y="0" type="line"/>
      <point x="359" y="0" type="line"/>
      <point x="359" y="2" type="line"/>
      <point x="38" y="2" type="line"/>
      <point x="370" y="515" type="line"/>
      <point x="370" y="517" type="line"/>
    </contour>
    <contour>
      <point x="215" y="517" type="move" name="top"/>
    </contour>
  </outline>
</glyph>
<glyph name="braceright" format="1">
  <advance width="326"/>
  <unicode hex="007D"/>
  <outline>
    <contour>
      <point x="95" y="806" type="line"/>
      <point x="144" y="806"/>
      <point x="173" y="779"/>
      <point x="173" y="713" type="curve"/>
      <point x="173" y="427" type="line"/>
      <point x="173" y="378"/>
      <point x="201" y="349"/>
      <point x="249" y="349" type="curve"/>
      <point x="201" y="349"/>
      <point x="173" y="320"/>
      <point x="173" y="271" type="curve"/>
      <point x="173" y="-15" type="line"/>
      <point x="173" y="-81"/>
      <point x="144" y="-108"/>
      <point x="95" y="-108" type="curve"/>
      <point x="95" y="-110" type="line"/>
      <point x="144" y="-110"/>
      <point x="175" y="-84"/>
      <point x="175" y="-16" type="curve"/>
      <point x="175" y="271" type="line"/>
      <point x="175" y="323"/>
      <point x="206" y="348"/>
      <point x="251" y="348" type="curve"/>
      <point x="251" y="350" type="line"/>
      <point x="206" y="350"/>
      <point x="175" y="375"/>
      <point x="175" y="427" type="curve"/>
      <point x="175" y="714" type="line"/>
      <point x="175" y="782"/>
      <point x="144" y="808"/>
      <point x="95" y="808" type="curve"/>
    </contour>
  </outline>
</glyph>
<glyph name="asciitilde" format="1">
  <advance width="454"/>
  <unicode hex="007E"/>
  <outline>
    <contour>
      <point x="124" y="346"/>
      <point x="103" y="326"/>
      <point x="87" y="303" type="curve"/>
      <point x="85" y="303" type="line"/>
      <point x="99" y="325"/>
      <point x="123" y="348"/>
      <point x="157" y="348" type="curve"/>
      <point x="205" y="348"/>
      <point x="252" y="293"/>
      <point x="299" y="293" type="curve"/>
      <point x="333" y="293"/>
      <point x="354" y="313"/>
      <point x="367" y="336" type="curve"/>
      <point x="369" y="336" type="line"/>
      <point x="358" y="314"/>
      <point x="334" y="291"/>
      <point x="299" y="291" type="curve"/>
      <point x="252" y="291"/>
      <point x="205" y="346"/>
      <point x="157" y="346" type="curve"/>
    </contour>
  </outline>
</glyph>
<glyph name="exclamdown" format="1">
  <advance width="234"/>
  <unicode hex="00A1"/>
  <outline>
    <contour>
      <point x="116" y="254" type="line"/>
      <point x="116" y="-188" type="line"/>
      <point x="118" y="-188" type="line"/>
      <point x="118" y="254" type="line"/>
    </contour>
    <contour>
      <point x="113" y="439"/>
      <point x="110" y="436"/>
      <point x="110" y="432" type="curve" smooth="yes"/>
      <point x="110" y="428"/>
      <point x="113" y="425"/>
      <point x="117" y="425" type="curve" smooth="yes"/>
      <point x="121" y="425"/>
      <point x="124" y="428"/>
      <point x="124" y="432" type="curve" smooth="yes"/>
      <point x="124" y="436"/>
      <point x="121" y="439"/>
      <point x="117" y="439" type="curve" smooth="yes"/>
    </contour>
  </outline>
</glyph>
<glyph name="brokenbar" format="1">
  <advance width="420"/>
  <unicode hex="00A6"/>
  <outline>
    <contour>
      <point x="209" y="262" type="line"/>
      <point x="209" y="-97" type="line"/>
      <point x="211" y="-97" type="line"/>
      <point x="211" y="262" type="line"/>
    </contour>
    <contour>
      <point x="209" y="800" type="line"/>
      <point x="209" y="443" type="line"/>
      <point x="211" y="443" type="line"/>
      <point x="211" y="800" type="line"/>
    </contour>
  </outline>
</glyph>
<glyph name="section" format="1">
  <advance width="531"/>
  <unicode hex="00A7"/>
  <outline>
    <contour>
      <point x="202" y="670"/>
      <point x="135" y="625"/>
      <point x="135" y="552" type="curve"/>
      <point x="135" y="493"/>
      <point x="165" y="463"/>
      <point x="280" y="424" type="curve"/>
      <point x="381" y="388"/>
      <point x="419" y="358"/>
      <point x="419" y="284" type="curve"/>
      <point x="419" y="224"/>
      <point x="382" y="184"/>
      <point x="333" y="157" type="curve"/>
      <point x="334" y="155" type="line"/>
      <point x="384" y="183"/>
      <point x="421" y="224"/>
      <point x="421" y="284" type="curve"/>
      <point x="421" y="358"/>
      <point x="383" y="390"/>
      <point x="280" y="426" type="curve"/>
      <point x="167" y="465"/>
      <point x="137" y="493"/>
      <point x="137" y="552" type="curve"/>
      <point x="137" y="623"/>
      <point x="202" y="668"/>
      <point x="272" y="668" type="curve"/>
      <point x="327" y="668"/>
      <point x="366" y="655"/>
      <point x="409" y="628" type="curve"/>
      <point x="410" y="630" type="line"/>
      <point x="366" y="657"/>
      <point x="327" y="670"/>
      <point x="272" y="670" type="curve"/>
    </contour>
    <contour>
      <point x="140" y="415"/>
      <point x="110" y="375"/>
      <point x="110" y="321" type="curve"/>
      <point x="110" y="248"/>
      <point x="152" y="220"/>
      <point x="257" y="185" type="curve"/>
      <point x="364" y="151"/>
      <point x="393" y="124"/>
      <point x="396" y="61" type="curve"/>
      <point x="396" y="-12"/>
      <point x="338" y="-57"/>
      <point x="261" y="-57" type="curve"/>
      <point x="201" y="-57"/>
      <point x="157" y="-44"/>
      <point x="117" y="-16" type="curve"/>
      <point x="115" y="-18" type="line"/>
      <point x="157" y="-46"/>
      <point x="201" y="-59"/>
      <point x="261" y="-59" type="curve"/>
      <point x="340" y="-59"/>
      <point x="398" y="-12"/>
      <point x="398" y="61" type="curve"/>
      <point x="395" y="124"/>
      <point x="366" y="153"/>
      <point x="257" y="187" type="curve"/>
      <point x="152" y="222"/>
      <point x="112" y="250"/>
      <point x="112" y="321" type="curve"/>
      <point x="112" y="375"/>
      <point x="142" y="413"/>
      <point x="206" y="454" type="curve"/>
      <point x="205" y="456" type="line"/>
    </contour>
  </outline>
</glyph>
<glyph name="ordfeminine" format="1">
  <advance width="500"/>
  <unicode hex="00AA"/>
  <outline>
    <contour>
      <point x="208" y="680"/>
      <point x="171" y="672"/>
      <point x="127" y="655" type="curve"/>
      <point x="128" y="653" type="line"/>
      <point x="172" y="670"/>
      <point x="209" y="678"/>
      <point x="245" y="678" type="curve" smooth="yes"/>
      <point x="328" y="678"/>
      <point x="356" y="634"/>
      <point x="356" y="564" type="curve" smooth="yes"/>
      <point x="356" y="366" type="line"/>
      <point x="356" y="364" type="line"/>
      <point x="356" y="310"/>
      <point x="365" y="289"/>
      <point x="400" y="278" type="curve"/>
      <point x="401" y="280" type="line"/>
      <point x="366" y="290"/>
      <point x="358" y="313"/>
      <point x="358" y="368" type="curve" smooth="yes"/>
      <point x="358" y="564" type="line" smooth="yes"/>
      <point x="358" y="636"/>
      <point x="329" y="680"/>
      <point x="245" y="680" type="curve" smooth="yes"/>
    </contour>
    <contour>
      <point x="257" y="513" type="line" smooth="yes"/>
      <point x="159" y="513"/>
      <point x="98" y="470"/>
      <point x="98" y="394" type="curve" smooth="yes"/>
      <point x="98" y="327"/>
      <point x="140" y="278"/>
      <point x="218" y="278" type="curve" smooth="yes"/>
      <point x="287" y="278"/>
      <point x="329" y="309"/>
      <point x="357" y="365" type="curve"/>
      <point x="357" y="369" type="line"/>
      <point x="328" y="312"/>
      <point x="288" y="280"/>
      <point x="218" y="280" type="curve" smooth="yes"/>
      <point x="142" y="280"/>
      <point x="100" y="328"/>
      <point x="100" y="394" type="curve" smooth="yes"/>
      <point x="100" y="468"/>
      <point x="160" y="511"/>
      <point x="257" y="511" type="curve" smooth="yes"/>
      <point x="357" y="511" type="line"/>
      <point x="357" y="513" type="line"/>
    </contour>
    <component base="minus" xOffset="14" yOffset="-330"/>
  </outline>
</glyph>
<glyph name="logicalnot" format="1">
  <advance width="488"/>
  <unicode hex="00AC"/>
  <outline>
    <contour>
      <point x="85" y="322" type="line"/>
      <point x="85" y="320" type="line"/>
      <point x="401" y="320" type="line"/>
      <point x="401" y="215" type="line"/>
      <point x="403" y="215" type="line"/>
      <point x="403" y="322" type="line"/>
    </contour>
  </outline>
</glyph>
<glyph name="macron" format="1">
  <advance width="250"/>
  <unicode hex="00AF"/>
  <outline>
    <contour>
      <point x="220" y="691" type="line"/>
      <point x="30" y="691" type="line"/>
      <point x="30" y="689" type="line"/>
      <point x="220" y="689" type="line"/>
    </contour>
    <contour>
      <point x="125" y="517" type="move" name="_top"/>
    </contour>
  </outline>
</glyph>
<glyph name="cedilla" format="1">
  <advance width="189"/>
  <unicode hex="00B8"/>
  <outline>
    <contour>
      <point x="71" y="-8" type="line"/>
      <point x="67" y="-84" type="line"/>
      <point x="131" y="-85"/>
      <point x="157" y="-104"/>
      <point x="157" y="-141" type="curve" smooth="yes"/>
      <point x="157" y="-185"/>
      <point x="124" y="-200"/>
      <point x="91" y="-200" type="curve" smooth="yes"/>
      <point x="64" y="-200"/>
      <point x="48" y="-195"/>
      <point x="31" y="-184" type="curve"/>
      <point x="30" y="-186" type="line"/>
      <point x="46" y="-196"/>
      <point x="62" y="-202"/>
      <point x="91" y="-202" type="curve" smooth="yes"/>
      <point x="125" y="-202"/>
      <point x="159" y="-186"/>
      <point x="159" y="-141" type="curve" smooth="yes"/>
      <point x="159" y="-98"/>
      <point x="124" y="-83"/>
      <point x="69" y="-82" type="curve"/>
      <point x="73" y="-8" type="line"/>
    </contour>
    <contour>
      <point x="80" y="0" type="move" name="_bottom"/>
    </contour>
  </outline>
</glyph>
<glyph name="ordmasculine" format="1">
  <advance width="500"/>
  <unicode hex="00BA"/>
  <outline>
    <contour>
      <point x="154" y="680"/>
      <point x="90" y="608"/>
      <point x="90" y="479" type="curve" smooth="yes"/>
      <point x="90" y="353"/>
      <point x="150" y="278"/>
      <point x="249" y="278" type="curve" smooth="yes"/>
      <point x="348" y="278"/>
      <point x="410" y="352"/>
      <point x="410" y="482" type="curve" smooth="yes"/>
      <point x="410" y="607"/>
      <point x="349" y="680"/>
      <point x="251" y="680" type="curve" smooth="yes"/>
    </contour>
    <contour>
      <point x="348" y="678"/>
      <point x="407" y="605"/>
      <point x="407" y="482" type="curve" smooth="yes"/>
      <point x="407" y="353"/>
      <point x="347" y="280"/>
      <point x="249" y="280" type="curve" smooth="yes"/>
      <point x="151" y="280"/>
      <point x="92" y="355"/>
      <point x="92" y="479" type="curve" smooth="yes"/>
      <point x="92" y="607"/>
      <point x="155" y="678"/>
      <point x="251" y="678" type="curve" smooth="yes"/>
    </contour>
    <component base="minus" xOffset="11" yOffset="-330"/>
  </outline>
</glyph>
<glyph name="questiondown" format="1">
  <advance width="448"/>
  <unicode hex="00BF"/>
  <outline>
    <contour>
      <point x="281" y="-192"/>
      <point x="333" y="-165"/>
      <point x="378" y="-112" type="curve"/>
      <point x="376" y="-110" type="line"/>
      <point x="332" y="-163"/>
      <point x="281" y="-190"/>
      <point x="213" y="-190" type="curve"/>
      <point x="131" y="-190"/>
      <point x="72" y="-136"/>
      <point x="72" y="-68" type="curve"/>
      <point x="72" y="76"/>
      <point x="257" y="54"/>
      <point x="257" y="217" type="curve"/>
      <point x="257" y="255" type="line"/>
      <point x="255" y="255" type="line"/>
      <point x="255" y="217" type="line"/>
      <point x="255" y="56"/>
      <point x="70" y="76"/>
      <point x="70" y="-68" type="curve"/>
      <point x="70" y="-137"/>
      <point x="131" y="-192"/>
      <point x="213" y="-192" type="curve"/>
    </contour>
    <contour>
      <point x="252" y="439"/>
      <point x="249" y="436"/>
      <point x="249" y="432" type="curve" smooth="yes"/>
      <point x="249" y="428"/>
      <point x="252" y="425"/>
      <point x="256" y="425" type="curve" smooth="yes"/>
      <point x="260" y="425"/>
      <point x="263" y="428"/>
      <point x="263" y="432" type="curve" smooth="yes"/>
      <point x="263" y="436"/>
      <point x="260" y="439"/>
      <point x="256" y="439" type="curve" smooth="yes"/>
    </contour>
  </outline>
</glyph>
<glyph name="Eth" format="1">
  <advance width="607"/>
  <unicode hex="00D0"/>
  <outline>
    <contour>
      <point x="124" y="354" type="line"/>
      <point x="30" y="354" type="line"/>
      <point x="30" y="352" type="line"/>
      <point x="322" y="352" type="line"/>
      <point x="322" y="354" type="line"/>
    </contour>
    <component base="D" xOffset="-6"/>
  </outline>
</glyph>
<glyph name="dcroat" format="1">
  <advance width="577"/>
  <unicode hex="0111"/>
  <outline>
    <contour>
      <point x="265" y="640" type="line"/>
      <point x="265" y="638" type="line"/>
      <point x="447" y="638" type="line"/>
      <point x="522" y="638" type="line"/>
      <point x="522" y="640" type="line"/>
    </contour>
    <component base="d"/>
  </outline>
</glyph>
<glyph name="hbar" format="1">
  <advance width="585"/>
  <unicode hex="0127"/>
  <outline>
    <contour>
      <point x="55" y="640" type="line"/>
      <point x="55" y="638" type="line"/>
      <point x="130" y="638" type="line"/>
      <point x="323" y="638" type="line"/>
      <point x="323" y="640" type="line"/>
    </contour>
    <component base="h" xOffset="5"/>
  </outline>
</glyph>
<glyph name="dotlessi" format="1">
  <advance width="252"/>
  <unicode hex="0131"/>
  <outline>
    <contour>
      <point x="125" y="517" type="line"/>
      <point x="125" y="0" type="line"/>
      <point x="127" y="0" type="line"/>
      <point x="127" y="517" type="line"/>
    </contour>
    <contour>
      <point x="137" y="0" type="move" name="ogonek"/>
    </contour>
    <contour>
      <point x="126" y="517" type="move" name="top"/>
    </contour>
  </outline>
</glyph>
<glyph name="kgreenlandic" format="1">
  <advance width="446"/>
  <unicode hex="0138"/>
  <outline>
    <contour>
      <point x="391" y="517" type="line"/>
      <point x="131" y="273" type="line"/>
      <point x="418" y="0" type="line"/>
      <point x="421" y="0" type="line"/>
      <point x="134" y="273" type="line"/>
      <point x="394" y="517" type="line"/>
    </contour>
    <contour>
      <point x="125" y="517" type="line"/>
      <point x="125" y="0" type="line"/>
      <point x="127" y="0" type="line"/>
      <point x="127" y="517" type="line"/>
    </contour>
  </outline>
</glyph>
<glyph name="Lslash" format="1">
  <advance width="447"/>
  <unicode hex="0141"/>
  <outline>
    <contour>
      <point x="132" y="327" type="line"/>
      <point x="52" y="278" type="line"/>
      <point x="53" y="276" type="line"/>
      <point x="342" y="454" type="line"/>
      <point x="341" y="456" type="line"/>
    </contour>
    <component base="L" xOffset="2"/>
  </outline>
</glyph>
<glyph name="lslash" format="1">
  <advance width="275"/>
  <unicode hex="0142"/>
  <outline>
    <contour>
      <point x="52" y="329" type="line"/>
      <point x="53" y="327" type="line"/>
      <point x="235" y="442" type="line"/>
      <point x="234" y="444" type="line"/>
    </contour>
    <component base="l" xOffset="3"/>
  </outline>
</glyph>
<glyph name="Eng" format="1">
  <advance width="654"/>
  <unicode hex="014A"/>
  <outline>
    <contour>
      <point x="522" y="680" type="line"/>
      <point x="522" y="136" type="line"/>
      <point x="522" y="95"/>
      <point x="522" y="44"/>
      <point x="522" y="3" type="curve"/>
      <point x="521" y="3" type="line"/>
      <point x="134" y="680" type="line"/>
      <point x="130" y="680" type="line"/>
      <point x="130" y="0" type="line"/>
      <point x="132" y="0" type="line"/>
      <point x="132" y="575" type="line"/>
      <point x="132" y="622"/>
      <point x="132" y="654"/>
      <point x="132" y="677" type="curve"/>
      <point x="133" y="677" type="line"/>
      <point x="520" y="0" type="line"/>
      <point x="523" y="0" type="line"/>
      <point x="524" y="1" type="line"/>
      <point x="524" y="680" type="line"/>
    </contour>
    <contour>
      <point x="522" y="1" type="line"/>
      <point x="522" y="-117"/>
      <point x="493" y="-153"/>
      <point x="425" y="-189" type="curve"/>
      <point x="426" y="-191" type="line"/>
      <point x="495" y="-154"/>
      <point x="524" y="-118"/>
      <point x="524" y="1" type="curve"/>
    </contour>
  </outline>
</glyph>
<glyph name="oe" format="1">
  <advance width="925"/>
  <unicode hex="0153"/>
  <outline>
    <contour>
      <point x="160" y="527"/>
      <point x="80" y="431"/>
      <point x="80" y="258" type="curve" smooth="yes"/>
      <point x="80" y="91"/>
      <point x="155" y="-9"/>
      <point x="279" y="-9" type="curve" smooth="yes"/>
      <point x="402" y="-9"/>
      <point x="479" y="89"/>
      <point x="479" y="262" type="curve" smooth="yes"/>
      <point x="479" y="429"/>
      <point x="403" y="527"/>
      <point x="281" y="527" type="curve" smooth="yes"/>
    </contour>
    <contour>
      <point x="402" y="525"/>
      <point x="477" y="427"/>
      <point x="477" y="262" type="curve" smooth="yes"/>
      <point x="477" y="91"/>
      <point x="401" y="-7"/>
      <point x="279" y="-7" type="curve" smooth="yes"/>
      <point x="156" y="-7"/>
      <point x="82" y="93"/>
      <point x="82" y="258" type="curve" smooth="yes"/>
      <point x="82" y="429"/>
      <point x="161" y="525"/>
      <point x="281" y="525" type="curve" smooth="yes"/>
    </contour>
    <contour>
      <point x="553" y="527"/>
      <point x="477" y="426"/>
      <point x="477" y="253" type="curve" smooth="yes"/>
      <point x="477" y="85"/>
      <point x="554" y="-9"/>
      <point x="673" y="-9" type="curve" smooth="yes"/>
      <point x="740" y="-9"/>
      <point x="782" y="13"/>
      <point x="827" y="50" type="curve"/>
      <point x="826" y="52" type="line"/>
      <point x="781" y="14"/>
      <point x="738" y="-7"/>
      <point x="673" y="-7" type="curve" smooth="yes"/>
      <point x="556" y="-7"/>
      <point x="479" y="86"/>
      <point x="479" y="253" type="curve"/>
      <point x="479" y="424"/>
      <point x="554" y="525"/>
      <point x="673" y="525" type="curve" smooth="yes"/>
      <point x="795" y="525"/>
      <point x="848" y="422"/>
      <point x="848" y="288" type="curve" smooth="yes"/>
      <point x="848" y="275"/>
      <point x="848" y="267"/>
      <point x="847" y="254" type="curve"/>
      <point x="478" y="254" type="line"/>
      <point x="478" y="252" type="line"/>
      <point x="849" y="252" type="line"/>
      <point x="850" y="266"/>
      <point x="850" y="274"/>
      <point x="850" y="288" type="curve" smooth="yes"/>
      <point x="850" y="424"/>
      <point x="796" y="527"/>
      <point x="673" y="527" type="curve" smooth="yes"/>
    </contour>
    <contour>
      <point x="477" y="517" type="move" name="top"/>
    </contour>
  </outline>
</glyph>
<glyph name="Tbar" format="1">
  <advance width="455"/>
  <unicode hex="0166"/>
  <outline>
    <contour>
      <point x="113" y="376" type="line"/>
      <point x="113" y="374" type="line"/>
      <point x="236" y="374" type="line"/>
      <point x="361" y="374" type="line"/>
      <point x="361" y="376" type="line"/>
    </contour>
    <component base="T"/>
  </outline>
</glyph>
<glyph name="tbar" format="1">
  <advance width="322"/>
  <unicode hex="0167"/>
  <outline>
    <contour>
      <point x="117" y="335" type="line"/>
      <point x="30" y="335" type="line"/>
      <point x="30" y="333" type="line"/>
      <point x="265" y="333" type="line"/>
      <point x="265" y="335" type="line"/>
    </contour>
    <component base="t"/>
  </outline>
</glyph>
<glyph name="florin" format="1">
  <advance width="297"/>
  <unicode hex="0192"/>
  <outline>
    <contour>
      <point x="172" y="733"/>
      <point x="125" y="694"/>
      <point x="125" y="618" type="curve" smooth="yes"/>
      <point x="125" y="1" type="line"/>
      <point x="127" y="3" type="line"/>
      <point x="127" y="618" type="line" smooth="yes"/>
      <point x="127" y="693"/>
      <point x="173" y="731"/>
      <point x="236" y="731" type="curve" smooth="yes"/>
      <point x="280" y="731"/>
      <point x="316" y="717"/>
      <point x="346" y="701" type="curve"/>
      <point x="347" y="703" type="line"/>
      <point x="317" y="719"/>
      <point x="280" y="733"/>
      <point x="236" y="733" type="curve" smooth="yes"/>
    </contour>
    <contour>
      <point x="33" y="517" type="line"/>
      <point x="33" y="515" type="line"/>
      <point x="278" y="515" type="line"/>
      <point x="278" y="517" type="line"/>
    </contour>
    <contour>
      <point x="125" y="477" type="line"/>
      <point x="125" y="1" type="line" smooth="yes"/>
      <point x="125" y="-117"/>
      <point x="96" y="-153"/>
      <point x="28" y="-189" type="curve"/>
      <point x="29" y="-191" type="line"/>
      <point x="98" y="-154"/>
      <point x="127" y="-118"/>
      <point x="127" y="1" type="curve" smooth="yes"/>
      <point x="127" y="477" type="line"/>
    </contour>
  </outline>
</glyph>
<glyph name="uni0196" format="1">
  <advance width="323"/>
  <unicode hex="0196"/>
  <outline>
    <contour>
      <point x="120" y="680" type="line"/>
      <point x="120" y="181" type="line"/>
      <point x="122" y="181" type="line"/>
      <point x="122" y="680" type="line"/>
    </contour>
    <component base="hookHELPER.case" xOffset="326" yOffset="183" xScale="-1"/>
  </outline>
</glyph>
<glyph name="uni01C0" format="1">
  <advance width="262"/>
  <unicode hex="01C0"/>
  <outline>
    <contour>
      <point x="130" y="730" type="line"/>
      <point x="130" y="0" type="line"/>
      <point x="132" y="0" type="line"/>
      <point x="132" y="730" type="line"/>
    </contour>
  </outline>
</glyph>
<glyph name="dotlessj" format="1">
  <advance width="252"/>
  <unicode hex="0237"/>
  <outline>
    <contour>
      <point x="125" y="517" type="line"/>
      <point x="125" y="1" type="line" smooth="yes"/>
      <point x="125" y="-117"/>
      <point x="96" y="-153"/>
      <point x="28" y="-189" type="curve"/>
      <point x="29" y="-191" type="line"/>
      <point x="98" y="-154"/>
      <point x="127" y="-118"/>
      <point x="127" y="1" type="curve" smooth="yes"/>
      <point x="127" y="517" type="line"/>
    </contour>
    <contour>
      <point x="126" y="517" type="move" name="top"/>
    </contour>
  </outline>
</glyph>
<glyph name="uni024C" format="1">
  <advance width="555"/>
  <unicode hex="024C"/>
  <outline>
    <contour>
      <point x="200" y="336" type="line"/>
      <point x="124" y="336" type="line"/>
      <point x="30" y="336" type="line"/>
      <point x="30" y="334" type="line"/>
      <point x="206" y="334" type="line"/>
    </contour>
    <component base="R" xOffset="-6"/>
  </outline>
</glyph>
<glyph name="uni0274" format="1">
  <advance width="578"/>
  <unicode hex="0274"/>
  <outline>
    <contour>
      <point x="451" y="517" type="line"/>
      <point x="451" y="113" type="line"/>
      <point x="451" y="79"/>
      <point x="451" y="36"/>
      <point x="451" y="3" type="curve"/>
      <point x="128" y="517" type="line"/>
      <point x="125" y="517" type="line"/>
      <point x="125" y="0" type="line"/>
      <point x="127" y="0" type="line"/>
      <point x="127" y="430" type="line"/>
      <point x="127" y="469"/>
      <point x="127" y="496"/>
      <point x="127" y="515" type="curve"/>
      <point x="450" y="0" type="line"/>
      <point x="453" y="0" type="line"/>
      <point x="453" y="517" type="line"/>
    </contour>
  </outline>
</glyph>
<glyph name="uni0289" format="1">
  <advance width="593"/>
  <unicode hex="0289"/>
  <outline>
    <contour>
      <point x="124" y="380" type="line"/>
      <point x="538" y="380" type="line"/>
      <point x="538" y="382" type="line"/>
      <point x="454" y="382" type="line"/>
      <point x="40" y="382" type="line"/>
      <point x="40" y="380" type="line"/>
    </contour>
    <component base="u" xOffset="4"/>
  </outline>
</glyph>
<glyph name="uni02BC" format="1">
  <advance width="74"/>
  <unicode hex="02BC"/>
  <outline>
    <contour>
      <point x="33" y="733"/>
      <point x="31" y="731"/>
      <point x="31" y="728" type="curve" smooth="yes"/>
      <point x="31" y="725"/>
      <point x="33" y="723"/>
      <point x="37" y="723" type="curve"/>
      <point x="14" y="601" type="line"/>
      <point x="15" y="601" type="line"/>
      <point x="40" y="720" type="line" smooth="yes"/>
      <point x="41" y="725"/>
      <point x="41" y="726"/>
      <point x="41" y="728" type="curve"/>
      <point x="41" y="731"/>
      <point x="39" y="733"/>
      <point x="36" y="733" type="curve" smooth="yes"/>
    </contour>
    <contour>
      <point x="44" y="517" type="move" name="_topleft"/>
    </contour>
  </outline>
</glyph>
<glyph name="circumflex" format="1">
  <advance width="278"/>
  <unicode hex="02C6"/>
  <outline>
    <contour>
      <point x="140" y="743" type="line"/>
      <point x="246" y="660" type="line"/>
      <point x="248" y="661" type="line"/>
      <point x="141" y="745" type="line"/>
      <point x="139" y="745" type="line"/>
      <point x="30" y="661" type="line"/>
      <point x="32" y="660" type="line"/>
    </contour>
    <contour>
      <point x="136" y="517" type="move" name="_top"/>
    </contour>
  </outline>
</glyph>
<glyph name="caron" format="1">
  <advance width="278"/>
  <unicode hex="02C7"/>
  <outline>
    <contour>
      <point x="138" y="650" type="line"/>
      <point x="32" y="733" type="line"/>
      <point x="30" y="732" type="line"/>
      <point x="137" y="648" type="line"/>
      <point x="139" y="648" type="line"/>
      <point x="248" y="732" type="line"/>
      <point x="246" y="733" type="line"/>
    </contour>
    <contour>
      <point x="136" y="517" type="move" name="_top"/>
    </contour>
  </outline>
</glyph>
<glyph name="breve" format="1">
  <advance width="252"/>
  <unicode hex="02D8"/>
  <outline>
    <contour>
      <point x="174" y="668"/>
      <point x="207" y="693"/>
      <point x="220" y="737" type="curve"/>
      <point x="222" y="736" type="line"/>
      <point x="211" y="698"/>
      <point x="181" y="666"/>
      <point x="126" y="666" type="curve"/>
      <point x="71" y="666"/>
      <point x="41" y="698"/>
      <point x="30" y="736" type="curve"/>
      <point x="32" y="737" type="line"/>
      <point x="45" y="693"/>
      <point x="78" y="668"/>
      <point x="126" y="668" type="curve"/>
    </contour>
    <contour>
      <point x="126" y="517" type="move" name="_top"/>
    </contour>
  </outline>
</glyph>
<glyph name="dotaccent" format="1">
  <advance width="72"/>
  <unicode hex="02D9"/>
  <outline>
    <contour>
      <point x="32" y="706"/>
      <point x="30" y="703"/>
      <point x="30" y="700" type="curve" smooth="yes"/>
      <point x="30" y="697"/>
      <point x="32" y="694"/>
      <point x="36" y="694" type="curve" smooth="yes"/>
      <point x="40" y="694"/>
      <point x="42" y="697"/>
      <point x="42" y="700" type="curve" smooth="yes"/>
      <point x="42" y="703"/>
      <point x="40" y="706"/>
      <point x="36" y="706" type="curve" smooth="yes"/>
    </contour>
    <contour>
      <point x="36" y="700" type="move" name="_center"/>
    </contour>
    <contour>
      <point x="36" y="517" type="move" name="_top"/>
    </contour>
  </outline>
</glyph>
<glyph name="tilde" format="1">
  <advance width="303"/>
  <unicode hex="02DC"/>
  <outline>
    <contour>
      <point x="235" y="688"/>
      <point x="251" y="699"/>
      <point x="271" y="725" type="curve"/>
      <point x="273" y="724" type="line"/>
      <point x="252" y="697"/>
      <point x="236" y="686"/>
      <point x="209" y="686" type="curve"/>
      <point x="166" y="686"/>
      <point x="129" y="730"/>
      <point x="96" y="730" type="curve" smooth="yes"/>
      <point x="69" y="730"/>
      <point x="54" y="719"/>
      <point x="32" y="695" type="curve"/>
      <point x="30" y="696" type="line"/>
      <point x="53" y="721"/>
      <point x="68" y="732"/>
      <point x="96" y="732" type="curve" smooth="yes"/>
      <point x="131" y="732"/>
      <point x="166" y="688"/>
      <point x="209" y="688" type="curve"/>
    </contour>
    <contour>
      <point x="149" y="517" type="move" name="_top"/>
    </contour>
  </outline>
</glyph>
<glyph name="gravecomb" format="1">
  <advance width="227"/>
  <unicode hex="0300"/>
  <outline>
    <contour>
      <point x="39" y="714" type="line"/>
      <point x="205" y="645" type="line"/>
      <point x="206" y="647" type="line"/>
      <point x="40" y="716" type="line"/>
    </contour>
    <contour>
      <point x="116" y="554" type="move" name="_top"/>
    </contour>
  </outline>
</glyph>
<glyph name="uni0304" format="1">
  <advance width="250"/>
  <unicode hex="0304"/>
  <outline>
    <component base="macron" xOffset="9"/>
    <contour>
      <point x="134" y="554" type="move" name="_top"/>
    </contour>
  </outline>
</glyph>
<glyph name="uni0307" format="1">
  <advance width="72"/>
  <unicode hex="0307"/>
  <outline>
    <component base="dotaccent" xOffset="9"/>
    <contour>
      <point x="45" y="554" type="move" name="_top"/>
    </contour>
  </outline>
</glyph>
<glyph name="uni030C" format="1">
  <advance width="278"/>
  <unicode hex="030C"/>
  <outline>
    <contour>
      <point x="147" y="641" type="line"/>
      <point x="41" y="719" type="line"/>
      <point x="39" y="718" type="line"/>
      <point x="146" y="639" type="line"/>
      <point x="148" y="639" type="line"/>
      <point x="257" y="718" type="line"/>
      <point x="255" y="719" type="line"/>
    </contour>
    <contour>
      <point x="145" y="554" type="move" name="_top"/>
    </contour>
  </outline>
</glyph>
<glyph name="uni0326" format="1">
  <advance width="74"/>
  <unicode hex="0326"/>
  <outline>
    <contour>
      <point x="43" y="-107"/>
      <point x="41" y="-109"/>
      <point x="41" y="-112" type="curve" smooth="yes"/>
      <point x="41" y="-115"/>
      <point x="43" y="-117"/>
      <point x="47" y="-117" type="curve"/>
      <point x="24" y="-239" type="line"/>
      <point x="25" y="-239" type="line"/>
      <point x="50" y="-120" type="line" smooth="yes"/>
      <point x="51" y="-115"/>
      <point x="51" y="-114"/>
      <point x="51" y="-112" type="curve"/>
      <point x="51" y="-109"/>
      <point x="49" y="-107"/>
      <point x="46" y="-107" type="curve" smooth="yes"/>
    </contour>
    <contour>
      <point x="37" y="0" type="move" name="_bottom"/>
    </contour>
  </outline>
</glyph>
<glyph name="uni032D" format="1">
  <advance width="278"/>
  <unicode hex="032D"/>
  <outline>
    <component base="circumflex" yOffset="-830"/>
    <contour>
      <point x="139" y="0" type="move" name="_bottom"/>
    </contour>
    <contour>
      <point x="141" y="-180" type="move" name="bottom"/>
    </contour>
  </outline>
</glyph>
<glyph name="dieresistonos" format="1">
  <advance width="221"/>
  <unicode hex="0385"/>
  <outline>
    <contour>
      <point x="110" y="696" type="line"/>
      <point x="112" y="696" type="line"/>
      <point x="142" y="804" type="line"/>
      <point x="140" y="804" type="line"/>
    </contour>
    <contour>
      <point x="32" y="661"/>
      <point x="30" y="658"/>
      <point x="30" y="655" type="curve" smooth="yes"/>
      <point x="30" y="652"/>
      <point x="32" y="649"/>
      <point x="36" y="649" type="curve" smooth="yes"/>
      <point x="40" y="649"/>
      <point x="42" y="652"/>
      <point x="42" y="655" type="curve" smooth="yes"/>
      <point x="42" y="658"/>
      <point x="40" y="661"/>
      <point x="36" y="661" type="curve" smooth="yes"/>
    </contour>
    <contour>
      <point x="181" y="661"/>
      <point x="179" y="658"/>
      <point x="179" y="655" type="curve" smooth="yes"/>
      <point x="179" y="652"/>
      <point x="181" y="649"/>
      <point x="185" y="649" type="curve" smooth="yes"/>
      <point x="189" y="649"/>
      <point x="191" y="652"/>
      <point x="191" y="655" type="curve" smooth="yes"/>
      <point x="191" y="658"/>
      <point x="189" y="661"/>
      <point x="185" y="661" type="curve" smooth="yes"/>
    </contour>
    <contour>
      <point x="111" y="517" type="move" name="_top"/>
    </contour>
  </outline>
</glyph>
<glyph name="Lambda" format="1">
  <advance width="556"/>
  <unicode hex="039B"/>
  <outline>
    <contour>
      <point x="276" y="680" type="line"/>
      <point x="35" y="0" type="line"/>
      <point x="37" y="0" type="line"/>
      <point x="277" y="678" type="line"/>
      <point x="519" y="0" type="line"/>
      <point x="521" y="0" type="line"/>
      <point x="278" y="680" type="line"/>
    </contour>
  </outline>
</glyph>
<glyph name="Omega" format="1">
  <advance width="687"/>
  <unicode hex="03A9"/>
  <outline>
    <contour>
      <point x="188" y="690"/>
      <point x="85" y="557"/>
      <point x="85" y="338" type="curve" smooth="yes"/>
      <point x="85" y="144"/>
      <point x="150" y="49"/>
      <point x="259" y="2" type="curve"/>
      <point x="113" y="2" type="line"/>
      <point x="113" y="0" type="line"/>
      <point x="261" y="0" type="line"/>
      <point x="261" y="3" type="line"/>
      <point x="155" y="48"/>
      <point x="87" y="147"/>
      <point x="87" y="338" type="curve" smooth="yes"/>
      <point x="87" y="555"/>
      <point x="189" y="688"/>
      <point x="343" y="688" type="curve" smooth="yes"/>
      <point x="503" y="688"/>
      <point x="600" y="561"/>
      <point x="600" y="340" type="curve" smooth="yes"/>
      <point x="600" y="152"/>
      <point x="537" y="51"/>
      <point x="425" y="3" type="curve"/>
      <point x="425" y="0" type="line"/>
      <point x="573" y="0" type="line"/>
      <point x="573" y="2" type="line"/>
      <point x="427" y="2" type="line"/>
      <point x="541" y="51"/>
      <point x="602" y="148"/>
      <point x="602" y="340" type="curve" smooth="yes"/>
      <point x="602" y="563"/>
      <point x="504" y="690"/>
      <point x="343" y="690" type="curve" smooth="yes"/>
    </contour>
    <contour>
      <point x="343" y="680" type="move" name="top"/>
    </contour>
  </outline>
</glyph>
<glyph name="alpha" format="1">
  <advance width="578"/>
  <unicode hex="03B1"/>
  <outline>
    <contour>
      <point x="151" y="527"/>
      <point x="85" y="419"/>
      <point x="85" y="259" type="curve" smooth="yes"/>
      <point x="85" y="82"/>
      <point x="146" y="-9"/>
      <point x="249" y="-9" type="curve" smooth="yes"/>
      <point x="349" y="-9"/>
      <point x="399" y="61"/>
      <point x="437" y="266" type="curve"/>
      <point x="470" y="60" type="line" smooth="yes"/>
      <point x="478" y="12"/>
      <point x="491" y="6"/>
      <point x="511" y="-2" type="curve"/>
      <point x="511" y="0" type="line"/>
      <point x="491" y="8"/>
      <point x="479" y="16"/>
      <point x="472" y="60" type="curve" smooth="yes"/>
      <point x="439" y="267" type="line"/>
      <point x="495" y="517" type="line"/>
      <point x="493" y="517" type="line"/>
      <point x="437" y="268" type="line"/>
      <point x="410" y="461"/>
      <point x="359" y="527"/>
      <point x="258" y="527" type="curve" smooth="yes"/>
    </contour>
    <contour>
      <point x="358" y="525"/>
      <point x="408" y="459"/>
      <point x="435" y="267" type="curve"/>
      <point x="397" y="62"/>
      <point x="348" y="-7"/>
      <point x="249" y="-7" type="curve" smooth="yes"/>
      <point x="147" y="-7"/>
      <point x="87" y="82"/>
      <point x="87" y="259" type="curve" smooth="yes"/>
      <point x="87" y="419"/>
      <point x="153" y="525"/>
      <point x="258" y="525" type="curve" smooth="yes"/>
    </contour>
    <contour>
      <point x="288" y="517" type="move" name="top"/>
    </contour>
  </outline>
</glyph>
<glyph name="beta" format="1">
  <advance width="567"/>
  <unicode hex="03B2"/>
  <outline>
    <contour>
      <point x="195" y="733"/>
      <point x="125" y="669"/>
      <point x="125" y="541" type="curve" smooth="yes"/>
      <point x="125" y="-191" type="line"/>
      <point x="127" y="-191" type="line"/>
      <point x="127" y="541" type="line" smooth="yes"/>
      <point x="127" y="668"/>
      <point x="196" y="731"/>
      <point x="297" y="731" type="curve" smooth="yes"/>
      <point x="375" y="731"/>
      <point x="457" y="688"/>
      <point x="458" y="569" type="curve" smooth="yes"/>
      <point x="458" y="465"/>
      <point x="390" y="400"/>
      <point x="285" y="400" type="curve" smooth="yes"/>
      <point x="217" y="400" type="line"/>
      <point x="217" y="398" type="line"/>
      <point x="284" y="398" type="line" smooth="yes"/>
      <point x="416" y="398"/>
      <point x="501" y="328"/>
      <point x="501" y="199" type="curve" smooth="yes"/>
      <point x="501" y="63"/>
      <point x="419" y="-7"/>
      <point x="319" y="-7" type="curve" smooth="yes"/>
      <point x="257" y="-7"/>
      <point x="185" y="9"/>
      <point x="127" y="93" type="curve"/>
      <point x="125" y="93" type="line"/>
      <point x="183" y="7"/>
      <point x="257" y="-9"/>
      <point x="319" y="-9" type="curve" smooth="yes"/>
      <point x="420" y="-9"/>
      <point x="503" y="62"/>
      <point x="503" y="199" type="curve" smooth="yes"/>
      <point x="503" y="325"/>
      <point x="422" y="395"/>
      <point x="302" y="399" type="curve"/>
      <point x="392" y="404"/>
      <point x="460" y="464"/>
      <point x="460" y="569" type="curve"/>
      <point x="459" y="689"/>
      <point x="376" y="733"/>
      <point x="297" y="733" type="curve" smooth="yes"/>
    </contour>
  </outline>
</glyph>
<glyph name="delta" format="1">
  <advance width="554"/>
  <unicode hex="03B4"/>
  <outline>
    <contour>
      <point x="132" y="553"/>
      <point x="166" y="523"/>
      <point x="269" y="483" type="curve" smooth="yes"/>
      <point x="420" y="425"/>
      <point x="472" y="370"/>
      <point x="472" y="227" type="curve" smooth="yes"/>
      <point x="472" y="64"/>
      <point x="396" y="-7"/>
      <point x="279" y="-7" type="curve" smooth="yes"/>
      <point x="157" y="-7"/>
      <point x="82" y="75"/>
      <point x="82" y="233" type="curve" smooth="yes"/>
      <point x="82" y="372"/>
      <point x="163" y="449"/>
      <point x="272" y="483" type="curve"/>
      <point x="270" y="484" type="line"/>
      <point x="160" y="450"/>
      <point x="80" y="372"/>
      <point x="80" y="233" type="curve" smooth="yes"/>
      <point x="80" y="75"/>
      <point x="155" y="-9"/>
      <point x="279" y="-9" type="curve" smooth="yes"/>
      <point x="398" y="-9"/>
      <point x="474" y="64"/>
      <point x="474" y="227" type="curve" smooth="yes"/>
      <point x="474" y="372"/>
      <point x="421" y="426"/>
      <point x="272" y="484" type="curve" smooth="yes"/>
      <point x="169" y="524"/>
      <point x="134" y="553"/>
      <point x="134" y="616" type="curve" smooth="yes"/>
      <point x="134" y="682"/>
      <point x="190" y="731"/>
      <point x="279" y="731" type="curve" smooth="yes"/>
      <point x="334" y="731"/>
      <point x="376" y="717"/>
      <point x="417" y="687" type="curve"/>
      <point x="419" y="688" type="line"/>
      <point x="376" y="719"/>
      <point x="334" y="733"/>
      <point x="279" y="733" type="curve" smooth="yes"/>
      <point x="190" y="733"/>
      <point x="132" y="682"/>
      <point x="132" y="616" type="curve" smooth="yes"/>
    </contour>
  </outline>
</glyph>
<glyph name="epsilon" format="1">
  <advance width="447"/>
  <unicode hex="03B5"/>
  <outline>
    <contour>
      <point x="167" y="527"/>
      <point x="101" y="477"/>
      <point x="101" y="397" type="curve"/>
      <point x="101" y="328"/>
      <point x="148" y="279"/>
      <point x="233" y="273" type="curve"/>
      <point x="140" y="269"/>
      <point x="80" y="222"/>
      <point x="80" y="136" type="curve"/>
      <point x="80" y="46"/>
      <point x="149" y="-9"/>
      <point x="246" y="-9" type="curve"/>
      <point x="324" y="-9"/>
      <point x="369" y="13"/>
      <point x="407" y="49" type="curve"/>
      <point x="406" y="51" type="line"/>
      <point x="370" y="16"/>
      <point x="324" y="-7"/>
      <point x="246" y="-7" type="curve"/>
      <point x="149" y="-7"/>
      <point x="82" y="48"/>
      <point x="82" y="136" type="curve"/>
      <point x="82" y="220"/>
      <point x="141" y="272"/>
      <point x="250" y="272" type="curve" smooth="yes"/>
      <point x="308" y="272" type="line"/>
      <point x="308" y="274" type="line"/>
      <point x="252" y="274" type="line" smooth="yes"/>
      <point x="150" y="274"/>
      <point x="103" y="330"/>
      <point x="103" y="397" type="curve"/>
      <point x="103" y="475"/>
      <point x="167" y="525"/>
      <point x="257" y="525" type="curve"/>
      <point x="320" y="525"/>
      <point x="364" y="507"/>
      <point x="398" y="481" type="curve"/>
      <point x="400" y="482" type="line"/>
      <point x="368" y="507"/>
      <point x="322" y="527"/>
      <point x="257" y="527" type="curve"/>
    </contour>
    <contour>
      <point x="256" y="517" type="move" name="top"/>
    </contour>
  </outline>
</glyph>
<glyph name="zeta" format="1">
  <advance width="353"/>
  <unicode hex="03B6"/>
  <outline>
    <contour>
      <point x="50" y="727" type="line"/>
      <point x="50" y="725" type="line"/>
      <point x="260" y="726" type="line" smooth="yes"/>
      <point x="308" y="726"/>
      <point x="329" y="726"/>
      <point x="359" y="727" type="curve"/>
      <point x="165" y="571"/>
      <point x="60" y="417"/>
      <point x="60" y="254" type="curve" smooth="yes"/>
      <point x="60" y="125"/>
      <point x="122" y="83"/>
      <point x="218" y="49" type="curve" smooth="yes"/>
      <point x="329" y="9"/>
      <point x="356" y="-14"/>
      <point x="356" y="-66" type="curve" smooth="yes"/>
      <point x="356" y="-120"/>
      <point x="318" y="-155"/>
      <point x="255" y="-188" type="curve"/>
      <point x="256" y="-190" type="line"/>
      <point x="320" y="-156"/>
      <point x="358" y="-120"/>
      <point x="358" y="-66" type="curve" smooth="yes"/>
      <point x="358" y="-13"/>
      <point x="329" y="12"/>
      <point x="218" y="51" type="curve" smooth="yes"/>
      <point x="122" y="85"/>
      <point x="62" y="128"/>
      <point x="62" y="254" type="curve" smooth="yes"/>
      <point x="62" y="416"/>
      <point x="169" y="571"/>
      <point x="362" y="727" type="curve"/>
      <point x="362" y="728" type="line"/>
    </contour>
  </outline>
</glyph>
<glyph name="eta" format="1">
  <advance width="579"/>
  <unicode hex="03B7"/>
  <outline>
    <contour>
      <point x="126" y="390" type="line"/>
      <point x="126" y="435"/>
      <point x="120" y="480"/>
      <point x="107" y="517" type="curve"/>
      <point x="105" y="517" type="line"/>
      <point x="118" y="480"/>
      <point x="124" y="434"/>
      <point x="124" y="385" type="curve" smooth="yes"/>
      <point x="124" y="0" type="line"/>
      <point x="126" y="0" type="line"/>
      <point x="126" y="388" type="line"/>
    </contour>
    <contour>
      <point x="237" y="527"/>
      <point x="173" y="475"/>
      <point x="125" y="389" type="curve"/>
      <point x="126" y="387" type="line"/>
      <point x="174" y="473"/>
      <point x="238" y="525"/>
      <point x="325" y="525" type="curve" smooth="yes"/>
      <point x="419" y="525"/>
      <point x="457" y="466"/>
      <point x="457" y="368" type="curve" smooth="yes"/>
      <point x="457" y="-190" type="line"/>
      <point x="459" y="-190" type="line"/>
      <point x="459" y="368" type="line" smooth="yes"/>
      <point x="459" y="467"/>
      <point x="420" y="527"/>
      <point x="325" y="527" type="curve" smooth="yes"/>
    </contour>
    <contour>
      <point x="295" y="517" type="move" name="top"/>
    </contour>
  </outline>
</glyph>
<glyph name="theta" format="1">
  <advance width="549"/>
  <unicode hex="03B8"/>
  <outline>
    <contour>
      <point x="157" y="733"/>
      <point x="80" y="627"/>
      <point x="80" y="370" type="curve" smooth="yes"/>
      <point x="80" y="95"/>
      <point x="152" y="-9"/>
      <point x="274" y="-9" type="curve" smooth="yes"/>
      <point x="395" y="-9"/>
      <point x="469" y="93"/>
      <point x="469" y="370" type="curve" smooth="yes"/>
      <point x="469" y="625"/>
      <point x="393" y="733"/>
      <point x="276" y="733" type="curve" smooth="yes"/>
    </contour>
    <contour>
      <point x="392" y="731"/>
      <point x="467" y="623"/>
      <point x="467" y="370" type="curve"/>
      <point x="467" y="95"/>
      <point x="394" y="-7"/>
      <point x="274" y="-7" type="curve" smooth="yes"/>
      <point x="153" y="-7"/>
      <point x="82" y="97"/>
      <point x="82" y="370" type="curve"/>
      <point x="82" y="625"/>
      <point x="158" y="731"/>
      <point x="276" y="731" type="curve" smooth="yes"/>
    </contour>
    <contour>
      <point x="468" y="371" type="line"/>
      <point x="82" y="371" type="line"/>
      <point x="82" y="369" type="line"/>
      <point x="468" y="369" type="line"/>
    </contour>
  </outline>
</glyph>
<glyph name="kappa" format="1">
  <advance width="473"/>
  <unicode hex="03BA"/>
  <outline>
    <contour>
      <point x="132" y="261" type="line"/>
      <point x="393" y="26" type="line" smooth="yes"/>
      <point x="413" y="8"/>
      <point x="425" y="-2"/>
      <point x="447" y="-6" type="curve"/>
      <point x="448" y="-4" type="line"/>
      <point x="428" y="0"/>
      <point x="416" y="8"/>
      <point x="394" y="28" type="curve" smooth="yes"/>
      <point x="135" y="261" type="line"/>
      <point x="417" y="517" type="line"/>
      <point x="415" y="518" type="line"/>
    </contour>
    <contour>
      <point x="105" y="517" type="line"/>
      <point x="118" y="480"/>
      <point x="124" y="434"/>
      <point x="124" y="385" type="curve" smooth="yes"/>
      <point x="124" y="0" type="line"/>
      <point x="126" y="0" type="line"/>
      <point x="126" y="390" type="line"/>
      <point x="126" y="435"/>
      <point x="120" y="480"/>
      <point x="107" y="517" type="curve"/>
    </contour>
  </outline>
</glyph>
<glyph name="mu" format="1">
  <advance width="581"/>
  <unicode hex="03BC"/>
  <outline>
    <contour>
      <point x="448" y="154" type="line"/>
      <point x="412" y="61"/>
      <point x="347" y="-7"/>
      <point x="255" y="-7" type="curve" smooth="yes"/>
      <point x="182" y="-7"/>
      <point x="127" y="30"/>
      <point x="127" y="134" type="curve" smooth="yes"/>
      <point x="127" y="517" type="line"/>
      <point x="125" y="517" type="line"/>
      <point x="125" y="-190" type="line"/>
      <point x="127" y="-190" type="line"/>
      <point x="127" y="-57" type="line"/>
      <point x="127" y="-12"/>
      <point x="127" y="31"/>
      <point x="127" y="103" type="curve"/>
      <point x="135" y="27"/>
      <point x="184" y="-9"/>
      <point x="255" y="-9" type="curve" smooth="yes"/>
      <point x="347" y="-9"/>
      <point x="413" y="58"/>
      <point x="448" y="150" type="curve"/>
    </contour>
    <contour>
      <point x="447" y="150" type="line"/>
      <point x="448" y="94"/>
      <point x="459" y="46"/>
      <point x="474" y="1" type="curve"/>
      <point x="476" y="1" type="line"/>
      <point x="460" y="48"/>
      <point x="449" y="97"/>
      <point x="449" y="160" type="curve" smooth="yes"/>
      <point x="449" y="517" type="line"/>
      <point x="447" y="517" type="line"/>
      <point x="447" y="152" type="line"/>
    </contour>
  </outline>
</glyph>
<glyph name="nu" format="1">
  <advance width="429"/>
  <unicode hex="03BD"/>
  <outline>
    <contour>
      <point x="25" y="519" type="line"/>
      <point x="81" y="447"/>
      <point x="141" y="308"/>
      <point x="211" y="0" type="curve"/>
      <point x="213" y="0" type="line"/>
      <point x="399" y="517" type="line"/>
      <point x="397" y="518" type="line"/>
      <point x="212" y="2" type="line"/>
      <point x="143" y="310"/>
      <point x="83" y="448"/>
      <point x="27" y="520" type="curve"/>
    </contour>
  </outline>
</glyph>
<glyph name="omicron" format="1">
  <advance width="559"/>
  <unicode hex="03BF"/>
  <outline>
    <component base="o"/>
    <contour>
      <point x="275" y="517" type="move" name="top"/>
    </contour>
  </outline>
</glyph>
<glyph name="pi" format="1">
  <advance width="566"/>
  <unicode hex="03C0"/>
  <outline>
    <contour>
      <point x="421" y="516" type="line"/>
      <point x="421" y="97" type="line"/>
      <point x="421" y="39"/>
      <point x="432" y="16"/>
      <point x="477" y="-4" type="curve"/>
      <point x="478" y="-2" type="line"/>
      <point x="434" y="16"/>
      <point x="423" y="41"/>
      <point x="423" y="97" type="curve"/>
      <point x="423" y="516" type="line"/>
    </contour>
    <contour>
      <point x="148" y="516" type="line"/>
      <point x="148" y="0" type="line"/>
      <point x="150" y="0" type="line"/>
      <point x="150" y="516" type="line"/>
    </contour>
    <contour>
      <point x="64" y="513"/>
      <point x="77" y="515"/>
      <point x="109" y="515" type="curve" smooth="yes"/>
      <point x="505" y="515" type="line"/>
      <point x="505" y="517" type="line"/>
      <point x="109" y="517" type="line" smooth="yes"/>
      <point x="77" y="517"/>
      <point x="63" y="515"/>
      <point x="48" y="509" type="curve"/>
      <point x="49" y="507" type="line"/>
    </contour>
  </outline>
</glyph>
<glyph name="rho" format="1">
  <advance width="556"/>
  <unicode hex="03C1"/>
  <outline>
    <contour>
      <point x="175" y="527"/>
      <point x="115" y="433"/>
      <point x="115" y="299" type="curve" smooth="yes"/>
      <point x="115" y="-190" type="line"/>
      <point x="117" y="-190" type="line"/>
      <point x="117" y="109" type="line"/>
      <point x="117" y="111" type="line"/>
      <point x="117" y="299" type="line" smooth="yes"/>
      <point x="117" y="433"/>
      <point x="177" y="525"/>
      <point x="294" y="525" type="curve" smooth="yes"/>
      <point x="406" y="525"/>
      <point x="469" y="427"/>
      <point x="469" y="264" type="curve" smooth="yes"/>
      <point x="469" y="84"/>
      <point x="393" y="-7"/>
      <point x="292" y="-7" type="curve"/>
      <point x="213" y="-7"/>
      <point x="156" y="37"/>
      <point x="116" y="113" type="curve"/>
      <point x="116" y="110" type="line"/>
      <point x="154" y="36"/>
      <point x="212" y="-9"/>
      <point x="292" y="-9" type="curve"/>
      <point x="395" y="-9"/>
      <point x="471" y="84"/>
      <point x="471" y="264" type="curve" smooth="yes"/>
      <point x="471" y="427"/>
      <point x="408" y="527"/>
      <point x="294" y="527" type="curve" smooth="yes"/>
    </contour>
  </outline>
</glyph>
<glyph name="tau" format="1">
  <advance width="429"/>
  <unicode hex="03C4"/>
  <outline>
    <contour>
      <point x="205" y="516" type="line"/>
      <point x="205" y="97" type="line"/>
      <point x="205" y="39"/>
      <point x="216" y="16"/>
      <point x="261" y="-4" type="curve"/>
      <point x="262" y="-2" type="line"/>
      <point x="218" y="16"/>
      <point x="207" y="41"/>
      <point x="207" y="97" type="curve"/>
      <point x="207" y="516" type="line"/>
    </contour>
    <contour>
      <point x="27" y="513"/>
      <point x="40" y="515"/>
      <point x="72" y="515" type="curve" smooth="yes"/>
      <point x="407" y="515" type="line"/>
      <point x="407" y="517" type="line"/>
      <point x="72" y="517" type="line" smooth="yes"/>
      <point x="40" y="517"/>
      <point x="26" y="515"/>
      <point x="11" y="509" type="curve"/>
      <point x="12" y="507" type="line"/>
    </contour>
  </outline>
</glyph>
<glyph name="phi" format="1">
  <advance width="692"/>
  <unicode hex="03C6"/>
  <outline>
    <contour>
      <point x="388" y="527"/>
      <point x="340" y="482"/>
      <point x="340" y="357" type="curve"/>
      <point x="340" y="-190" type="line"/>
      <point x="342" y="-190" type="line"/>
      <point x="342" y="357" type="line"/>
      <point x="342" y="478"/>
      <point x="386" y="525"/>
      <point x="467" y="525" type="curve" smooth="yes"/>
      <point x="556" y="525"/>
      <point x="605" y="462"/>
      <point x="605" y="264" type="curve" smooth="yes"/>
      <point x="605" y="69"/>
      <point x="527" y="-3"/>
      <point x="341" y="-7" type="curve"/>
      <point x="341" y="-9" type="line"/>
      <point x="530" y="-5"/>
      <point x="607" y="69"/>
      <point x="607" y="264" type="curve" smooth="yes"/>
      <point x="607" y="463"/>
      <point x="557" y="527"/>
      <point x="467" y="527" type="curve" smooth="yes"/>
    </contour>
    <contour>
      <point x="150" y="517" type="line"/>
      <point x="122" y="448"/>
      <point x="95" y="364"/>
      <point x="95" y="243" type="curve" smooth="yes"/>
      <point x="95" y="67"/>
      <point x="170" y="-3"/>
      <point x="341" y="-9" type="curve"/>
      <point x="341" y="-7" type="line"/>
      <point x="172" y="-1"/>
      <point x="97" y="67"/>
      <point x="97" y="243" type="curve" smooth="yes"/>
      <point x="97" y="364"/>
      <point x="124" y="448"/>
      <point x="152" y="517" type="curve"/>
    </contour>
  </outline>
</glyph>
<glyph name="psi" format="1">
  <advance width="722"/>
  <unicode hex="03C8"/>
  <outline>
    <contour>
      <point x="594" y="517" type="line"/>
      <point x="612" y="428"/>
      <point x="620" y="364"/>
      <point x="620" y="276" type="curve"/>
      <point x="620" y="67"/>
      <point x="535" y="-2"/>
      <point x="362" y="-7" type="curve"/>
      <point x="362" y="-9" type="line"/>
      <point x="535" y="-4"/>
      <point x="622" y="65"/>
      <point x="622" y="276" type="curve"/>
      <point x="622" y="364"/>
      <point x="614" y="428"/>
      <point x="596" y="517" type="curve"/>
    </contour>
    <contour>
      <point x="111" y="517" type="line"/>
      <point x="110" y="197" type="line" smooth="yes"/>
      <point x="110" y="58"/>
      <point x="194" y="-9"/>
      <point x="362" y="-9" type="curve"/>
      <point x="362" y="-7" type="line"/>
      <point x="194" y="-7"/>
      <point x="112" y="60"/>
      <point x="112" y="197" type="curve" smooth="yes"/>
      <point x="113" y="517" type="line"/>
    </contour>
    <contour>
      <point x="361" y="517" type="line"/>
      <point x="361" y="-190" type="line"/>
      <point x="363" y="-190" type="line"/>
      <point x="363" y="517" type="line"/>
    </contour>
  </outline>
</glyph>
<glyph name="omega" format="1">
  <advance width="761"/>
  <unicode hex="03C9"/>
  <outline>
    <contour>
      <point x="611" y="517" type="line"/>
      <point x="641" y="443"/>
      <point x="664" y="342"/>
      <point x="664" y="234" type="curve"/>
      <point x="664" y="44"/>
      <point x="586" y="-7"/>
      <point x="511" y="-7" type="curve"/>
      <point x="435" y="-7"/>
      <point x="382" y="42"/>
      <point x="382" y="173" type="curve" smooth="yes"/>
      <point x="382" y="349" type="line"/>
      <point x="380" y="349" type="line"/>
      <point x="380" y="175" type="line" smooth="yes"/>
      <point x="380" y="42"/>
      <point x="320" y="-7"/>
      <point x="243" y="-7" type="curve"/>
      <point x="173" y="-7"/>
      <point x="97" y="48"/>
      <point x="97" y="234" type="curve"/>
      <point x="97" y="342"/>
      <point x="122" y="443"/>
      <point x="151" y="517" type="curve"/>
      <point x="149" y="517" type="line"/>
      <point x="120" y="443"/>
      <point x="95" y="342"/>
      <point x="95" y="234" type="curve"/>
      <point x="95" y="46"/>
      <point x="173" y="-9"/>
      <point x="243" y="-9" type="curve"/>
      <point x="322" y="-9"/>
      <point x="376" y="41"/>
      <point x="381" y="155" type="curve"/>
      <point x="384" y="41"/>
      <point x="435" y="-9"/>
      <point x="511" y="-9" type="curve"/>
      <point x="586" y="-9"/>
      <point x="666" y="42"/>
      <point x="666" y="234" type="curve"/>
      <point x="666" y="342"/>
      <point x="643" y="443"/>
      <point x="613" y="517" type="curve"/>
    </contour>
    <contour>
      <point x="384" y="517" type="move" name="top"/>
    </contour>
  </outline>
</glyph>
<glyph name="uni0409" format="1">
  <advance width="885"/>
  <unicode hex="0409"/>
  <outline>
    <contour>
      <point x="476" y="679" type="line"/>
      <point x="476" y="0" type="line"/>
      <point x="616" y="0" type="line" smooth="yes"/>
      <point x="746" y="0"/>
      <point x="825" y="70"/>
      <point x="825" y="204" type="curve" smooth="yes"/>
      <point x="825" y="338"/>
      <point x="741" y="393"/>
      <point x="608" y="393" type="curve" smooth="yes"/>
      <point x="477" y="393" type="line"/>
      <point x="477" y="391" type="line"/>
      <point x="608" y="391" type="line" smooth="yes"/>
      <point x="740" y="391"/>
      <point x="823" y="336"/>
      <point x="823" y="204" type="curve" smooth="yes"/>
      <point x="823" y="72"/>
      <point x="746" y="2"/>
      <point x="616" y="2" type="curve" smooth="yes"/>
      <point x="478" y="2" type="line"/>
      <point x="478" y="680" type="line"/>
    </contour>
    <contour>
      <point x="157" y="300" type="line" smooth="yes"/>
      <point x="134" y="57"/>
      <point x="128" y="29"/>
      <point x="61" y="1" type="curve"/>
      <point x="61" y="-1" type="line"/>
      <point x="130" y="28"/>
      <point x="136" y="55"/>
      <point x="159" y="299" type="curve" smooth="yes"/>
      <point x="195" y="678" type="line"/>
      <point x="193" y="680" type="line"/>
    </contour>
    <contour>
      <point x="193" y="680" type="line"/>
      <point x="194" y="678" type="line"/>
      <point x="476" y="678" type="line"/>
      <point x="478" y="680" type="line"/>
    </contour>
  </outline>
</glyph>
<glyph name="uni040B" format="1">
  <advance width="692"/>
  <unicode hex="040B"/>
  <outline>
    <contour>
      <point x="20" y="680" type="line"/>
      <point x="20" y="678" type="line"/>
      <point x="452" y="678" type="line"/>
      <point x="452" y="680" type="line"/>
    </contour>
    <component base="uni04BA" xOffset="105"/>
  </outline>
</glyph>
<glyph name="uni0416" format="1">
  <advance width="716"/>
  <unicode hex="0416"/>
  <outline>
    <contour>
      <point x="657" y="680" type="line"/>
      <point x="479" y="361" type="line"/>
      <point x="359" y="361" type="line"/>
      <point x="359" y="680" type="line"/>
      <point x="357" y="680" type="line"/>
      <point x="357" y="361" type="line"/>
      <point x="242" y="361" type="line"/>
      <point x="59" y="680" type="line"/>
      <point x="56" y="680" type="line"/>
      <point x="240" y="360" type="line"/>
      <point x="40" y="0" type="line"/>
      <point x="43" y="0" type="line"/>
      <point x="242" y="359" type="line"/>
      <point x="357" y="359" type="line"/>
      <point x="357" y="1" type="line"/>
      <point x="359" y="1" type="line"/>
      <point x="359" y="359" type="line"/>
      <point x="479" y="359" type="line"/>
      <point x="673" y="0" type="line"/>
      <point x="676" y="0" type="line"/>
      <point x="481" y="360" type="line"/>
      <point x="660" y="680" type="line"/>
    </contour>
    <contour>
      <point x="358" y="680" type="move" name="top"/>
    </contour>
    <contour>
      <point x="683" y="0" type="move" name="bottomright"/>
    </contour>
  </outline>
</glyph>
<glyph name="uni0417" format="1">
  <advance width="507"/>
  <unicode hex="0417"/>
  <outline>
    <contour>
      <point x="173" y="690"/>
      <point x="118" y="660"/>
      <point x="65" y="605" type="curve"/>
      <point x="67" y="603" type="line"/>
      <point x="120" y="658"/>
      <point x="173" y="688"/>
      <point x="253" y="688" type="curve"/>
      <point x="359" y="688"/>
      <point x="418" y="619"/>
      <point x="418" y="531" type="curve"/>
      <point x="418" y="428"/>
      <point x="342" y="373"/>
      <point x="245" y="373" type="curve" smooth="yes"/>
      <point x="191" y="373" type="line"/>
      <point x="191" y="371" type="line"/>
      <point x="248" y="371" type="line" smooth="yes"/>
      <point x="362" y="371"/>
      <point x="440" y="303"/>
      <point x="440" y="195" type="curve" smooth="yes"/>
      <point x="440" y="70"/>
      <point x="359" y="-7"/>
      <point x="242" y="-7" type="curve"/>
      <point x="154" y="-7"/>
      <point x="96" y="25"/>
      <point x="42" y="85" type="curve"/>
      <point x="40" y="84" type="line"/>
      <point x="95" y="23"/>
      <point x="153" y="-9"/>
      <point x="242" y="-9" type="curve"/>
      <point x="360" y="-9"/>
      <point x="442" y="68"/>
      <point x="442" y="195" type="curve" smooth="yes"/>
      <point x="442" y="305"/>
      <point x="364" y="368"/>
      <point x="263" y="372" type="curve"/>
      <point x="344" y="377"/>
      <point x="420" y="426"/>
      <point x="420" y="531" type="curve"/>
      <point x="420" y="621"/>
      <point x="360" y="690"/>
      <point x="253" y="690" type="curve"/>
    </contour>
    <contour>
      <point x="254" y="680" type="move" name="top"/>
    </contour>
    <contour>
      <point x="244" y="0" type="move" name="bottom"/>
    </contour>
  </outline>
</glyph>
<glyph name="uni0418" format="1">
  <advance width="653"/>
  <unicode hex="0418"/>
  <outline>
    <contour>
      <point x="520" y="680" type="line"/>
      <point x="132" y="2" type="line"/>
      <point x="132" y="13"/>
      <point x="132" y="25"/>
      <point x="132" y="36" type="curve"/>
      <point x="132" y="680" type="line"/>
      <point x="130" y="680" type="line"/>
      <point x="130" y="0" type="line"/>
      <point x="133" y="0" type="line"/>
      <point x="521" y="678" type="line"/>
      <point x="521" y="661"/>
      <point x="521" y="642"/>
      <point x="521" y="625" type="curve"/>
      <point x="521" y="0" type="line"/>
      <point x="523" y="0" type="line"/>
      <point x="523" y="680" type="line"/>
    </contour>
    <contour>
      <point x="334" y="680" type="move" name="top"/>
    </contour>
  </outline>
</glyph>
<glyph name="uni041A" format="1">
  <advance width="532"/>
  <unicode hex="041A"/>
  <outline>
    <contour>
      <point x="476" y="680" type="line"/>
      <point x="262" y="361" type="line"/>
      <point x="132" y="361" type="line"/>
      <point x="132" y="680" type="line"/>
      <point x="130" y="680" type="line"/>
      <point x="130" y="1" type="line"/>
      <point x="132" y="1" type="line"/>
      <point x="132" y="359" type="line"/>
      <point x="262" y="359" type="line"/>
      <point x="494" y="0" type="line"/>
      <point x="497" y="0" type="line"/>
      <point x="264" y="360" type="line"/>
      <point x="479" y="680" type="line"/>
    </contour>
    <contour>
      <point x="295" y="680" type="move" name="top"/>
    </contour>
    <contour>
      <point x="504" y="0" type="move" name="bottomright"/>
    </contour>
  </outline>
</glyph>
<glyph name="uni041B" format="1">
  <advance width="631"/>
  <unicode hex="041B"/>
  <outline>
    <contour>
      <point x="193" y="680" type="line"/>
      <point x="194" y="678" type="line"/>
      <point x="499" y="678" type="line"/>
      <point x="499" y="0" type="line"/>
      <point x="501" y="0" type="line"/>
      <point x="501" y="680" type="line"/>
    </contour>
    <contour>
      <point x="157" y="300" type="line" smooth="yes"/>
      <point x="134" y="57"/>
      <point x="128" y="29"/>
      <point x="61" y="1" type="curve"/>
      <point x="61" y="-1" type="line"/>
      <point x="130" y="28"/>
      <point x="136" y="55"/>
      <point x="159" y="299" type="curve" smooth="yes"/>
      <point x="195" y="678" type="line"/>
      <point x="193" y="680" type="line"/>
    </contour>
  </outline>
</glyph>
<glyph name="uni041F" format="1">
  <advance width="654"/>
  <unicode hex="041F"/>
  <outline>
    <contour>
      <point x="130" y="680" type="line"/>
      <point x="130" y="0" type="line"/>
      <point x="132" y="0" type="line"/>
      <point x="132" y="678" type="line"/>
      <point x="522" y="678" type="line"/>
      <point x="522" y="0" type="line"/>
      <point x="524" y="0" type="line"/>
      <point x="524" y="680" type="line"/>
    </contour>
    <contour>
      <point x="534" y="0" type="move" name="bottomright"/>
    </contour>
  </outline>
</glyph>
<glyph name="uni0423" format="1">
  <advance width="484"/>
  <unicode hex="0423"/>
  <outline>
    <contour>
      <point x="467" y="680" type="line"/>
      <point x="261" y="197" type="line"/>
      <point x="22" y="680" type="line"/>
      <point x="20" y="680" type="line"/>
      <point x="259" y="197" type="line"/>
      <point x="260" y="195" type="line"/>
      <point x="192" y="37"/>
      <point x="177" y="17"/>
      <point x="101" y="-5" type="curve"/>
      <point x="102" y="-7" type="line"/>
      <point x="181" y="16"/>
      <point x="195" y="39"/>
      <point x="262" y="195" type="curve" smooth="yes"/>
      <point x="469" y="680" type="line"/>
    </contour>
    <contour>
      <point x="252" y="680" type="move" name="top"/>
    </contour>
  </outline>
</glyph>
<glyph name="uni0424" format="1">
  <advance width="758"/>
  <unicode hex="0424"/>
  <outline>
    <contour>
      <point x="380" y="644" type="line"/>
      <point x="602" y="641"/>
      <point x="696" y="527"/>
      <point x="696" y="349" type="curve" smooth="yes"/>
      <point x="696" y="157"/>
      <point x="599" y="56"/>
      <point x="380" y="51" type="curve"/>
      <point x="379" y="49" type="line"/>
      <point x="601" y="54"/>
      <point x="698" y="157"/>
      <point x="698" y="349" type="curve" smooth="yes"/>
      <point x="698" y="527"/>
      <point x="604" y="643"/>
      <point x="379" y="646" type="curve"/>
    </contour>
    <contour>
      <point x="157" y="641"/>
      <point x="60" y="538"/>
      <point x="60" y="346" type="curve" smooth="yes"/>
      <point x="60" y="168"/>
      <point x="154" y="52"/>
      <point x="379" y="49" type="curve"/>
      <point x="378" y="51" type="line"/>
      <point x="156" y="54"/>
      <point x="62" y="168"/>
      <point x="62" y="346" type="curve" smooth="yes"/>
      <point x="62" y="538"/>
      <point x="160" y="639"/>
      <point x="378" y="644" type="curve"/>
      <point x="379" y="646" type="line"/>
    </contour>
    <contour>
      <point x="378" y="705" type="line"/>
      <point x="378" y="646" type="line"/>
      <point x="378" y="645" type="line"/>
      <point x="378" y="51" type="line"/>
      <point x="378" y="50" type="line"/>
      <point x="378" y="-16" type="line"/>
      <point x="380" y="-16" type="line"/>
      <point x="380" y="50" type="line"/>
      <point x="380" y="51" type="line"/>
      <point x="380" y="645" type="line"/>
      <point x="380" y="646" type="line"/>
      <point x="380" y="705" type="line"/>
    </contour>
  </outline>
</glyph>
<glyph name="uni0427" format="1">
  <advance width="566"/>
  <unicode hex="0427"/>
  <outline>
    <contour>
      <point x="60" y="680" type="line"/>
      <point x="60" y="412" type="line" smooth="yes"/>
      <point x="60" y="303"/>
      <point x="133" y="239"/>
      <point x="237" y="239" type="curve" smooth="yes"/>
      <point x="324" y="239"/>
      <point x="390" y="276"/>
      <point x="435" y="340" type="curve"/>
      <point x="435" y="342" type="line"/>
      <point x="389" y="278"/>
      <point x="324" y="241"/>
      <point x="237" y="241" type="curve" smooth="yes"/>
      <point x="135" y="241"/>
      <point x="62" y="304"/>
      <point x="62" y="412" type="curve" smooth="yes"/>
      <point x="62" y="680" type="line"/>
    </contour>
    <contour>
      <point x="434" y="680" type="line"/>
      <point x="434" y="0" type="line"/>
      <point x="436" y="0" type="line"/>
      <point x="436" y="680" type="line"/>
    </contour>
    <contour>
      <point x="248" y="680" type="move" name="top"/>
    </contour>
    <contour>
      <point x="446" y="0" type="move" name="bottomright"/>
    </contour>
    <contour>
      <point x="414" y="0" type="move" name="bottomleft"/>
    </contour>
  </outline>
</glyph>
<glyph name="uni0428" format="1">
  <advance width="888"/>
  <unicode hex="0428"/>
  <outline>
    <contour>
      <point x="756" y="682" type="line"/>
      <point x="756" y="2" type="line"/>
      <point x="445" y="2" type="line"/>
      <point x="445" y="682" type="line"/>
      <point x="443" y="682" type="line"/>
      <point x="443" y="2" type="line"/>
      <point x="132" y="2" type="line"/>
      <point x="132" y="682" type="line"/>
      <point x="130" y="682" type="line"/>
      <point x="130" y="0" type="line"/>
      <point x="758" y="0" type="line"/>
      <point x="758" y="682" type="line"/>
    </contour>
    <contour>
      <point x="768" y="0" type="move" name="bottomright"/>
    </contour>
  </outline>
</glyph>
<glyph name="uni042A" format="1">
  <advance width="577"/>
  <unicode hex="042A"/>
  <outline>
    <contour>
      <point x="160" y="680" type="line"/>
      <point x="0" y="680" type="line"/>
      <point x="0" y="678" type="line"/>
      <point x="158" y="678" type="line"/>
    </contour>
    <component base="uni042C" xOffset="28"/>
  </outline>
</glyph>
<glyph name="uni042B" format="1">
  <advance width="761"/>
  <unicode hex="042B"/>
  <outline>
    <contour>
      <point x="629" y="680" type="line"/>
      <point x="629" y="0" type="line"/>
      <point x="631" y="0" type="line"/>
      <point x="631" y="680" type="line"/>
    </contour>
    <contour>
      <point x="130" y="0" type="line"/>
      <point x="270" y="0" type="line" smooth="yes"/>
      <point x="399" y="0"/>
      <point x="479" y="70"/>
      <point x="479" y="210" type="curve" smooth="yes"/>
      <point x="479" y="335"/>
      <point x="402" y="399"/>
      <point x="266" y="399" type="curve" smooth="yes"/>
      <point x="131" y="399" type="line"/>
      <point x="131" y="397" type="line"/>
      <point x="266" y="397" type="line" smooth="yes"/>
      <point x="401" y="397"/>
      <point x="477" y="333"/>
      <point x="477" y="210" type="curve" smooth="yes"/>
      <point x="477" y="72"/>
      <point x="399" y="2"/>
      <point x="270" y="2" type="curve" smooth="yes"/>
      <point x="132" y="2" type="line"/>
      <point x="132" y="680" type="line"/>
      <point x="130" y="680" type="line"/>
    </contour>
    <contour>
      <point x="363" y="680" type="move" name="top"/>
    </contour>
  </outline>
</glyph>
<glyph name="uni0431" format="1">
  <advance width="546"/>
  <unicode hex="0431"/>
  <outline>
    <contour>
      <point x="370" y="701"/>
      <point x="325" y="680"/>
      <point x="254" y="652" type="curve" smooth="yes"/>
      <point x="112" y="596"/>
      <point x="80" y="493"/>
      <point x="80" y="286" type="curve" smooth="yes"/>
      <point x="80" y="89"/>
      <point x="155" y="-9"/>
      <point x="278" y="-9" type="curve" smooth="yes"/>
      <point x="394" y="-9"/>
      <point x="466" y="71"/>
      <point x="466" y="250" type="curve" smooth="yes"/>
      <point x="466" y="397"/>
      <point x="406" y="487"/>
      <point x="289" y="487" type="curve" smooth="yes"/>
      <point x="181" y="487"/>
      <point x="112" y="410"/>
      <point x="81" y="326" type="curve"/>
      <point x="81" y="322" type="line"/>
      <point x="114" y="410"/>
      <point x="183" y="485"/>
      <point x="289" y="485" type="curve" smooth="yes"/>
      <point x="405" y="485"/>
      <point x="464" y="395"/>
      <point x="464" y="250" type="curve" smooth="yes"/>
      <point x="464" y="73"/>
      <point x="393" y="-7"/>
      <point x="278" y="-7" type="curve" smooth="yes"/>
      <point x="151" y="-7"/>
      <point x="82" y="99"/>
      <point x="82" y="286" type="curve" smooth="yes"/>
      <point x="82" y="325" type="line"/>
      <point x="82" y="326" type="line"/>
      <point x="88" y="507"/>
      <point x="123" y="598"/>
      <point x="257" y="651" type="curve" smooth="yes"/>
      <point x="328" y="679"/>
      <point x="370" y="699"/>
      <point x="405" y="725" type="curve"/>
      <point x="404" y="727" type="line"/>
    </contour>
  </outline>
</glyph>
<glyph name="uni0432" format="1">
  <advance width="529"/>
  <unicode hex="0432"/>
  <outline>
    <contour>
      <point x="201" y="528"/>
      <point x="156" y="519"/>
      <point x="125" y="512" type="curve"/>
      <point x="125" y="0" type="line"/>
      <point x="261" y="0" type="line" smooth="yes"/>
      <point x="365" y="0"/>
      <point x="449" y="48"/>
      <point x="449" y="152" type="curve" smooth="yes"/>
      <point x="449" y="231"/>
      <point x="404" y="278"/>
      <point x="310" y="280" type="curve"/>
      <point x="375" y="283"/>
      <point x="419" y="326"/>
      <point x="419" y="396" type="curve" smooth="yes"/>
      <point x="419" y="465"/>
      <point x="382" y="528"/>
      <point x="264" y="528" type="curve" smooth="yes"/>
    </contour>
    <contour>
      <point x="382" y="526"/>
      <point x="417" y="463"/>
      <point x="417" y="396" type="curve" smooth="yes"/>
      <point x="417" y="327"/>
      <point x="374" y="281"/>
      <point x="298" y="281" type="curve" smooth="yes"/>
      <point x="126" y="281" type="line"/>
      <point x="126" y="279" type="line"/>
      <point x="300" y="279" type="line"/>
      <point x="403" y="279"/>
      <point x="447" y="230"/>
      <point x="447" y="152" type="curve" smooth="yes"/>
      <point x="447" y="50"/>
      <point x="365" y="2"/>
      <point x="261" y="2" type="curve" smooth="yes"/>
      <point x="127" y="2" type="line"/>
      <point x="127" y="510" type="line"/>
      <point x="158" y="518"/>
      <point x="202" y="526"/>
      <point x="264" y="526" type="curve" smooth="yes"/>
    </contour>
  </outline>
</glyph>
<glyph name="uni0436" format="1">
  <advance width="654"/>
  <unicode hex="0436"/>
  <outline>
    <contour>
      <point x="571" y="517" type="line"/>
      <point x="444" y="278" type="line"/>
      <point x="328" y="278" type="line"/>
      <point x="328" y="517" type="line"/>
      <point x="326" y="517" type="line"/>
      <point x="326" y="278" type="line"/>
      <point x="210" y="278" type="line"/>
      <point x="83" y="517" type="line"/>
      <point x="80" y="517" type="line"/>
      <point x="208" y="277" type="line"/>
      <point x="50" y="0" type="line"/>
      <point x="53" y="0" type="line"/>
      <point x="210" y="276" type="line"/>
      <point x="326" y="276" type="line"/>
      <point x="326" y="0" type="line"/>
      <point x="328" y="0" type="line"/>
      <point x="328" y="276" type="line"/>
      <point x="444" y="276" type="line"/>
      <point x="601" y="0" type="line"/>
      <point x="604" y="0" type="line"/>
      <point x="446" y="277" type="line"/>
      <point x="574" y="517" type="line"/>
    </contour>
    <contour>
      <point x="327" y="517" type="move" name="top"/>
    </contour>
    <contour>
      <point x="611" y="0" type="move" name="bottomright"/>
    </contour>
  </outline>
</glyph>
<glyph name="uni0438" format="1">
  <advance width="580"/>
  <unicode hex="0438"/>
  <outline>
    <contour>
      <point x="452" y="517" type="line"/>
      <point x="127" y="2" type="line"/>
      <point x="127" y="42"/>
      <point x="127" y="81"/>
      <point x="127" y="121" type="curve"/>
      <point x="127" y="517" type="line"/>
      <point x="125" y="517" type="line"/>
      <point x="125" y="0" type="line"/>
      <point x="128" y="0" type="line"/>
      <point x="453" y="515" type="line"/>
      <point x="453" y="475"/>
      <point x="453" y="434"/>
      <point x="453" y="394" type="curve"/>
      <point x="453" y="0" type="line"/>
      <point x="455" y="0" type="line"/>
      <point x="455" y="517" type="line"/>
    </contour>
    <contour>
      <point x="290" y="517" type="move" name="top"/>
    </contour>
  </outline>
</glyph>
<glyph name="uni043B" format="1">
  <advance width="555"/>
  <unicode hex="043B"/>
  <outline>
    <contour>
      <point x="157" y="515" type="line"/>
      <point x="428" y="515" type="line"/>
      <point x="428" y="0" type="line"/>
      <point x="430" y="0" type="line"/>
      <point x="430" y="517" type="line"/>
      <point x="156" y="517" type="line"/>
    </contour>
    <contour>
      <point x="156" y="517" type="line"/>
      <point x="139" y="285" type="line" smooth="yes"/>
      <point x="123" y="67"/>
      <point x="115" y="23"/>
      <point x="53" y="1" type="curve"/>
      <point x="53" y="-1" type="line"/>
      <point x="117" y="22"/>
      <point x="125" y="65"/>
      <point x="141" y="285" type="curve" smooth="yes"/>
      <point x="158" y="515" type="line"/>
    </contour>
  </outline>
</glyph>
<glyph name="uni043D" format="1">
  <advance width="578"/>
  <unicode hex="043D"/>
  <outline>
    <contour>
      <point x="453" y="0" type="line"/>
      <point x="453" y="517" type="line"/>
      <point x="451" y="517" type="line"/>
      <point x="451" y="273" type="line"/>
      <point x="127" y="273" type="line"/>
      <point x="127" y="517" type="line"/>
      <point x="125" y="517" type="line"/>
      <point x="125" y="0" type="line"/>
      <point x="127" y="0" type="line"/>
      <point x="127" y="271" type="line"/>
      <point x="451" y="271" type="line"/>
      <point x="451" y="0" type="line"/>
    </contour>
    <contour>
      <point x="463" y="0" type="move" name="bottomright"/>
    </contour>
  </outline>
</glyph>
<glyph name="uni043F" format="1">
  <advance width="573"/>
  <unicode hex="043F"/>
  <outline>
    <contour>
      <point x="448" y="0" type="line"/>
      <point x="448" y="517" type="line"/>
      <point x="125" y="517" type="line"/>
      <point x="125" y="0" type="line"/>
      <point x="127" y="0" type="line"/>
      <point x="127" y="515" type="line"/>
      <point x="446" y="515" type="line"/>
      <point x="446" y="0" type="line"/>
    </contour>
    <contour>
      <point x="458" y="0" type="move" name="bottomright"/>
    </contour>
  </outline>
</glyph>
<glyph name="uni0444" format="1">
  <advance width="778"/>
  <unicode hex="0444"/>
  <outline>
    <contour>
      <point x="140" y="527"/>
      <point x="85" y="428"/>
      <point x="85" y="264" type="curve" smooth="yes"/>
      <point x="85" y="101"/>
      <point x="139" y="-9"/>
      <point x="239" y="-9" type="curve" smooth="yes"/>
      <point x="305" y="-9"/>
      <point x="345" y="22"/>
      <point x="389" y="92" type="curve"/>
      <point x="389" y="95" type="line"/>
      <point x="345" y="25"/>
      <point x="305" y="-7"/>
      <point x="239" y="-7" type="curve" smooth="yes"/>
      <point x="141" y="-7"/>
      <point x="87" y="103"/>
      <point x="87" y="264" type="curve" smooth="yes"/>
      <point x="87" y="426"/>
      <point x="142" y="525"/>
      <point x="244" y="525" type="curve" smooth="yes"/>
      <point x="311" y="525"/>
      <point x="351" y="486"/>
      <point x="389" y="416" type="curve"/>
      <point x="389" y="419" type="line"/>
      <point x="352" y="489"/>
      <point x="310" y="527"/>
      <point x="244" y="527" type="curve" smooth="yes"/>
    </contour>
    <contour>
      <point x="388" y="730" type="line"/>
      <point x="388" y="419" type="line"/>
      <point x="388" y="418" type="line"/>
      <point x="388" y="93" type="line"/>
      <point x="388" y="92" type="line"/>
      <point x="388" y="-190" type="line"/>
      <point x="390" y="-190" type="line"/>
      <point x="390" y="92" type="line"/>
      <point x="390" y="93" type="line"/>
      <point x="390" y="419" type="line"/>
      <point x="390" y="420" type="line"/>
      <point x="390" y="730" type="line"/>
    </contour>
    <contour>
      <point x="473" y="527"/>
      <point x="425" y="482"/>
      <point x="389" y="419" type="curve"/>
      <point x="389" y="416" type="line"/>
      <point x="428" y="483"/>
      <point x="475" y="525"/>
      <point x="546" y="525" type="curve" smooth="yes"/>
      <point x="659" y="525"/>
      <point x="691" y="424"/>
      <point x="691" y="264" type="curve" smooth="yes"/>
      <point x="691" y="100"/>
      <point x="644" y="-7"/>
      <point x="545" y="-7" type="curve" smooth="yes"/>
      <point x="469" y="-7"/>
      <point x="432" y="31"/>
      <point x="389" y="95" type="curve"/>
      <point x="389" y="92" type="line"/>
      <point x="431" y="28"/>
      <point x="469" y="-9"/>
      <point x="545" y="-9" type="curve" smooth="yes"/>
      <point x="646" y="-9"/>
      <point x="693" y="98"/>
      <point x="693" y="264" type="curve" smooth="yes"/>
      <point x="693" y="426"/>
      <point x="660" y="527"/>
      <point x="546" y="527" type="curve" smooth="yes"/>
    </contour>
  </outline>
</glyph>
<glyph name="uni0448" format="1">
  <advance width="802"/>
  <unicode hex="0448"/>
  <outline>
    <contour>
      <point x="675" y="516" type="line"/>
      <point x="675" y="2" type="line"/>
      <point x="402" y="2" type="line"/>
      <point x="402" y="516" type="line"/>
      <point x="400" y="516" type="line"/>
      <point x="400" y="2" type="line"/>
      <point x="127" y="2" type="line"/>
      <point x="127" y="516" type="line"/>
      <point x="125" y="516" type="line"/>
      <point x="125" y="0" type="line"/>
      <point x="677" y="0" type="line"/>
      <point x="677" y="516" type="line"/>
    </contour>
    <contour>
      <point x="687" y="0" type="move" name="bottomright"/>
    </contour>
  </outline>
</glyph>
<glyph name="uni044A" format="1">
  <advance width="527"/>
  <unicode hex="044A"/>
  <outline>
    <contour>
      <point x="162" y="517" type="line"/>
      <point x="10" y="517" type="line"/>
      <point x="10" y="515" type="line"/>
      <point x="160" y="515" type="line"/>
    </contour>
    <component base="uni044C" xOffset="35"/>
  </outline>
</glyph>
<glyph name="uni044B" format="1">
  <advance width="684"/>
  <unicode hex="044B"/>
  <outline>
    <contour>
      <point x="557" y="517" type="line"/>
      <point x="557" y="0" type="line"/>
      <point x="559" y="0" type="line"/>
      <point x="559" y="517" type="line"/>
    </contour>
    <contour>
      <point x="126" y="326" type="line"/>
      <point x="247" y="326" type="line" smooth="yes"/>
      <point x="375" y="326"/>
      <point x="425" y="267"/>
      <point x="425" y="171" type="curve" smooth="yes"/>
      <point x="425" y="59"/>
      <point x="362" y="2"/>
      <point x="247" y="2" type="curve" smooth="yes"/>
      <point x="127" y="2" type="line"/>
      <point x="127" y="517" type="line"/>
      <point x="125" y="517" type="line"/>
      <point x="125" y="0" type="line"/>
      <point x="247" y="0" type="line" smooth="yes"/>
      <point x="362" y="0"/>
      <point x="427" y="57"/>
      <point x="427" y="171" type="curve" smooth="yes"/>
      <point x="427" y="269"/>
      <point x="376" y="328"/>
      <point x="247" y="328" type="curve" smooth="yes"/>
      <point x="126" y="328" type="line"/>
    </contour>
    <contour>
      <point x="342" y="517" type="move" name="top"/>
    </contour>
  </outline>
</glyph>
<glyph name="uni044D" format="1">
  <advance width="465"/>
  <unicode hex="044D"/>
  <outline>
    <contour>
      <point x="143" y="528"/>
      <point x="98" y="506"/>
      <point x="60" y="474" type="curve"/>
      <point x="61" y="472" type="line"/>
      <point x="98" y="504"/>
      <point x="143" y="526"/>
      <point x="202" y="525" type="curve" smooth="yes"/>
      <point x="318" y="523"/>
      <point x="383" y="442"/>
      <point x="383" y="269" type="curve"/>
      <point x="383" y="268" type="line"/>
      <point x="383" y="96"/>
      <point x="323" y="-9"/>
      <point x="200" y="-9" type="curve" smooth="yes"/>
      <point x="136" y="-9"/>
      <point x="89" y="19"/>
      <point x="56" y="51" type="curve"/>
      <point x="55" y="49" type="line"/>
      <point x="88" y="17"/>
      <point x="136" y="-11"/>
      <point x="200" y="-11" type="curve" smooth="yes"/>
      <point x="323" y="-11"/>
      <point x="385" y="92"/>
      <point x="385" y="269" type="curve" smooth="yes"/>
      <point x="385" y="444"/>
      <point x="319" y="525"/>
      <point x="202" y="527" type="curve" smooth="yes"/>
    </contour>
    <contour>
      <point x="122" y="270" type="line"/>
      <point x="122" y="268" type="line"/>
      <point x="384" y="268" type="line"/>
      <point x="384" y="270" type="line"/>
    </contour>
    <contour>
      <point x="211" y="517" type="move" name="top"/>
    </contour>
  </outline>
</glyph>
<glyph name="uni044F" format="1">
  <advance width="529"/>
  <unicode hex="044F"/>
  <outline>
    <contour>
      <point x="147" y="517"/>
      <point x="93" y="465"/>
      <point x="93" y="374" type="curve" smooth="yes"/>
      <point x="93" y="298"/>
      <point x="145" y="244"/>
      <point x="216" y="239" type="curve"/>
      <point x="217" y="239" type="line"/>
      <point x="403" y="239" type="line"/>
      <point x="403" y="241" type="line"/>
      <point x="223" y="241" type="line" smooth="yes"/>
      <point x="159" y="241"/>
      <point x="95" y="289"/>
      <point x="95" y="374" type="curve" smooth="yes"/>
      <point x="95" y="464"/>
      <point x="149" y="515"/>
      <point x="265" y="515" type="curve"/>
      <point x="402" y="515" type="line"/>
      <point x="402" y="0" type="line"/>
      <point x="404" y="0" type="line"/>
      <point x="404" y="517" type="line"/>
      <point x="265" y="517" type="line"/>
    </contour>
    <contour>
      <point x="79" y="0" type="line"/>
      <point x="81" y="0" type="line"/>
      <point x="218" y="240" type="line"/>
      <point x="216" y="240" type="line"/>
    </contour>
  </outline>
</glyph>
<glyph name="uni0452" format="1">
  <advance width="585"/>
  <unicode hex="0452"/>
  <outline>
    <contour>
      <point x="463" y="17" type="line"/>
      <point x="463" y="1" type="line" smooth="yes"/>
      <point x="463" y="-117"/>
      <point x="434" y="-153"/>
      <point x="366" y="-189" type="curve"/>
      <point x="367" y="-191" type="line"/>
      <point x="436" y="-154"/>
      <point x="465" y="-118"/>
      <point x="465" y="1" type="curve" smooth="yes"/>
      <point x="465" y="17" type="line"/>
    </contour>
    <contour>
      <point x="55" y="640" type="line"/>
      <point x="55" y="638" type="line"/>
      <point x="130" y="638" type="line"/>
      <point x="323" y="638" type="line"/>
      <point x="323" y="640" type="line"/>
    </contour>
    <contour>
      <point x="130" y="730" type="line"/>
      <point x="130" y="0" type="line"/>
      <point x="132" y="0" type="line"/>
      <point x="132" y="730" type="line"/>
    </contour>
    <contour>
      <point x="243" y="527"/>
      <point x="179" y="475"/>
      <point x="131" y="389" type="curve"/>
      <point x="132" y="387" type="line"/>
      <point x="180" y="473"/>
      <point x="244" y="525"/>
      <point x="331" y="525" type="curve" smooth="yes"/>
      <point x="424" y="525"/>
      <point x="463" y="464"/>
      <point x="463" y="368" type="curve" smooth="yes"/>
      <point x="463" y="0" type="line"/>
      <point x="465" y="0" type="line"/>
      <point x="465" y="368" type="line" smooth="yes"/>
      <point x="465" y="465"/>
      <point x="425" y="527"/>
      <point x="331" y="527" type="curve" smooth="yes"/>
    </contour>
  </outline>
</glyph>
<glyph name="uni0454" format="1">
  <advance width="474"/>
  <unicode hex="0454"/>
  <outline>
    <contour>
      <point x="162" y="527"/>
      <point x="80" y="426"/>
      <point x="80" y="269" type="curve" smooth="yes"/>
      <point x="80" y="87"/>
      <point x="160" y="-9"/>
      <point x="276" y="-9" type="curve" smooth="yes"/>
      <point x="340" y="-9"/>
      <point x="379" y="13"/>
      <point x="419" y="40" type="curve"/>
      <point x="418" y="42" type="line"/>
      <point x="379" y="15"/>
      <point x="339" y="-7"/>
      <point x="276" y="-7" type="curve" smooth="yes"/>
      <point x="161" y="-7"/>
      <point x="83" y="87"/>
      <point x="82" y="267" type="curve"/>
      <point x="82" y="268" type="line"/>
      <point x="82" y="426"/>
      <point x="164" y="525"/>
      <point x="285" y="525" type="curve" smooth="yes"/>
      <point x="336" y="525"/>
      <point x="373" y="510"/>
      <point x="412" y="477" type="curve"/>
      <point x="413" y="479" type="line"/>
      <point x="375" y="511"/>
      <point x="337" y="527"/>
      <point x="285" y="527" type="curve" smooth="yes"/>
    </contour>
    <contour>
      <point x="81" y="269" type="line"/>
      <point x="81" y="267" type="line"/>
      <point x="359" y="267" type="line"/>
      <point x="359" y="269" type="line"/>
    </contour>
  </outline>
</glyph>
<glyph name="uni0459" format="1">
  <advance width="765"/>
  <unicode hex="0459"/>
  <outline>
    <contour>
      <point x="408" y="516" type="line"/>
      <point x="408" y="0" type="line"/>
      <point x="530" y="0" type="line" smooth="yes"/>
      <point x="645" y="0"/>
      <point x="710" y="57"/>
      <point x="710" y="171" type="curve" smooth="yes"/>
      <point x="710" y="269"/>
      <point x="659" y="328"/>
      <point x="530" y="328" type="curve" smooth="yes"/>
      <point x="409" y="328" type="line"/>
      <point x="409" y="326" type="line"/>
      <point x="530" y="326" type="line" smooth="yes"/>
      <point x="658" y="326"/>
      <point x="708" y="267"/>
      <point x="708" y="171" type="curve" smooth="yes"/>
      <point x="708" y="59"/>
      <point x="645" y="2"/>
      <point x="530" y="2" type="curve" smooth="yes"/>
      <point x="410" y="2" type="line"/>
      <point x="410" y="517" type="line"/>
    </contour>
    <contour>
      <point x="156" y="517" type="line"/>
      <point x="157" y="515" type="line"/>
      <point x="408" y="515" type="line"/>
      <point x="410" y="517" type="line"/>
    </contour>
    <contour>
      <point x="156" y="517" type="line"/>
      <point x="139" y="285" type="line" smooth="yes"/>
      <point x="123" y="67"/>
      <point x="115" y="23"/>
      <point x="53" y="1" type="curve"/>
      <point x="53" y="-1" type="line"/>
      <point x="117" y="22"/>
      <point x="125" y="65"/>
      <point x="141" y="285" type="curve" smooth="yes"/>
      <point x="158" y="515" type="line"/>
    </contour>
  </outline>
</glyph>
<glyph name="uni045A" format="1">
  <advance width="798"/>
  <unicode hex="045A"/>
  <outline>
    <contour>
      <point x="441" y="517" type="line"/>
      <point x="441" y="0" type="line"/>
      <point x="563" y="0" type="line" smooth="yes"/>
      <point x="678" y="0"/>
      <point x="743" y="57"/>
      <point x="743" y="161" type="curve" smooth="yes"/>
      <point x="743" y="249"/>
      <point x="692" y="308"/>
      <point x="563" y="308" type="curve" smooth="yes"/>
      <point x="442" y="308" type="line"/>
      <point x="442" y="306" type="line"/>
      <point x="563" y="306" type="line" smooth="yes"/>
      <point x="691" y="306"/>
      <point x="741" y="247"/>
      <point x="741" y="161" type="curve" smooth="yes"/>
      <point x="741" y="59"/>
      <point x="678" y="2"/>
      <point x="563" y="2" type="curve" smooth="yes"/>
      <point x="443" y="2" type="line"/>
      <point x="443" y="517" type="line"/>
    </contour>
    <contour>
      <point x="125" y="517" type="line"/>
      <point x="125" y="0" type="line"/>
      <point x="127" y="0" type="line"/>
      <point x="127" y="307" type="line"/>
      <point x="441" y="306" type="line"/>
      <point x="441" y="308" type="line"/>
      <point x="127" y="309" type="line"/>
      <point x="127" y="517" type="line"/>
    </contour>
  </outline>
</glyph>
<glyph name="uni0462" format="1">
  <advance width="669"/>
  <unicode hex="0462"/>
  <outline>
    <contour>
      <point x="235" y="0" type="line"/>
      <point x="385" y="0" type="line" smooth="yes"/>
      <point x="514" y="0"/>
      <point x="594" y="70"/>
      <point x="594" y="210" type="curve" smooth="yes"/>
      <point x="594" y="335"/>
      <point x="517" y="399"/>
      <point x="381" y="399" type="curve" smooth="yes"/>
      <point x="236" y="399" type="line"/>
      <point x="236" y="397" type="line"/>
      <point x="381" y="397" type="line" smooth="yes"/>
      <point x="516" y="397"/>
      <point x="592" y="333"/>
      <point x="592" y="210" type="curve" smooth="yes"/>
      <point x="592" y="72"/>
      <point x="514" y="2"/>
      <point x="385" y="2" type="curve" smooth="yes"/>
      <point x="237" y="2" type="line"/>
      <point x="237" y="679" type="line"/>
      <point x="235" y="679" type="line"/>
    </contour>
    <contour>
      <point x="20" y="680" type="line"/>
      <point x="20" y="678" type="line"/>
      <point x="452" y="678" type="line"/>
      <point x="452" y="680" type="line"/>
    </contour>
  </outline>
</glyph>
<glyph name="uni0474" format="1">
  <advance width="524"/>
  <unicode hex="0474"/>
  <outline>
    <contour>
      <point x="486" y="656"/>
      <point x="469" y="626"/>
      <point x="454" y="580" type="curve" smooth="yes"/>
      <point x="263" y="2" type="line"/>
      <point x="37" y="680" type="line"/>
      <point x="35" y="680" type="line"/>
      <point x="262" y="0" type="line"/>
      <point x="264" y="0" type="line"/>
      <point x="456" y="580" type="line" smooth="yes"/>
      <point x="471" y="625"/>
      <point x="488" y="655"/>
      <point x="509" y="681" type="curve"/>
      <point x="507" y="681" type="line"/>
    </contour>
  </outline>
</glyph>
<glyph name="uni0475" format="1">
  <advance width="436"/>
  <unicode hex="0475"/>
  <outline>
    <contour>
      <point x="398" y="497"/>
      <point x="384" y="461"/>
      <point x="367" y="413" type="curve" smooth="yes"/>
      <point x="223" y="2" type="line"/>
      <point x="32" y="517" type="line"/>
      <point x="30" y="517" type="line"/>
      <point x="222" y="0" type="line"/>
      <point x="224" y="0" type="line"/>
      <point x="369" y="412" type="line" smooth="yes"/>
      <point x="388" y="465"/>
      <point x="402" y="499"/>
      <point x="419" y="517" type="curve"/>
      <point x="417" y="518" type="line"/>
    </contour>
  </outline>
</glyph>
<glyph name="uni0490" format="1">
  <advance width="521"/>
  <unicode hex="0490"/>
  <outline>
    <contour>
      <point x="501" y="680" type="line"/>
      <point x="501" y="779" type="line"/>
      <point x="499" y="779" type="line"/>
      <point x="499" y="679" type="line"/>
    </contour>
    <component base="uni0413"/>
  </outline>
</glyph>
<glyph name="uni0492" format="1">
  <advance width="524"/>
  <unicode hex="0492"/>
  <outline>
    <contour>
      <point x="35" y="379" type="line"/>
      <point x="35" y="377" type="line"/>
      <point x="133" y="377" type="line"/>
      <point x="299" y="377" type="line"/>
      <point x="299" y="379" type="line"/>
    </contour>
    <component base="uni0413" xOffset="3"/>
  </outline>
</glyph>
<glyph name="uni0493" format="1">
  <advance width="415"/>
  <unicode hex="0493"/>
  <outline>
    <contour>
      <point x="125" y="293" type="line"/>
      <point x="58" y="293" type="line"/>
      <point x="58" y="291" type="line"/>
      <point x="266" y="291" type="line"/>
      <point x="266" y="293" type="line"/>
    </contour>
    <component base="uni0433"/>
  </outline>
</glyph>
<glyph name="uni049C" format="1">
  <advance width="537"/>
  <unicode hex="049C"/>
  <outline>
    <contour>
      <point x="476" y="680" type="line"/>
      <point x="262" y="361" type="line"/>
      <point x="132" y="361" type="line"/>
      <point x="132" y="680" type="line"/>
      <point x="130" y="680" type="line"/>
      <point x="130" y="1" type="line"/>
      <point x="132" y="1" type="line"/>
      <point x="132" y="359" type="line"/>
      <point x="262" y="359" type="line"/>
      <point x="494" y="0" type="line"/>
      <point x="497" y="0" type="line"/>
      <point x="264" y="360" type="line"/>
      <point x="479" y="680" type="line"/>
    </contour>
    <contour>
      <point x="211" y="551" type="line"/>
      <point x="211" y="169" type="line"/>
      <point x="213" y="169" type="line"/>
      <point x="213" y="551" type="line"/>
    </contour>
  </outline>
</glyph>
<glyph name="uni049D" format="1">
  <advance width="488"/>
  <unicode hex="049D"/>
  <outline>
    <contour>
      <point x="395" y="517" type="line"/>
      <point x="258" y="279" type="line"/>
      <point x="127" y="279" type="line"/>
      <point x="127" y="517" type="line"/>
      <point x="125" y="517" type="line"/>
      <point x="125" y="0" type="line"/>
      <point x="127" y="0" type="line"/>
      <point x="127" y="277" type="line"/>
      <point x="258" y="277" type="line"/>
      <point x="425" y="0" type="line"/>
      <point x="428" y="0" type="line"/>
      <point x="260" y="278" type="line"/>
      <point x="398" y="517" type="line"/>
    </contour>
    <contour>
      <point x="194" y="393" type="line"/>
      <point x="194" y="126" type="line"/>
      <point x="196" y="126" type="line"/>
      <point x="196" y="393" type="line"/>
    </contour>
  </outline>
</glyph>
<glyph name="uni04A0" format="1">
  <advance width="560"/>
  <unicode hex="04A0"/>
  <outline>
    <contour>
      <point x="0" y="680" type="line"/>
      <point x="0" y="678" type="line"/>
      <point x="159" y="678" type="line"/>
      <point x="159" y="680" type="line"/>
    </contour>
    <component base="uni041A" xOffset="28"/>
  </outline>
</glyph>
<glyph name="uni04AF" format="1">
  <advance width="435"/>
  <unicode hex="04AF"/>
  <outline>
    <contour>
      <point x="403" y="517" type="line"/>
      <point x="224" y="22" type="line"/>
      <point x="32" y="517" type="line"/>
      <point x="30" y="517" type="line"/>
      <point x="223" y="20" type="line"/>
      <point x="223" y="-190" type="line"/>
      <point x="225" y="-190" type="line"/>
      <point x="225" y="20" type="line"/>
      <point x="405" y="517" type="line"/>
    </contour>
  </outline>
</glyph>
<glyph name="uni04B8" format="1">
  <advance width="600"/>
  <unicode hex="04B8"/>
  <outline>
    <contour>
      <point x="246" y="512" type="line"/>
      <point x="246" y="111" type="line"/>
      <point x="248" y="111" type="line"/>
      <point x="248" y="512" type="line"/>
    </contour>
    <component base="uni0427"/>
  </outline>
</glyph>
<glyph name="uni04B9" format="1">
  <advance width="520"/>
  <unicode hex="04B9"/>
  <outline>
    <contour>
      <point x="216" y="368" type="line"/>
      <point x="216" y="101" type="line"/>
      <point x="218" y="101" type="line"/>
      <point x="218" y="368" type="line"/>
    </contour>
    <component base="uni0447"/>
  </outline>
</glyph>
<glyph name="uni04BA" format="1">
  <advance width="587"/>
  <unicode hex="04BA"/>
  <outline>
    <contour>
      <point x="251" y="410"/>
      <point x="187" y="369"/>
      <point x="131" y="295" type="curve"/>
      <point x="131" y="292" type="line"/>
      <point x="189" y="368"/>
      <point x="251" y="408"/>
      <point x="341" y="408" type="curve" smooth="yes"/>
      <point x="459" y="408"/>
      <point x="505" y="336"/>
      <point x="505" y="244" type="curve" smooth="yes"/>
      <point x="505" y="0" type="line"/>
      <point x="507" y="0" type="line"/>
      <point x="507" y="244" type="line" smooth="yes"/>
      <point x="507" y="339"/>
      <point x="458" y="410"/>
      <point x="341" y="410" type="curve" smooth="yes"/>
    </contour>
    <contour>
      <point x="130" y="680" type="line"/>
      <point x="130" y="0" type="line"/>
      <point x="132" y="0" type="line"/>
      <point x="132" y="680" type="line"/>
    </contour>
    <contour>
      <point x="517" y="0" type="move" name="bottomright"/>
    </contour>
  </outline>
</glyph>
<glyph name="uni04CC" format="1">
  <advance width="520"/>
  <unicode hex="04CC"/>
  <outline>
    <contour>
      <point x="394" y="290" type="line"/>
      <point x="357" y="240"/>
      <point x="305" y="192"/>
      <point x="213" y="192" type="curve" smooth="yes"/>
      <point x="128" y="192"/>
      <point x="77" y="239"/>
      <point x="77" y="322" type="curve" smooth="yes"/>
      <point x="77" y="517" type="line"/>
      <point x="75" y="517" type="line"/>
      <point x="75" y="322" type="line" smooth="yes"/>
      <point x="75" y="237"/>
      <point x="128" y="190"/>
      <point x="213" y="190" type="curve" smooth="yes"/>
      <point x="304" y="190"/>
      <point x="356" y="237"/>
      <point x="394" y="286" type="curve"/>
    </contour>
    <contour>
      <point x="393" y="0" type="line"/>
      <point x="395" y="0" type="line"/>
      <point x="395" y="517" type="line"/>
      <point x="393" y="517" type="line"/>
    </contour>
    <component base="descStraight-cy" xOffset="405" xScale="-1"/>
    <contour>
      <point x="235" y="517" type="move" name="top"/>
    </contour>
    <contour>
      <point x="405" y="0" type="move" name="bottomright"/>
    </contour>
    <contour>
      <point x="373" y="0" type="move" name="bottomleft"/>
    </contour>
  </outline>
</glyph>
<glyph name="uni04E8" format="1">
  <advance width="687"/>
  <unicode hex="04E8"/>
  <outline>
    <contour>
      <point x="188" y="690"/>
      <point x="85" y="557"/>
      <point x="85" y="342" type="curve" smooth="yes"/>
      <point x="85" y="118"/>
      <point x="184" y="-9"/>
      <point x="343" y="-9" type="curve" smooth="yes"/>
      <point x="510" y="-9"/>
      <point x="602" y="119"/>
      <point x="602" y="342" type="curve" smooth="yes"/>
      <point x="602" y="563"/>
      <point x="504" y="690"/>
      <point x="343" y="690" type="curve" smooth="yes"/>
    </contour>
    <contour>
      <point x="503" y="688"/>
      <point x="600" y="561"/>
      <point x="600" y="342" type="curve" smooth="yes"/>
      <point x="600" y="121"/>
      <point x="509" y="-7"/>
      <point x="343" y="-7" type="curve" smooth="yes"/>
      <point x="185" y="-7"/>
      <point x="87" y="120"/>
      <point x="87" y="342" type="curve" smooth="yes"/>
      <point x="87" y="555"/>
      <point x="189" y="688"/>
      <point x="343" y="688" type="curve" smooth="yes"/>
    </contour>
    <contour>
      <point x="86" y="343" type="line"/>
      <point x="86" y="341" type="line"/>
      <point x="601" y="341" type="line"/>
      <point x="601" y="343" type="line"/>
    </contour>
    <contour>
      <point x="343" y="680" type="move" name="top"/>
    </contour>
  </outline>
</glyph>
<glyph name="quotesinglbase" format="1">
  <advance width="222"/>
  <unicode hex="201A"/>
  <outline>
    <contour>
      <point x="114" y="4"/>
      <point x="113" y="3"/>
      <point x="113" y="2" type="curve" smooth="yes"/>
      <point x="113" y="1"/>
      <point x="114" y="0"/>
      <point x="115" y="0" type="curve"/>
      <point x="72" y="-119" type="line"/>
      <point x="73" y="-119" type="line"/>
      <point x="115" y="-4" type="line" smooth="yes"/>
      <point x="116" y="-1"/>
      <point x="117" y="1"/>
      <point x="117" y="2" type="curve" smooth="yes"/>
      <point x="117" y="3"/>
      <point x="116" y="4"/>
      <point x="115" y="4" type="curve" smooth="yes"/>
    </contour>
  </outline>
</glyph>
<glyph name="dagger" format="1">
  <advance width="496"/>
  <unicode hex="2020"/>
  <outline>
    <contour>
      <point x="247" y="660" type="line"/>
      <point x="247" y="492" type="line"/>
      <point x="70" y="492" type="line"/>
      <point x="70" y="490" type="line"/>
      <point x="247" y="490" type="line"/>
      <point x="247" y="0" type="line"/>
      <point x="249" y="0" type="line"/>
      <point x="249" y="490" type="line"/>
      <point x="425" y="490" type="line"/>
      <point x="425" y="492" type="line"/>
      <point x="249" y="492" type="line"/>
      <point x="249" y="660" type="line"/>
    </contour>
  </outline>
</glyph>
<glyph name="daggerdbl" format="1">
  <advance width="497"/>
  <unicode hex="2021"/>
  <outline>
    <contour>
      <point x="71" y="202" type="line"/>
      <point x="71" y="200" type="line"/>
      <point x="426" y="200" type="line"/>
      <point x="426" y="202" type="line"/>
    </contour>
    <component base="dagger" xOffset="1"/>
  </outline>
</glyph>
<glyph name="guilsinglright" format="1">
  <advance width="346"/>
  <unicode hex="203A"/>
  <outline>
    <contour>
      <point x="101" y="493" type="line"/>
      <point x="244" y="288" type="line"/>
      <point x="100" y="84" type="line"/>
      <point x="102" y="83" type="line"/>
      <point x="246" y="287" type="line"/>
      <point x="246" y="289" type="line"/>
      <point x="103" y="494" type="line"/>
    </contour>
  </outline>
</glyph>
<glyph name="Euro" format="1">
  <advance width="560"/>
  <unicode hex="20AC"/>
  <outline>
    <contour>
      <point x="244" y="670"/>
      <point x="148" y="572"/>
      <point x="127" y="404" type="curve"/>
      <point x="127" y="270" type="line"/>
      <point x="146" y="83"/>
      <point x="232" y="-9"/>
      <point x="356" y="-9" type="curve" smooth="yes"/>
      <point x="411" y="-9"/>
      <point x="448" y="6"/>
      <point x="487" y="32" type="curve"/>
      <point x="486" y="34" type="line"/>
      <point x="449" y="9"/>
      <point x="411" y="-7"/>
      <point x="356" y="-7" type="curve" smooth="yes"/>
      <point x="234" y="-7"/>
      <point x="148" y="83"/>
      <point x="129" y="270" type="curve"/>
      <point x="129" y="404" type="line"/>
      <point x="151" y="571"/>
      <point x="245" y="668"/>
      <point x="358" y="668" type="curve" smooth="yes"/>
      <point x="417" y="668"/>
      <point x="460" y="651"/>
      <point x="504" y="618" type="curve"/>
      <point x="505" y="620" type="line"/>
      <point x="460" y="653"/>
      <point x="417" y="670"/>
      <point x="358" y="670" type="curve" smooth="yes"/>
    </contour>
    <contour>
      <point x="55" y="271" type="line"/>
      <point x="55" y="269" type="line"/>
      <point x="388" y="269" type="line"/>
      <point x="388" y="271" type="line"/>
    </contour>
    <contour>
      <point x="55" y="405" type="line"/>
      <point x="55" y="403" type="line"/>
      <point x="415" y="403" type="line"/>
      <point x="415" y="405" type="line"/>
    </contour>
  </outline>
</glyph>
<glyph name="uni20BA" format="1">
  <advance width="479"/>
  <unicode hex="20BA"/>
  <outline>
    <contour>
      <point x="237" y="-1" type="line"/>
      <point x="365" y="-1"/>
      <point x="420" y="44"/>
      <point x="459" y="133" type="curve"/>
      <point x="457" y="133" type="line"/>
      <point x="419" y="46"/>
      <point x="364" y="1"/>
      <point x="237" y="1" type="curve"/>
      <point x="141" y="1" type="line"/>
      <point x="141" y="660" type="line"/>
      <point x="139" y="660" type="line"/>
      <point x="139" y="-1" type="line"/>
    </contour>
    <contour>
      <point x="320" y="329" type="line"/>
      <point x="319" y="331" type="line"/>
      <point x="75" y="217" type="line"/>
      <point x="76" y="215" type="line"/>
    </contour>
    <contour>
      <point x="320" y="444" type="line"/>
      <point x="319" y="446" type="line" smooth="yes"/>
      <point x="75" y="332" type="line"/>
      <point x="76" y="330" type="line"/>
    </contour>
  </outline>
</glyph>
<glyph name="uni2116" format="1">
  <advance width="1082"/>
  <unicode hex="2116"/>
  <outline>
    <contour>
      <point x="711" y="689"/>
      <point x="644" y="614"/>
      <point x="644" y="478" type="curve"/>
      <point x="644" y="346"/>
      <point x="710" y="268"/>
      <point x="813" y="268" type="curve"/>
      <point x="915" y="268"/>
      <point x="982" y="343"/>
      <point x="982" y="479" type="curve"/>
      <point x="982" y="611"/>
      <point x="916" y="689"/>
      <point x="813" y="689" type="curve"/>
    </contour>
    <contour>
      <point x="915" y="687"/>
      <point x="980" y="609"/>
      <point x="980" y="479" type="curve"/>
      <point x="980" y="345"/>
      <point x="914" y="270"/>
      <point x="813" y="270" type="curve"/>
      <point x="710" y="271"/>
      <point x="646" y="348"/>
      <point x="646" y="478" type="curve"/>
      <point x="646" y="612"/>
      <point x="712" y="687"/>
      <point x="813" y="687" type="curve"/>
    </contour>
    <component base="N"/>
    <component base="minus" xOffset="574" yOffset="-330"/>
  </outline>
</glyph>
<glyph name="arrowboth" format="1">
  <advance width="1280"/>
  <unicode hex="2194"/>
  <outline>
    <contour>
      <point x="880" y="577" type="line"/>
      <point x="1099" y="336" type="line" smooth="yes"/>
      <point x="1101" y="334"/>
      <point x="1103" y="332"/>
      <point x="1105" y="330" type="curve"/>
      <point x="175" y="330" type="line"/>
      <point x="177" y="332"/>
      <point x="179" y="334"/>
      <point x="181" y="336" type="curve" smooth="yes"/>
      <point x="400" y="577" type="line"/>
      <point x="398" y="579" type="line"/>
      <point x="172" y="329" type="line"/>
      <point x="398" y="79" type="line"/>
      <point x="400" y="81" type="line"/>
      <point x="181" y="322" type="line" smooth="yes"/>
      <point x="179" y="324"/>
      <point x="177" y="326"/>
      <point x="175" y="328" type="curve"/>
      <point x="1105" y="328" type="line"/>
      <point x="1103" y="326"/>
      <point x="1101" y="324"/>
      <point x="1099" y="322" type="curve" smooth="yes"/>
      <point x="880" y="81" type="line"/>
      <point x="882" y="79" type="line"/>
      <point x="1108" y="329" type="line"/>
      <point x="882" y="579" type="line"/>
    </contour>
  </outline>
</glyph>
<glyph name="arrowdownleft" format="1">
  <advance width="900"/>
  <unicode hex="2199"/>
  <outline>
    <contour>
      <point x="256" y="98" type="line"/>
      <point x="256" y="108"/>
      <point x="255" y="121"/>
      <point x="254" y="136" type="curve" smooth="yes"/>
      <point x="239" y="461" type="line"/>
      <point x="237" y="461" type="line"/>
      <point x="254" y="95" type="line"/>
      <point x="611" y="76" type="line"/>
      <point x="612" y="78" type="line"/>
      <point x="295" y="95" type="line" smooth="yes"/>
      <point x="280" y="96"/>
      <point x="267" y="97"/>
      <point x="258" y="97" type="curve"/>
      <point x="662" y="507" type="line"/>
      <point x="661" y="509" type="line"/>
    </contour>
  </outline>
</glyph>
<glyph name="notequal" format="1">
  <advance width="478"/>
  <unicode hex="2260"/>
  <outline>
    <contour>
      <point x="133" y="152" type="line"/>
      <point x="135" y="152" type="line"/>
      <point x="348" y="511" type="line"/>
      <point x="346" y="511" type="line"/>
    </contour>
    <component base="equal"/>
  </outline>
</glyph>
<glyph name="uniA78B" format="1">
  <advance width="182"/>
  <unicode hex="A78B"/>
  <outline>
    <contour>
      <point x="92" y="366" type="line"/>
      <point x="92" y="680" type="line"/>
      <point x="90" y="680" type="line"/>
      <point x="90" y="366" type="line"/>
    </contour>
  </outline>
</glyph>
<glyph name="uniA7B3" format="1">
  <advance width="457"/>
  <unicode hex="A7B3"/>
  <outline>
    <contour>
      <point x="51" y="680" type="line"/>
      <point x="226" y="325" type="line"/>
      <point x="228" y="324" type="line"/>
      <point x="435" y="-90" type="line"/>
      <point x="437" y="-90" type="line"/>
      <point x="230" y="325" type="line"/>
      <point x="228" y="326" type="line"/>
      <point x="53" y="680" type="line"/>
    </contour>
    <contour>
      <point x="404" y="680" type="line"/>
      <point x="228" y="326" type="line"/>
      <point x="226" y="325" type="line"/>
      <point x="20" y="-90" type="line"/>
      <point x="22" y="-90" type="line"/>
      <point x="228" y="324" type="line"/>
      <point x="230" y="325" type="line"/>
      <point x="406" y="680" type="line"/>
    </contour>
  </outline>
</glyph>
<glyph name="TseHelper-cy" format="1">
  <advance width="650"/>
  <outline>
    <contour>
      <point x="520" y="682" type="line"/>
      <point x="518" y="682" type="line"/>
      <point x="518" y="2" type="line"/>
      <point x="132" y="2" type="line"/>
      <point x="132" y="682" type="line"/>
      <point x="130" y="682" type="line"/>
      <point x="130" y="0" type="line"/>
      <point x="520" y="0" type="line"/>
    </contour>
    <contour>
      <point x="325" y="0" type="move" name="bottom"/>
    </contour>
    <contour>
      <point x="530" y="0" type="move" name="bottomright"/>
    </contour>
  </outline>
</glyph>
<glyph name="acutecombcomb" format="1">
  <advance width="227"/>
  <outline>
    <component base="acutecomb"/>
    <contour>
      <point x="107" y="842" type="move" name="top"/>
    </contour>
    <contour>
      <point x="107" y="680" type="move" name="_top"/>
    </contour>
  </outline>
</glyph>
<glyph name="ae.sc" format="1">
  <advance width="659"/>
  <outline>
    <contour>
      <point x="249" y="557" type="line"/>
      <point x="21" y="0" type="line"/>
      <point x="23" y="0" type="line"/>
      <point x="250" y="555" type="line"/>
      <point x="403" y="0" type="line"/>
      <point x="609" y="0" type="line"/>
      <point x="609" y="2" type="line"/>
      <point x="405" y="2" type="line"/>
      <point x="252" y="555" type="line"/>
      <point x="561" y="555" type="line"/>
      <point x="562" y="557" type="line"/>
    </contour>
    <contour>
      <point x="91" y="170" type="line"/>
      <point x="90" y="168" type="line"/>
      <point x="358" y="168" type="line"/>
      <point x="358" y="170" type="line"/>
    </contour>
    <contour>
      <point x="323" y="297" type="line"/>
      <point x="323" y="295" type="line"/>
      <point x="552" y="295" type="line"/>
      <point x="552" y="297" type="line"/>
    </contour>
    <contour>
      <point x="393" y="557" type="move" name="top"/>
    </contour>
  </outline>
</glyph>
<glyph name="b.sc" format="1">
  <advance width="529"/>
  <outline>
    <contour>
      <point x="130" y="558" type="line"/>
      <point x="130" y="0" type="line"/>
      <point x="266" y="0" type="line" smooth="yes"/>
      <point x="379" y="0"/>
      <point x="464" y="38"/>
      <point x="464" y="150" type="curve" smooth="yes"/>
      <point x="464" y="241"/>
      <point x="389" y="292"/>
      <point x="306" y="295" type="curve"/>
      <point x="377" y="302"/>
      <point x="432" y="353"/>
      <point x="432" y="421" type="curve" smooth="yes"/>
      <point x="432" y="508"/>
      <point x="367" y="558"/>
      <point x="246" y="558" type="curve" smooth="yes"/>
    </contour>
    <contour>
      <point x="366" y="556"/>
      <point x="430" y="506"/>
      <point x="430" y="421" type="curve" smooth="yes"/>
      <point x="430" y="352"/>
      <point x="371" y="296"/>
      <point x="288" y="296" type="curve" smooth="yes"/>
      <point x="131" y="296" type="line"/>
      <point x="131" y="294" type="line"/>
      <point x="292" y="294" type="line" smooth="yes"/>
      <point x="390" y="294"/>
      <point x="462" y="239"/>
      <point x="462" y="150" type="curve" smooth="yes"/>
      <point x="462" y="38"/>
      <point x="377" y="2"/>
      <point x="267" y="2" type="curve" smooth="yes"/>
      <point x="132" y="2" type="line"/>
      <point x="132" y="556" type="line"/>
      <point x="247" y="556" type="line" smooth="yes"/>
    </contour>
  </outline>
</glyph>
<glyph name="breve.case" format="1">
  <advance width="252"/>
  <outline>
    <contour>
      <point x="174" y="776"/>
      <point x="207" y="801"/>
      <point x="220" y="835" type="curve"/>
      <point x="222" y="834" type="line"/>
      <point x="211" y="805"/>
      <point x="181" y="774"/>
      <point x="126" y="774" type="curve"/>
      <point x="71" y="774"/>
      <point x="41" y="805"/>
      <point x="30" y="834" type="curve"/>
      <point x="32" y="835" type="line"/>
      <point x="45" y="801"/>
      <point x="78" y="776"/>
      <point x="126" y="776" type="curve"/>
    </contour>
    <contour>
      <point x="126" y="680" type="move" name="_top"/>
    </contour>
  </outline>
</glyph>
<glyph name="caroncombcomb" format="1">
  <advance width="278"/>
  <outline>
    <component base="uni030C"/>
    <contour>
      <point x="136" y="845" type="move" name="top"/>
    </contour>
    <contour>
      <point x="136" y="680" type="move" name="_top"/>
    </contour>
  </outline>
</glyph>
<glyph name="cedillaTcedilla" format="1">
  <advance width="189"/>
  <outline>
    <contour>
      <point x="72" y="0" type="line"/>
      <point x="67" y="-84" type="line"/>
      <point x="131" y="-84"/>
      <point x="157" y="-104"/>
      <point x="157" y="-141" type="curve" smooth="yes"/>
      <point x="157" y="-185"/>
      <point x="124" y="-200"/>
      <point x="91" y="-200" type="curve" smooth="yes"/>
      <point x="64" y="-200"/>
      <point x="48" y="-195"/>
      <point x="31" y="-184" type="curve"/>
      <point x="30" y="-186" type="line"/>
      <point x="46" y="-196"/>
      <point x="62" y="-202"/>
      <point x="91" y="-202" type="curve" smooth="yes"/>
      <point x="125" y="-202"/>
      <point x="159" y="-186"/>
      <point x="159" y="-141" type="curve" smooth="yes"/>
      <point x="159" y="-98"/>
      <point x="124" y="-83"/>
      <point x="69" y="-82" type="curve"/>
      <point x="74" y="0" type="line"/>
    </contour>
    <contour>
      <point x="84" y="0" type="move" name="_bottomright"/>
    </contour>
  </outline>
</glyph>
<glyph name="circumflex.case" format="1">
  <advance width="278"/>
  <outline>
    <contour>
      <point x="248" y="771" type="line"/>
      <point x="139" y="850" type="line"/>
      <point x="137" y="850" type="line"/>
      <point x="30" y="771" type="line"/>
      <point x="32" y="770" type="line"/>
      <point x="138" y="848" type="line"/>
      <point x="246" y="770" type="line"/>
    </contour>
    <contour>
      <point x="139" y="680" type="move" name="_top"/>
    </contour>
  </outline>
</glyph>
<glyph name="circumflexhookabove" format="1">
  <advance width="317"/>
  <outline>
    <component base="circumflex.case" yOffset="-180"/>
    <component base="hookabovecomb" xOffset="138" yOffset="32"/>
    <contour>
      <point x="140" y="517" type="move" name="_top"/>
    </contour>
  </outline>
</glyph>
<glyph name="circumflextilde" format="1">
  <advance width="303"/>
  <outline>
    <component base="circumflex.case" xOffset="14" yOffset="-185"/>
    <component base="tildedbl" yOffset="31"/>
    <contour>
      <point x="154" y="517" type="move" name="_top"/>
    </contour>
  </outline>
</glyph>
<glyph name="dagger.tf" format="1">
  <advance width="560"/>
  <outline>
    <contour>
      <point x="279" y="680" type="line"/>
      <point x="279" y="512" type="line"/>
      <point x="92" y="512" type="line"/>
      <point x="92" y="510" type="line"/>
      <point x="279" y="510" type="line"/>
      <point x="279" y="0" type="line"/>
      <point x="281" y="0" type="line"/>
      <point x="281" y="510" type="line"/>
      <point x="468" y="510" type="line"/>
      <point x="468" y="512" type="line"/>
      <point x="281" y="512" type="line"/>
      <point x="281" y="680" type="line"/>
    </contour>
  </outline>
</glyph>
<glyph name="delta.sc" format="1">
  <advance width="499"/>
  <outline>
    <contour>
      <point x="461" y="2" type="line"/>
      <point x="38" y="2" type="line"/>
      <point x="249" y="555" type="line"/>
    </contour>
    <contour>
      <point x="248" y="557" type="line"/>
      <point x="35" y="0" type="line"/>
      <point x="464" y="0" type="line"/>
      <point x="250" y="557" type="line"/>
    </contour>
  </outline>
</glyph>
<glyph name="descRound-cy" format="1">
  <advance width="197"/>
  <outline>
    <contour>
      <point x="74" y="-8" type="line"/>
      <point x="116" y="-22"/>
      <point x="165" y="-58"/>
      <point x="165" y="-124" type="curve" smooth="yes"/>
      <point x="165" y="-177"/>
      <point x="128" y="-200"/>
      <point x="87" y="-200" type="curve" smooth="yes"/>
      <point x="61" y="-200"/>
      <point x="45" y="-196"/>
      <point x="30" y="-189" type="curve"/>
      <point x="30" y="-191" type="line"/>
      <point x="45" y="-198"/>
      <point x="61" y="-202"/>
      <point x="87" y="-202" type="curve" smooth="yes"/>
      <point x="129" y="-202"/>
      <point x="167" y="-178"/>
      <point x="167" y="-124" type="curve" smooth="yes"/>
      <point x="167" y="-60"/>
      <point x="121" y="-22"/>
      <point x="76" y="-7" type="curve"/>
    </contour>
    <contour>
      <point x="94" y="0" type="move" name="_bottom"/>
    </contour>
  </outline>
</glyph>
<glyph name="descStraight-cy" format="1">
  <advance width="150"/>
  <outline>
    <contour>
      <point x="10" y="2" type="line"/>
      <point x="10" y="0" type="line"/>
      <point x="63" y="0" type="line"/>
      <point x="63" y="-131" type="line"/>
      <point x="65" y="-131" type="line"/>
      <point x="65" y="2" type="line"/>
    </contour>
    <contour>
      <point x="64" y="0" type="move" name="_bottom"/>
    </contour>
    <contour>
      <point x="32" y="0" type="move" name="_bottomleft"/>
    </contour>
    <contour>
      <point x="20" y="0" type="move" name="_bottomright"/>
    </contour>
  </outline>
</glyph>
<glyph name="dieresisacutecomb" format="1">
  <advance width="247"/>
  <outline>
    <contour>
      <point x="51" y="681"/>
      <point x="49" y="678"/>
      <point x="49" y="675" type="curve" smooth="yes"/>
      <point x="49" y="672"/>
      <point x="51" y="669"/>
      <point x="55" y="669" type="curve" smooth="yes"/>
      <point x="59" y="669"/>
      <point x="61" y="672"/>
      <point x="61" y="675" type="curve" smooth="yes"/>
      <point x="61" y="678"/>
      <point x="59" y="681"/>
      <point x="55" y="681" type="curve" smooth="yes"/>
    </contour>
    <contour>
      <point x="200" y="681"/>
      <point x="198" y="678"/>
      <point x="198" y="675" type="curve" smooth="yes"/>
      <point x="198" y="672"/>
      <point x="200" y="669"/>
      <point x="204" y="669" type="curve" smooth="yes"/>
      <point x="208" y="669"/>
      <point x="210" y="672"/>
      <point x="210" y="675" type="curve" smooth="yes"/>
      <point x="210" y="678"/>
      <point x="208" y="681"/>
      <point x="204" y="681" type="curve" smooth="yes"/>
    </contour>
    <contour>
      <point x="40" y="744" type="line"/>
      <point x="41" y="742" type="line"/>
      <point x="208" y="824" type="line"/>
      <point x="207" y="826" type="line"/>
    </contour>
    <contour>
      <point x="130" y="517" type="move" name="_top"/>
    </contour>
  </outline>
</glyph>
<glyph name="dieresisgravecomb" format="1">
  <advance width="247"/>
  <outline>
    <contour>
      <point x="191" y="681"/>
      <point x="189" y="678"/>
      <point x="189" y="675" type="curve" smooth="yes"/>
      <point x="189" y="672"/>
      <point x="191" y="669"/>
      <point x="195" y="669" type="curve" smooth="yes"/>
      <point x="199" y="669"/>
      <point x="201" y="672"/>
      <point x="201" y="675" type="curve" smooth="yes"/>
      <point x="201" y="678"/>
      <point x="199" y="681"/>
      <point x="195" y="681" type="curve" smooth="yes"/>
    </contour>
    <contour>
      <point x="42" y="681"/>
      <point x="40" y="678"/>
      <point x="40" y="675" type="curve" smooth="yes"/>
      <point x="40" y="672"/>
      <point x="42" y="669"/>
      <point x="46" y="669" type="curve" smooth="yes"/>
      <point x="50" y="669"/>
      <point x="52" y="672"/>
      <point x="52" y="675" type="curve" smooth="yes"/>
      <point x="52" y="678"/>
      <point x="50" y="681"/>
      <point x="46" y="681" type="curve" smooth="yes"/>
    </contour>
    <contour>
      <point x="42" y="824" type="line"/>
      <point x="209" y="742" type="line"/>
      <point x="210" y="744" type="line"/>
      <point x="43" y="826" type="line"/>
    </contour>
    <contour>
      <point x="121" y="517" type="move" name="_top"/>
    </contour>
  </outline>
</glyph>
<glyph name="dotaccent.case" format="1">
  <advance width="72"/>
  <outline>
    <component base="dotaccent" yOffset="126"/>
    <contour>
      <point x="36" y="680" type="move" name="_top"/>
    </contour>
  </outline>
</glyph>
<glyph name="dotaccentcombcomb" format="1">
  <advance width="72"/>
  <outline>
    <component base="uni0307"/>
    <contour>
      <point x="36" y="832" type="move" name="top"/>
    </contour>
    <contour>
      <point x="36" y="680" type="move" name="_top"/>
    </contour>
  </outline>
</glyph>
<glyph name="e.sc" format="1">
  <advance width="453"/>
  <outline>
    <contour>
      <point x="130" y="557" type="line"/>
      <point x="130" y="0" type="line"/>
      <point x="403" y="0" type="line"/>
      <point x="403" y="2" type="line"/>
      <point x="132" y="2" type="line"/>
      <point x="132" y="295" type="line"/>
      <point x="357" y="295" type="line"/>
      <point x="357" y="297" type="line"/>
      <point x="132" y="297" type="line"/>
      <point x="132" y="555" type="line"/>
      <point x="394" y="555" type="line"/>
      <point x="394" y="557" type="line"/>
    </contour>
    <contour>
      <point x="383" y="0" type="move" name="ogonek"/>
    </contour>
    <contour>
      <point x="262" y="557" type="move" name="top"/>
    </contour>
    <contour>
      <point x="87" y="558" type="move" name="topleft"/>
    </contour>
    <contour>
      <point x="263" y="0" type="move" name="bottom"/>
    </contour>
  </outline>
</glyph>
<glyph name="eight.osf" format="1">
  <advance width="523"/>
  <outline>
    <contour>
      <point x="175" y="670"/>
      <point x="100" y="609"/>
      <point x="100" y="514" type="curve" smooth="yes"/>
      <point x="100" y="448"/>
      <point x="132" y="403"/>
      <point x="227" y="365" type="curve"/>
      <point x="229" y="364" type="line"/>
      <point x="270" y="348" type="line" smooth="yes"/>
      <point x="394" y="300"/>
      <point x="451" y="262"/>
      <point x="451" y="164" type="curve" smooth="yes"/>
      <point x="451" y="64"/>
      <point x="379" y="-7"/>
      <point x="264" y="-7" type="curve" smooth="yes"/>
      <point x="143" y="-7"/>
      <point x="72" y="63"/>
      <point x="72" y="169" type="curve" smooth="yes"/>
      <point x="72" y="261"/>
      <point x="125" y="319"/>
      <point x="229" y="364" type="curve"/>
      <point x="227" y="365" type="line"/>
      <point x="125" y="321"/>
      <point x="70" y="264"/>
      <point x="70" y="169" type="curve" smooth="yes"/>
      <point x="70" y="61"/>
      <point x="143" y="-9"/>
      <point x="264" y="-9" type="curve" smooth="yes"/>
      <point x="380" y="-9"/>
      <point x="453" y="62"/>
      <point x="453" y="164" type="curve" smooth="yes"/>
      <point x="453" y="251"/>
      <point x="410" y="294"/>
      <point x="297" y="339" type="curve"/>
      <point x="295" y="340" type="line"/>
      <point x="239" y="362" type="line" smooth="yes"/>
      <point x="145" y="399"/>
      <point x="102" y="439"/>
      <point x="102" y="514" type="curve" smooth="yes"/>
      <point x="102" y="608"/>
      <point x="176" y="668"/>
      <point x="262" y="668" type="curve" smooth="yes"/>
      <point x="349" y="668"/>
      <point x="423" y="614"/>
      <point x="423" y="513" type="curve" smooth="yes"/>
      <point x="423" y="433"/>
      <point x="385" y="388"/>
      <point x="295" y="340" type="curve"/>
      <point x="297" y="339" type="line"/>
      <point x="390" y="388"/>
      <point x="425" y="435"/>
      <point x="425" y="513" type="curve" smooth="yes"/>
      <point x="425" y="615"/>
      <point x="350" y="670"/>
      <point x="262" y="670" type="curve" smooth="yes"/>
    </contour>
  </outline>
</glyph>
<glyph name="eng.sc" format="1">
  <advance width="601"/>
  <outline>
    <contour>
      <point x="469" y="1" type="line"/>
      <point x="469" y="0" type="line" smooth="yes"/>
      <point x="469" y="-117"/>
      <point x="440" y="-153"/>
      <point x="372" y="-189" type="curve"/>
      <point x="373" y="-191" type="line"/>
      <point x="442" y="-154"/>
      <point x="471" y="-118"/>
      <point x="471" y="0" type="curve" smooth="yes"/>
      <point x="471" y="1" type="line"/>
    </contour>
    <component base="n.sc"/>
  </outline>
</glyph>
<glyph name="eth.sc" format="1">
  <advance width="520"/>
  <outline>
    <contour>
      <point x="248" y="291" type="line"/>
      <point x="248" y="293" type="line"/>
      <point x="90" y="293" type="line"/>
      <point x="36" y="293" type="line"/>
      <point x="36" y="291" type="line"/>
    </contour>
    <component base="d.sc" xOffset="-40"/>
  </outline>
</glyph>
<glyph name="f.sc" format="1">
  <advance width="430"/>
  <outline>
    <contour>
      <point x="130" y="558" type="line"/>
      <point x="130" y="0" type="line"/>
      <point x="132" y="0" type="line"/>
      <point x="132" y="283" type="line"/>
      <point x="356" y="283" type="line"/>
      <point x="356" y="285" type="line"/>
      <point x="132" y="285" type="line"/>
      <point x="132" y="556" type="line"/>
      <point x="390" y="556" type="line"/>
      <point x="390" y="558" type="line"/>
    </contour>
  </outline>
</glyph>
<glyph name="five.dnom" format="1">
  <advance width="400"/>
  <outline>
    <contour>
      <point x="113" y="409" type="line"/>
      <point x="113" y="223" type="line"/>
      <point x="115" y="223" type="line"/>
      <point x="141" y="241"/>
      <point x="164" y="252"/>
      <point x="201" y="252" type="curve" smooth="yes"/>
      <point x="272" y="252"/>
      <point x="312" y="206"/>
      <point x="312" y="132" type="curve" smooth="yes"/>
      <point x="312" y="54"/>
      <point x="271" y="-4"/>
      <point x="191" y="-4" type="curve" smooth="yes"/>
      <point x="149" y="-4"/>
      <point x="112" y="13"/>
      <point x="88" y="40" type="curve"/>
      <point x="86" y="39" type="line"/>
      <point x="111" y="11"/>
      <point x="148" y="-6"/>
      <point x="191" y="-6" type="curve" smooth="yes"/>
      <point x="272" y="-6"/>
      <point x="314" y="52"/>
      <point x="314" y="132" type="curve" smooth="yes"/>
      <point x="314" y="208"/>
      <point x="273" y="254"/>
      <point x="201" y="254" type="curve" smooth="yes"/>
      <point x="163" y="254"/>
      <point x="137" y="241"/>
      <point x="115" y="225" type="curve"/>
      <point x="115" y="407" type="line"/>
      <point x="301" y="407" type="line"/>
      <point x="301" y="409" type="line"/>
    </contour>
  </outline>
</glyph>
<glyph name="five.tosf" format="1">
  <advance width="560"/>
  <outline>
    <contour>
      <point x="125" y="557" type="line"/>
      <point x="125" y="257" type="line"/>
      <point x="128" y="257" type="line"/>
      <point x="167" y="287"/>
      <point x="204" y="304"/>
      <point x="269" y="304" type="curve" smooth="yes"/>
      <point x="387" y="304"/>
      <point x="450" y="230"/>
      <point x="450" y="110" type="curve" smooth="yes"/>
      <point x="450" y="-17"/>
      <point x="386" y="-109"/>
      <point x="253" y="-109" type="curve" smooth="yes"/>
      <point x="180" y="-109"/>
      <point x="121" y="-82"/>
      <point x="84" y="-38" type="curve"/>
      <point x="82" y="-39" type="line"/>
      <point x="120" y="-84"/>
      <point x="179" y="-111"/>
      <point x="253" y="-111" type="curve" smooth="yes"/>
      <point x="387" y="-111"/>
      <point x="452" y="-19"/>
      <point x="452" y="110" type="curve" smooth="yes"/>
      <point x="452" y="232"/>
      <point x="388" y="306"/>
      <point x="269" y="306" type="curve" smooth="yes"/>
      <point x="203" y="306"/>
      <point x="162" y="287"/>
      <point x="127" y="259" type="curve"/>
      <point x="127" y="555" type="line"/>
      <point x="431" y="555" type="line"/>
      <point x="431" y="557" type="line"/>
    </contour>
  </outline>
</glyph>
<glyph name="four.osf" format="1">
  <advance width="463"/>
  <outline>
    <contour>
      <point x="35" y="64" type="line"/>
      <point x="35" y="61" type="line"/>
      <point x="443" y="61" type="line"/>
      <point x="443" y="63" type="line"/>
      <point x="37" y="63" type="line"/>
      <point x="246" y="561" type="line"/>
      <point x="244" y="562" type="line"/>
    </contour>
    <contour>
      <point x="346" y="283" type="line"/>
      <point x="346" y="62" type="line"/>
      <point x="346" y="-101" type="line"/>
      <point x="348" y="-101" type="line"/>
      <point x="348" y="283" type="line"/>
    </contour>
  </outline>
</glyph>
<glyph name="h.sc" format="1">
  <advance width="601"/>
  <outline>
    <contour>
      <point x="469" y="557" type="line"/>
      <point x="469" y="297" type="line"/>
      <point x="132" y="297" type="line"/>
      <point x="132" y="557" type="line"/>
      <point x="130" y="557" type="line"/>
      <point x="130" y="0" type="line"/>
      <point x="132" y="0" type="line"/>
      <point x="132" y="295" type="line"/>
      <point x="469" y="295" type="line"/>
      <point x="469" y="0" type="line"/>
      <point x="471" y="0" type="line"/>
      <point x="471" y="557" type="line"/>
    </contour>
    <contour>
      <point x="300" y="557" type="move" name="top"/>
    </contour>
    <contour>
      <point x="87" y="558" type="move" name="topleft"/>
    </contour>
    <contour>
      <point x="479" y="0" type="move" name="bottomright"/>
    </contour>
    <contour>
      <point x="300" y="279" type="move" name="center"/>
    </contour>
  </outline>
</glyph>
<glyph name="hbar.sc" format="1">
  <advance width="592"/>
  <outline>
    <contour>
      <point x="464" y="434" type="line"/>
      <point x="85" y="434" type="line"/>
      <point x="85" y="432" type="line"/>
      <point x="133" y="432" type="line"/>
      <point x="507" y="432" type="line"/>
      <point x="507" y="434" type="line"/>
    </contour>
    <component base="h.sc" xOffset="3"/>
  </outline>
</glyph>
<glyph name="hungarumlautcombcomb" format="1">
  <advance width="229"/>
  <outline>
    <component base="uni030B"/>
    <contour>
      <point x="85" y="911" type="move" name="top"/>
    </contour>
    <contour>
      <point x="85" y="680" type="move" name="_top"/>
    </contour>
  </outline>
</glyph>
<glyph name="j.sc" format="1">
  <advance width="258"/>
  <outline>
    <contour>
      <point x="132" y="557" type="line"/>
      <point x="132" y="70" type="line" smooth="yes"/>
      <point x="132" y="-5"/>
      <point x="116" y="-40"/>
      <point x="30" y="-73" type="curve"/>
      <point x="31" y="-75" type="line"/>
      <point x="118" y="-41"/>
      <point x="134" y="-6"/>
      <point x="134" y="70" type="curve" smooth="yes"/>
      <point x="134" y="557" type="line"/>
    </contour>
  </outline>
</glyph>
<glyph name="jcrossedtaildotless" format="1">
  <advance width="268"/>
  <outline>
    <contour>
      <point x="104" y="-212"/>
      <point x="142" y="-155"/>
      <point x="142" y="-43" type="curve" smooth="yes"/>
      <point x="142" y="517" type="line"/>
      <point x="140" y="517" type="line"/>
      <point x="140" y="-43" type="line" smooth="yes"/>
      <point x="140" y="-154"/>
      <point x="103" y="-210"/>
      <point x="25" y="-210" type="curve" smooth="yes"/>
      <point x="-33" y="-210"/>
      <point x="-68" y="-177"/>
      <point x="-68" y="-126" type="curve" smooth="yes"/>
      <point x="-68" y="-66"/>
      <point x="-25" y="-31"/>
      <point x="42" y="-31" type="curve" smooth="yes"/>
      <point x="83" y="-31"/>
      <point x="112" y="-36"/>
      <point x="141" y="-44" type="curve"/>
      <point x="141" y="-42" type="line"/>
      <point x="112" y="-34"/>
      <point x="83" y="-29"/>
      <point x="42" y="-29" type="curve" smooth="yes"/>
      <point x="-26" y="-29"/>
      <point x="-70" y="-64"/>
      <point x="-70" y="-126" type="curve" smooth="yes"/>
      <point x="-70" y="-178"/>
      <point x="-34" y="-212"/>
      <point x="25" y="-212" type="curve" smooth="yes"/>
    </contour>
    <contour>
      <point x="218" y="-72" type="line"/>
      <point x="190" y="-58"/>
      <point x="168" y="-50"/>
      <point x="141" y="-42" type="curve"/>
      <point x="141" y="-44" type="line"/>
      <point x="168" y="-52"/>
      <point x="190" y="-60"/>
      <point x="218" y="-74" type="curve"/>
    </contour>
    <contour>
      <point x="141" y="517" type="move" name="top"/>
    </contour>
  </outline>
</glyph>
<glyph name="m.sc" format="1">
  <advance width="678"/>
  <outline>
    <contour>
      <point x="521" y="557" type="line"/>
      <point x="337" y="72" type="line"/>
      <point x="156" y="557" type="line"/>
      <point x="153" y="557" type="line"/>
      <point x="85" y="0" type="line"/>
      <point x="87" y="0" type="line"/>
      <point x="123" y="296" type="line" smooth="yes"/>
      <point x="134" y="388"/>
      <point x="151" y="515"/>
      <point x="155" y="553" type="curve"/>
      <point x="336" y="70" type="line"/>
      <point x="338" y="70" type="line"/>
      <point x="522" y="553" type="line"/>
      <point x="529" y="496"/>
      <point x="543" y="384"/>
      <point x="555" y="290" type="curve" smooth="yes"/>
      <point x="591" y="0" type="line"/>
      <point x="593" y="0" type="line"/>
      <point x="524" y="557" type="line"/>
    </contour>
  </outline>
</glyph>
<glyph name="macronacutesingle.case" format="1">
  <advance width="250"/>
  <outline>
    <component base="macron" yOffset="83"/>
    <component base="acute.case" xOffset="18" yOffset="75"/>
    <contour>
      <point x="125" y="680" type="move" name="_top"/>
    </contour>
  </outline>
</glyph>
<glyph name="macronacutesingle" format="1">
  <advance width="250"/>
  <outline>
    <component base="macron" yOffset="-70"/>
    <component base="acute.case" xOffset="18" yOffset="-78"/>
    <contour>
      <point x="125" y="517" type="move" name="_top"/>
    </contour>
  </outline>
</glyph>
<glyph name="macroncombcomb" format="1">
  <advance width="250"/>
  <outline>
    <component base="uni0304"/>
    <contour>
      <point x="125" y="817" type="move" name="top"/>
    </contour>
    <contour>
      <point x="125" y="680" type="move" name="_top"/>
    </contour>
  </outline>
</glyph>
<glyph name="minus.dnom" format="1">
  <advance width="400"/>
  <outline>
    <contour>
      <point x="305" y="202" type="line"/>
      <point x="305" y="204" type="line"/>
      <point x="95" y="204" type="line"/>
      <point x="95" y="202" type="line"/>
    </contour>
  </outline>
</glyph>
<glyph name="n.sc" format="1">
  <advance width="601"/>
  <outline>
    <contour>
      <point x="469" y="557" type="line"/>
      <point x="469" y="113" type="line"/>
      <point x="469" y="79"/>
      <point x="469" y="36"/>
      <point x="469" y="3" type="curve"/>
      <point x="133" y="557" type="line"/>
      <point x="130" y="557" type="line"/>
      <point x="130" y="0" type="line"/>
      <point x="132" y="0" type="line"/>
      <point x="132" y="470" type="line"/>
      <point x="132" y="509"/>
      <point x="132" y="536"/>
      <point x="132" y="555" type="curve"/>
      <point x="468" y="0" type="line"/>
      <point x="471" y="0" type="line"/>
      <point x="471" y="557" type="line"/>
    </contour>
    <contour>
      <point x="304" y="557" type="move" name="top"/>
    </contour>
    <contour>
      <point x="301" y="0" type="move" name="bottom"/>
    </contour>
  </outline>
</glyph>
<glyph name="nine.osf" format="1">
  <advance width="512"/>
  <outline>
    <contour>
      <point x="141" y="569"/>
      <point x="65" y="489"/>
      <point x="65" y="361" type="curve" smooth="yes"/>
      <point x="65" y="240"/>
      <point x="136" y="164"/>
      <point x="238" y="164" type="curve" smooth="yes"/>
      <point x="328" y="164"/>
      <point x="391" y="211"/>
      <point x="436" y="292" type="curve"/>
      <point x="436" y="296" type="line"/>
      <point x="391" y="214"/>
      <point x="327" y="166"/>
      <point x="238" y="166" type="curve" smooth="yes"/>
      <point x="137" y="166"/>
      <point x="67" y="241"/>
      <point x="67" y="361" type="curve" smooth="yes"/>
      <point x="67" y="488"/>
      <point x="143" y="567"/>
      <point x="250" y="567" type="curve" smooth="yes"/>
      <point x="383" y="567"/>
      <point x="435" y="466"/>
      <point x="435" y="294" type="curve"/>
      <point x="435" y="292" type="line"/>
      <point x="432" y="52"/>
      <point x="327" y="-44"/>
      <point x="124" y="-104" type="curve"/>
      <point x="125" y="-106" type="line"/>
      <point x="329" y="-47"/>
      <point x="437" y="54"/>
      <point x="437" y="296" type="curve" smooth="yes"/>
      <point x="437" y="466"/>
      <point x="385" y="569"/>
      <point x="250" y="569" type="curve" smooth="yes"/>
    </contour>
  </outline>
</glyph>
<glyph name="o.sc" format="1">
  <advance width="618"/>
  <outline>
    <contour>
      <point x="175" y="565"/>
      <point x="85" y="456"/>
      <point x="85" y="277" type="curve" smooth="yes"/>
      <point x="85" y="98"/>
      <point x="170" y="-7"/>
      <point x="308" y="-7" type="curve"/>
      <point x="442" y="-7"/>
      <point x="533" y="102"/>
      <point x="533" y="281" type="curve" smooth="yes"/>
      <point x="533" y="460"/>
      <point x="447" y="565"/>
      <point x="308" y="565" type="curve"/>
    </contour>
    <contour>
      <point x="446" y="563"/>
      <point x="531" y="459"/>
      <point x="531" y="281" type="curve" smooth="yes"/>
      <point x="531" y="104"/>
      <point x="441" y="-5"/>
      <point x="308" y="-5" type="curve"/>
      <point x="171" y="-5"/>
      <point x="87" y="99"/>
      <point x="87" y="277" type="curve" smooth="yes"/>
      <point x="87" y="454"/>
      <point x="176" y="563"/>
      <point x="308" y="563" type="curve"/>
    </contour>
    <contour>
      <point x="307" y="557" type="move" name="top"/>
    </contour>
    <contour>
      <point x="99" y="558" type="move" name="topleft"/>
    </contour>
  </outline>
</glyph>
<glyph name="ogonek.thin.sc" format="1">
  <advance width="199"/>
  <outline>
    <component base="ogonek.thin"/>
    <contour>
      <point x="133" y="0" type="move" name="_ogonek"/>
    </contour>
  </outline>
</glyph>
<glyph name="omega.sc" format="1">
  <advance width="618"/>
  <outline>
    <contour>
      <point x="175" y="566"/>
      <point x="85" y="457"/>
      <point x="85" y="277" type="curve" smooth="yes"/>
      <point x="85" y="120"/>
      <point x="143" y="40"/>
      <point x="235" y="3" type="curve"/>
      <point x="235" y="2" type="line"/>
      <point x="109" y="2" type="line"/>
      <point x="109" y="0" type="line"/>
      <point x="237" y="0" type="line"/>
      <point x="237" y="4" type="line"/>
      <point x="146" y="41"/>
      <point x="87" y="121"/>
      <point x="87" y="277" type="curve" smooth="yes"/>
      <point x="87" y="455"/>
      <point x="176" y="564"/>
      <point x="308" y="564" type="curve" smooth="yes"/>
      <point x="447" y="564"/>
      <point x="531" y="460"/>
      <point x="531" y="279" type="curve" smooth="yes"/>
      <point x="531" y="125"/>
      <point x="476" y="43"/>
      <point x="380" y="4" type="curve"/>
      <point x="380" y="0" type="line"/>
      <point x="507" y="0" type="line"/>
      <point x="507" y="2" type="line"/>
      <point x="382" y="2" type="line"/>
      <point x="382" y="3" type="line"/>
      <point x="478" y="41"/>
      <point x="533" y="123"/>
      <point x="533" y="279" type="curve" smooth="yes"/>
      <point x="533" y="462"/>
      <point x="448" y="566"/>
      <point x="308" y="566" type="curve" smooth="yes"/>
    </contour>
    <contour>
      <point x="308" y="557" type="move" name="top"/>
    </contour>
  </outline>
</glyph>
<glyph name="one.osf" format="1">
  <advance width="380"/>
  <outline>
    <contour>
      <point x="248" y="560" type="line"/>
      <point x="55" y="443" type="line"/>
      <point x="56" y="441" type="line"/>
      <point x="248" y="558" type="line"/>
      <point x="248" y="0" type="line"/>
      <point x="250" y="0" type="line"/>
      <point x="250" y="560" type="line"/>
    </contour>
  </outline>
</glyph>
<glyph name="ordmasculine.001" format="1">
  <advance width="559"/>
  <outline>
    <contour>
      <point x="160" y="527"/>
      <point x="80" y="431"/>
      <point x="80" y="258" type="curve" smooth="yes"/>
      <point x="80" y="91"/>
      <point x="155" y="-9"/>
      <point x="279" y="-9" type="curve" smooth="yes"/>
      <point x="402" y="-9"/>
      <point x="479" y="89"/>
      <point x="479" y="262" type="curve" smooth="yes"/>
      <point x="479" y="429"/>
      <point x="403" y="527"/>
      <point x="281" y="527" type="curve" smooth="yes"/>
    </contour>
    <contour>
      <point x="402" y="525"/>
      <point x="477" y="427"/>
      <point x="477" y="262" type="curve" smooth="yes"/>
      <point x="477" y="91"/>
      <point x="401" y="-7"/>
      <point x="279" y="-7" type="curve" smooth="yes"/>
      <point x="156" y="-7"/>
      <point x="82" y="93"/>
      <point x="82" y="258" type="curve" smooth="yes"/>
      <point x="82" y="429"/>
      <point x="161" y="525"/>
      <point x="281" y="525" type="curve" smooth="yes"/>
    </contour>
    <contour>
      <point x="280" y="517" type="move" name="top"/>
    </contour>
  </outline>
</glyph>
<glyph name="p.sc" format="1">
  <advance width="504"/>
  <outline>
    <contour>
      <point x="130" y="558" type="line"/>
      <point x="130" y="0" type="line"/>
      <point x="132" y="0" type="line"/>
      <point x="132" y="556" type="line"/>
      <point x="236" y="556" type="line" smooth="yes"/>
      <point x="372" y="556"/>
      <point x="437" y="509"/>
      <point x="437" y="398" type="curve" smooth="yes"/>
      <point x="437" y="285"/>
      <point x="359" y="240"/>
      <point x="233" y="240" type="curve" smooth="yes"/>
      <point x="131" y="240" type="line"/>
      <point x="131" y="238" type="line"/>
      <point x="233" y="238" type="line" smooth="yes"/>
      <point x="361" y="238"/>
      <point x="439" y="284"/>
      <point x="439" y="398" type="curve" smooth="yes"/>
      <point x="439" y="510"/>
      <point x="373" y="558"/>
      <point x="236" y="558" type="curve" smooth="yes"/>
    </contour>
  </outline>
</glyph>
<glyph name="psi.sc" format="1">
  <advance width="568"/>
  <outline>
    <contour>
      <point x="284" y="180" type="line"/>
      <point x="138" y="181"/>
      <point x="57" y="239"/>
      <point x="57" y="350" type="curve" smooth="yes"/>
      <point x="57" y="557" type="line"/>
      <point x="55" y="557" type="line"/>
      <point x="55" y="350" type="line" smooth="yes"/>
      <point x="55" y="239"/>
      <point x="138" y="179"/>
      <point x="284" y="178" type="curve"/>
    </contour>
    <contour>
      <point x="284" y="178" type="line"/>
      <point x="433" y="180"/>
      <point x="513" y="239"/>
      <point x="513" y="350" type="curve" smooth="yes"/>
      <point x="513" y="557" type="line"/>
      <point x="511" y="557" type="line"/>
      <point x="511" y="350" type="line" smooth="yes"/>
      <point x="511" y="241"/>
      <point x="432" y="182"/>
      <point x="284" y="180" type="curve"/>
    </contour>
    <contour>
      <point x="285" y="180" type="line"/>
      <point x="285" y="557" type="line"/>
      <point x="283" y="557" type="line"/>
      <point x="283" y="180" type="line"/>
      <point x="283" y="179" type="line"/>
      <point x="283" y="0" type="line"/>
      <point x="285" y="0" type="line"/>
      <point x="285" y="179" type="line"/>
    </contour>
  </outline>
</glyph>
<glyph name="ring.case" format="1">
  <advance width="186"/>
  <outline>
    <component base="ring" yOffset="126"/>
    <contour>
      <point x="90" y="680" type="move" name="_top"/>
    </contour>
  </outline>
</glyph>
<glyph name="s.sc" format="1">
  <advance width="496"/>
  <outline>
    <contour>
      <point x="149" y="565"/>
      <point x="91" y="508"/>
      <point x="91" y="439" type="curve" smooth="yes"/>
      <point x="91" y="373"/>
      <point x="127" y="338"/>
      <point x="245" y="303" type="curve" smooth="yes"/>
      <point x="362" y="268"/>
      <point x="414" y="238"/>
      <point x="414" y="148" type="curve" smooth="yes"/>
      <point x="414" y="62"/>
      <point x="355" y="-5"/>
      <point x="237" y="-5" type="curve" smooth="yes"/>
      <point x="165" y="-5"/>
      <point x="111" y="22"/>
      <point x="66" y="61" type="curve"/>
      <point x="65" y="59" type="line"/>
      <point x="110" y="20"/>
      <point x="165" y="-7"/>
      <point x="237" y="-7" type="curve" smooth="yes"/>
      <point x="358" y="-7"/>
      <point x="416" y="61"/>
      <point x="416" y="148" type="curve" smooth="yes"/>
      <point x="416" y="238"/>
      <point x="365" y="270"/>
      <point x="246" y="305" type="curve" smooth="yes"/>
      <point x="127" y="340"/>
      <point x="93" y="375"/>
      <point x="93" y="439" type="curve" smooth="yes"/>
      <point x="93" y="506"/>
      <point x="150" y="563"/>
      <point x="251" y="563" type="curve" smooth="yes"/>
      <point x="327" y="563"/>
      <point x="370" y="539"/>
      <point x="400" y="513" type="curve"/>
      <point x="401" y="515" type="line"/>
      <point x="371" y="540"/>
      <point x="328" y="565"/>
      <point x="251" y="565" type="curve" smooth="yes"/>
    </contour>
    <contour>
      <point x="249" y="558" type="move" name="top"/>
    </contour>
    <contour>
      <point x="237" y="0" type="move" name="bottom"/>
    </contour>
  </outline>
</glyph>
<glyph name="sigma.sc" format="1">
  <advance width="433"/>
  <outline>
    <contour>
      <point x="60" y="558" type="line"/>
      <point x="60" y="555" type="line"/>
      <point x="270" y="278" type="line"/>
      <point x="60" y="3" type="line"/>
      <point x="60" y="0" type="line"/>
      <point x="373" y="0" type="line"/>
      <point x="373" y="2" type="line"/>
      <point x="62" y="2" type="line"/>
      <point x="272" y="277" type="line"/>
      <point x="272" y="279" type="line"/>
      <point x="62" y="556" type="line"/>
      <point x="373" y="556" type="line"/>
      <point x="373" y="558" type="line"/>
    </contour>
  </outline>
</glyph>
<glyph name="sterling.tf" format="1">
  <advance width="560"/>
  <outline>
    <contour>
      <point x="216" y="690"/>
      <point x="169" y="618"/>
      <point x="169" y="526" type="curve" smooth="yes"/>
      <point x="169" y="118" type="line" smooth="yes"/>
      <point x="169" y="51"/>
      <point x="145" y="23"/>
      <point x="90" y="2" type="curve"/>
      <point x="90" y="0" type="line"/>
      <point x="467" y="0" type="line"/>
      <point x="467" y="2" type="line"/>
      <point x="95" y="2" type="line"/>
      <point x="148" y="23"/>
      <point x="171" y="52"/>
      <point x="171" y="118" type="curve" smooth="yes"/>
      <point x="171" y="526" type="line" smooth="yes"/>
      <point x="171" y="617"/>
      <point x="218" y="688"/>
      <point x="327" y="688" type="curve" smooth="yes"/>
      <point x="397" y="688"/>
      <point x="437" y="666"/>
      <point x="469" y="628" type="curve"/>
      <point x="471" y="629" type="line"/>
      <point x="438" y="668"/>
      <point x="397" y="690"/>
      <point x="327" y="690" type="curve" smooth="yes"/>
    </contour>
    <contour>
      <point x="113" y="366" type="line"/>
      <point x="113" y="364" type="line"/>
      <point x="405" y="364" type="line"/>
      <point x="405" y="366" type="line"/>
    </contour>
  </outline>
</glyph>
<glyph name="sterling.tosf" format="1">
  <advance width="560"/>
  <outline>
    <contour>
      <point x="232" y="670"/>
      <point x="185" y="598"/>
      <point x="185" y="506" type="curve" smooth="yes"/>
      <point x="185" y="118" type="line" smooth="yes"/>
      <point x="185" y="51"/>
      <point x="161" y="23"/>
      <point x="106" y="2" type="curve"/>
      <point x="106" y="0" type="line"/>
      <point x="449" y="0" type="line"/>
      <point x="449" y="2" type="line"/>
      <point x="111" y="2" type="line"/>
      <point x="164" y="23"/>
      <point x="187" y="52"/>
      <point x="187" y="118" type="curve" smooth="yes"/>
      <point x="187" y="506" type="line" smooth="yes"/>
      <point x="187" y="597"/>
      <point x="234" y="668"/>
      <point x="326" y="668" type="curve" smooth="yes"/>
      <point x="384" y="668"/>
      <point x="421" y="646"/>
      <point x="451" y="608" type="curve"/>
      <point x="453" y="609" type="line"/>
      <point x="422" y="648"/>
      <point x="384" y="670"/>
      <point x="326" y="670" type="curve" smooth="yes"/>
    </contour>
    <contour>
      <point x="129" y="356" type="line"/>
      <point x="129" y="354" type="line"/>
      <point x="387" y="354" type="line"/>
      <point x="387" y="356" type="line"/>
    </contour>
  </outline>
</glyph>
<glyph name="thorn.sc" format="1">
  <advance width="504"/>
  <outline>
    <contour>
      <point x="131" y="448" type="line"/>
      <point x="131" y="446" type="line"/>
      <point x="236" y="446" type="line" smooth="yes"/>
      <point x="372" y="446"/>
      <point x="437" y="399"/>
      <point x="437" y="288" type="curve" smooth="yes"/>
      <point x="437" y="175"/>
      <point x="359" y="130"/>
      <point x="233" y="130" type="curve" smooth="yes"/>
      <point x="131" y="130" type="line"/>
      <point x="131" y="128" type="line"/>
      <point x="233" y="128" type="line" smooth="yes"/>
      <point x="361" y="128"/>
      <point x="439" y="174"/>
      <point x="439" y="288" type="curve" smooth="yes"/>
      <point x="439" y="400"/>
      <point x="373" y="448"/>
      <point x="236" y="448" type="curve" smooth="yes"/>
    </contour>
    <contour>
      <point x="130" y="557" type="line"/>
      <point x="130" y="0" type="line"/>
      <point x="132" y="0" type="line"/>
      <point x="132" y="557" type="line"/>
    </contour>
  </outline>
</glyph>
<glyph name="three.osf" format="1">
  <advance width="478"/>
  <outline>
    <contour>
      <point x="156" y="567"/>
      <point x="107" y="546"/>
      <point x="56" y="496" type="curve"/>
      <point x="58" y="494" type="line"/>
      <point x="107" y="544"/>
      <point x="158" y="565"/>
      <point x="225" y="565" type="curve" smooth="yes"/>
      <point x="327" y="565"/>
      <point x="387" y="500"/>
      <point x="387" y="412" type="curve" smooth="yes"/>
      <point x="387" y="309"/>
      <point x="307" y="259"/>
      <point x="216" y="259" type="curve" smooth="yes"/>
      <point x="167" y="259" type="line"/>
      <point x="167" y="257" type="line"/>
      <point x="216" y="257" type="line" smooth="yes"/>
      <point x="334" y="257"/>
      <point x="406" y="197"/>
      <point x="406" y="80" type="curve" smooth="yes"/>
      <point x="406" y="-30"/>
      <point x="337" y="-109"/>
      <point x="219" y="-109" type="curve" smooth="yes"/>
      <point x="139" y="-109"/>
      <point x="87" y="-80"/>
      <point x="42" y="-32" type="curve"/>
      <point x="40" y="-33" type="line"/>
      <point x="85" y="-81"/>
      <point x="138" y="-111"/>
      <point x="219" y="-111" type="curve" smooth="yes"/>
      <point x="338" y="-111"/>
      <point x="408" y="-32"/>
      <point x="408" y="80" type="curve" smooth="yes"/>
      <point x="408" y="198"/>
      <point x="336" y="252"/>
      <point x="236" y="258" type="curve"/>
      <point x="315" y="265"/>
      <point x="389" y="311"/>
      <point x="389" y="412" type="curve" smooth="yes"/>
      <point x="389" y="501"/>
      <point x="329" y="567"/>
      <point x="225" y="567" type="curve" smooth="yes"/>
    </contour>
  </outline>
</glyph>
<glyph name="tildeacute.case" format="1">
  <advance width="303"/>
  <outline>
    <component base="tilde" yOffset="73"/>
    <component base="acute.case" xOffset="42" yOffset="85"/>
    <contour>
      <point x="149" y="680" type="move" name="_top"/>
    </contour>
  </outline>
</glyph>
<glyph name="tildecombcomb" format="1">
  <advance width="303"/>
  <outline>
    <component base="tildecomb"/>
    <contour>
      <point x="152" y="858" type="move" name="top"/>
    </contour>
    <contour>
      <point x="152" y="680" type="move" name="_top"/>
    </contour>
  </outline>
</glyph>
<glyph name="tsehelper-cy.sc" format="1">
  <advance width="612"/>
  <outline>
    <contour>
      <point x="480" y="2" type="line"/>
      <point x="132" y="2" type="line"/>
      <point x="132" y="557" type="line"/>
      <point x="130" y="557" type="line"/>
      <point x="130" y="0" type="line"/>
      <point x="482" y="0" type="line"/>
      <point x="482" y="557" type="line"/>
      <point x="480" y="557" type="line"/>
    </contour>
    <contour>
      <point x="307" y="0" type="move" name="bottom"/>
    </contour>
    <contour>
      <point x="493" y="0" type="move" name="bottomright"/>
    </contour>
  </outline>
</glyph>
<glyph name="u.sc" format="1">
  <advance width="581"/>
  <outline>
    <contour>
      <point x="459" y="557" type="line"/>
      <point x="459" y="169" type="line" smooth="yes"/>
      <point x="459" y="69"/>
      <point x="415" y="-5"/>
      <point x="291" y="-5" type="curve" smooth="yes"/>
      <point x="165" y="-5"/>
      <point x="122" y="69"/>
      <point x="122" y="169" type="curve" smooth="yes"/>
      <point x="122" y="557" type="line"/>
      <point x="120" y="557" type="line"/>
      <point x="120" y="169" type="line" smooth="yes"/>
      <point x="120" y="68"/>
      <point x="164" y="-7"/>
      <point x="291" y="-7" type="curve" smooth="yes"/>
      <point x="416" y="-7"/>
      <point x="461" y="68"/>
      <point x="461" y="169" type="curve" smooth="yes"/>
      <point x="461" y="557" type="line"/>
    </contour>
    <contour>
      <point x="361" y="0" type="move" name="ogonek"/>
    </contour>
    <contour>
      <point x="291" y="558" type="move" name="top"/>
    </contour>
  </outline>
</glyph>
<glyph name="uni024D.sc" format="1">
  <advance width="491"/>
  <outline>
    <contour>
      <point x="232" y="276" type="line"/>
      <point x="111" y="276" type="line"/>
      <point x="30" y="276" type="line"/>
      <point x="30" y="274" type="line"/>
      <point x="237" y="274" type="line"/>
    </contour>
    <component base="r.sc" xOffset="-19"/>
  </outline>
</glyph>
<glyph name="uni0431.sc" format="1">
  <advance width="516"/>
  <outline>
    <contour>
      <point x="130" y="557" type="line"/>
      <point x="130" y="0" type="line"/>
      <point x="260" y="0" type="line" smooth="yes"/>
      <point x="372" y="0"/>
      <point x="441" y="57"/>
      <point x="441" y="172" type="curve" smooth="yes"/>
      <point x="441" y="275"/>
      <point x="374" y="327"/>
      <point x="257" y="327" type="curve" smooth="yes"/>
      <point x="131" y="327" type="line"/>
      <point x="131" y="325" type="line"/>
      <point x="257" y="325" type="line" smooth="yes"/>
      <point x="373" y="325"/>
      <point x="439" y="273"/>
      <point x="439" y="172" type="curve" smooth="yes"/>
      <point x="439" y="59"/>
      <point x="371" y="2"/>
      <point x="260" y="2" type="curve" smooth="yes"/>
      <point x="132" y="2" type="line"/>
      <point x="132" y="556" type="line"/>
    </contour>
    <contour>
      <point x="130" y="557" type="line"/>
      <point x="131" y="555" type="line"/>
      <point x="388" y="555" type="line"/>
      <point x="388" y="557" type="line"/>
    </contour>
  </outline>
</glyph>
<glyph name="uni0434.sc" format="1">
  <advance width="526"/>
  <outline>
    <contour>
      <point x="34" y="2" type="line"/>
      <point x="82" y="36"/>
      <point x="102" y="78"/>
      <point x="130" y="288" type="curve" smooth="yes"/>
      <point x="165" y="555" type="line"/>
      <point x="397" y="555" type="line"/>
      <point x="397" y="2" type="line"/>
      <point x="31" y="2" type="line"/>
      <point x="31" y="0" type="line"/>
      <point x="399" y="0" type="line"/>
      <point x="399" y="557" type="line"/>
      <point x="163" y="557" type="line"/>
      <point x="128" y="288" type="line" smooth="yes"/>
      <point x="100" y="77"/>
      <point x="80" y="36"/>
      <point x="31" y="2" type="curve"/>
    </contour>
    <component base="descStraight-cy" xOffset="385"/>
    <component base="descStraight-cy" xOffset="65" xScale="-1"/>
  </outline>
</glyph>
<glyph name="uni0437.sc" format="1">
  <advance width="453"/>
  <outline>
    <contour>
      <point x="155" y="566"/>
      <point x="108" y="541"/>
      <point x="62" y="496" type="curve"/>
      <point x="64" y="495" type="line"/>
      <point x="109" y="539"/>
      <point x="155" y="564"/>
      <point x="224" y="564" type="curve"/>
      <point x="316" y="564"/>
      <point x="367" y="507"/>
      <point x="367" y="435" type="curve"/>
      <point x="367" y="351"/>
      <point x="302" y="306"/>
      <point x="213" y="306" type="curve" smooth="yes"/>
      <point x="171" y="306" type="line"/>
      <point x="171" y="304" type="line"/>
      <point x="220" y="304" type="line" smooth="yes"/>
      <point x="319" y="304"/>
      <point x="386" y="248"/>
      <point x="386" y="160" type="curve" smooth="yes"/>
      <point x="386" y="58"/>
      <point x="316" y="-5"/>
      <point x="215" y="-5" type="curve"/>
      <point x="139" y="-5"/>
      <point x="88" y="21"/>
      <point x="42" y="70" type="curve"/>
      <point x="40" y="69" type="line"/>
      <point x="87" y="19"/>
      <point x="139" y="-7"/>
      <point x="215" y="-7" type="curve"/>
      <point x="317" y="-7"/>
      <point x="388" y="56"/>
      <point x="388" y="160" type="curve" smooth="yes"/>
      <point x="388" y="249"/>
      <point x="322" y="301"/>
      <point x="236" y="305" type="curve"/>
      <point x="304" y="310"/>
      <point x="369" y="350"/>
      <point x="369" y="435" type="curve"/>
      <point x="369" y="509"/>
      <point x="317" y="566"/>
      <point x="224" y="566" type="curve"/>
    </contour>
    <contour>
      <point x="224" y="557" type="move" name="top"/>
    </contour>
    <contour>
      <point x="228" y="0" type="move" name="bottom"/>
    </contour>
  </outline>
</glyph>
<glyph name="uni0438.sc" format="1">
  <advance width="601"/>
  <outline>
    <contour>
      <point x="468" y="557" type="line"/>
      <point x="132" y="2" type="line"/>
      <point x="132" y="12"/>
      <point x="132" y="23"/>
      <point x="132" y="33" type="curve"/>
      <point x="132" y="557" type="line"/>
      <point x="130" y="557" type="line"/>
      <point x="130" y="0" type="line"/>
      <point x="133" y="0" type="line"/>
      <point x="469" y="555" type="line"/>
      <point x="469" y="540"/>
      <point x="469" y="523"/>
      <point x="469" y="508" type="curve"/>
      <point x="469" y="0" type="line"/>
      <point x="471" y="0" type="line"/>
      <point x="471" y="557" type="line"/>
    </contour>
    <contour>
      <point x="300" y="557" type="move" name="top"/>
    </contour>
  </outline>
</glyph>
<glyph name="uni043B.sc" format="1">
  <advance width="580"/>
  <outline>
    <contour>
      <point x="184" y="555" type="line"/>
      <point x="448" y="555" type="line"/>
      <point x="448" y="0" type="line"/>
      <point x="450" y="0" type="line"/>
      <point x="450" y="557" type="line"/>
      <point x="183" y="557" type="line"/>
    </contour>
    <contour>
      <point x="183" y="557" type="line"/>
      <point x="156" y="285" type="line" smooth="yes"/>
      <point x="134" y="67"/>
      <point x="123" y="23"/>
      <point x="61" y="1" type="curve"/>
      <point x="61" y="-1" type="line"/>
      <point x="125" y="22"/>
      <point x="136" y="65"/>
      <point x="158" y="285" type="curve" smooth="yes"/>
      <point x="185" y="555" type="line"/>
    </contour>
  </outline>
</glyph>
<glyph name="uni043F.sc" format="1">
  <advance width="601"/>
  <outline>
    <contour>
      <point x="130" y="557" type="line"/>
      <point x="130" y="0" type="line"/>
      <point x="132" y="0" type="line"/>
      <point x="132" y="555" type="line"/>
      <point x="469" y="555" type="line"/>
      <point x="469" y="0" type="line"/>
      <point x="471" y="0" type="line"/>
      <point x="471" y="557" type="line"/>
    </contour>
    <contour>
      <point x="480" y="0" type="move" name="bottomright"/>
    </contour>
  </outline>
</glyph>
